<svg fill="none" height="100%" width="100%" viewBox="0 0 800 800" xmlns:xlink="http://www.w3.org/1999/xlink" xmlns="http://www.w3.org/2000/svg"><g id="i0"><g transform="translate(331.161,310.959)"><g transform="rotate(9)"><animateTransform repeatCount="indefinite" type="rotate" attributeName="transform" dur="5.005s" begin="0s" calcMode="spline" values="9; -8; -41; -40; 9; -8; -41; -40; 9; -8; -41; -40; 9; -8; -41; -40; 9; -8; -41; -40; 9; -8; -41; -40; 9; -8; -41; -40; 9; -8; -41; -40; 9; 9" keyTimes="0; 0.061807; 0.115393; 0.173087; 0.226667; 0.26; 0.293333; 0.331273; 0.36; 0.38; 0.400253; 0.42; 0.44; 0.46; 0.480253; 0.5; 0.52; 0.54; 0.560253; 0.58; 0.6; 0.62; 0.640253; 0.66; 0.68; 0.713333; 0.747087; 0.78; 0.813333; 0.853333; 0.902833; 0.951107; 1; 1" keySplines="0.333 0 0.667 1; 0.333 0 0.667 1; 0.333 0 0.667 1; 0.333 0 0.667 1; 0.167 0 0.667 1; 0.333 0 0.667 1; 0.333 0 0.667 1; 0.333 0 0.667 1; 0.167 0 0.667 1; 0.333 0 0.667 1; 0.333 0 0.667 1; 0.333 0 0.667 1; 0.167 0 0.667 1; 0.333 0 0.667 1; 0.333 0 0.667 1; 0.333 0 0.667 1; 0.167 0 0.667 1; 0.333 0 0.667 1; 0.333 0 0.667 1; 0.333 0 0.667 1; 0.167 0 0.667 1; 0.333 0 0.667 1; 0.333 0 0.667 1; 0.333 0 0.667 1; 0.167 0 0.667 1; 0.333 0 0.667 1; 0.333 0 0.667 1; 0.333 0 0.667 1; 0.167 0 0.667 1; 0.333 0 0.667 1; 0.333 0 0.667 1; 0.333 0 0.667 1; 0 0 1 1" fill="freeze" /><g transform="scale(0.51,0.51) translate(-125.022,-42.41)"><g id="i1"><g transform="translate(219.267,323.718)"><g transform="rotate(-13)"><animateTransform repeatCount="indefinite" type="rotate" attributeName="transform" dur="5.005s" begin="0s" calcMode="spline" values="-13; 46; 86; 54; -13; 46; 86; 54; -13; 46; 86; 54; -13; 46; 86; 54; -13; 46; 86; 54; -13; 46; 86; 54; -13; 46; 86; 54; -13; 46; 86; 54; -13; -13" keyTimes="0; 0.061807; 0.115393; 0.173087; 0.226667; 0.26; 0.293333; 0.331273; 0.36; 0.38; 0.400253; 0.42; 0.44; 0.46; 0.480253; 0.5; 0.52; 0.54; 0.560253; 0.58; 0.6; 0.62; 0.640253; 0.66; 0.68; 0.713333; 0.747087; 0.78; 0.813333; 0.853333; 0.902833; 0.951107; 1; 1" keySplines="0.333 0 0.667 1; 0.333 0 0.667 1; 0.333 0 0.667 1; 0.333 0 0.667 1; 0.167 0 0.667 1; 0.333 0 0.667 1; 0.333 0 0.667 1; 0.333 0 0.667 1; 0.167 0 0.667 1; 0.333 0 0.667 1; 0.333 0 0.667 1; 0.333 0 0.667 1; 0.167 0 0.667 1; 0.333 0 0.667 1; 0.333 0 0.667 1; 0.333 0 0.667 1; 0.167 0 0.667 1; 0.333 0 0.667 1; 0.333 0 0.667 1; 0.333 0 0.667 1; 0.167 0 0.667 1; 0.333 0 0.667 1; 0.333 0 0.667 1; 0.333 0 0.667 1; 0.167 0 0.667 1; 0.333 0 0.667 1; 0.333 0 0.667 1; 0.333 0 0.667 1; 0.167 0 0.667 1; 0.333 0 0.667 1; 0.333 0 0.667 1; 0.333 0 0.667 1; 0 0 1 1" fill="freeze" /><g transform="scale(1,1) translate(-64.267,-59.718)"><g id="i2" transform="matrix(1,0,0,1,62.862,284.222)"><path fill="#00090c" d="M-28.128,0.4C-11.335,10.486,10.326,12.841,29.913,10.573C29.348,7.264,29.007,4.257,28.781,1.49C8.341,3.267,-11.721,-2.482,-29.913,-12.84C-29.113,-8.066,-28.492,-3.586,-28.128,0.4Z" /></g><g id="i3" transform="matrix(1,0,0,1,64.857,295.839)"><path fill="#252d42" d="M-30.124,-11.217C-29.548,-4.923,-29.582,0.167,-30.398,3.447C-11.817,10.693,10.278,11.216,30.398,9.867C29.298,5.939,28.498,2.305,27.917,-1.044C8.33,1.224,-13.331,-1.131,-30.124,-11.217Z" /></g><g id="i4" transform="matrix(1,0,0,1,57.387,360.15)"><path fill="#252d42" d="M-34.374,-35.104C-38.228,-26.964,-41.838,-18.675,-43.104,-12.184C-15.563,2.883,11.329,16.706,41.079,34.017C41.757,34.405,42.426,34.759,43.104,35.104C28.164,1.207,-0.781,-22.564,-34.374,-35.104Z" /></g><g id="i5" transform="matrix(1,0,0,1,60.752,240.3)"><path fill="#eb9f7b" d="M-22.961,-25.765C-16.951,-7.453,-30.891,12.6,-27.803,31.081C-9.61,41.439,10.45,47.189,30.891,45.412C30.309,38.182,30.601,32.707,30.292,28.77C29.468,18.266,27.463,-7.223,21.319,-47.188C21.319,-47.188,-22.961,-25.765,-22.961,-25.765Z" /></g><g id="i6" transform="matrix(1,0,0,1,102.62,353.883)"><path fill="#00090c" d="M79.608,31.72C78.15,18.172,25.639,18.721,6.362,-15.909C-0.599,-28.405,-4.802,-39.086,-7.365,-48.176C-27.485,-46.828,-49.58,-47.351,-68.162,-54.597C-68.198,-54.458,-68.219,-54.303,-68.259,-54.175C-69.935,-48.264,-74.954,-38.665,-79.608,-28.837C-46.015,-16.297,-17.069,7.474,-2.129,41.371C23.562,54.597,52.488,40.721,79.608,31.72Z" /></g><g id="i7" transform="matrix(1,0,0,1,97.979,383.417)"><path fill="#b3d5dd" d="M0.487,10.75C-29.263,-6.562,-56.156,-20.384,-83.697,-35.451C-84.242,-32.669,-84.359,-30.22,-83.881,-28.252C-80.905,-16.156,-33.72,-5.129,-14.914,15.16C3.894,35.451,76.757,22.478,83.744,5.415C84.217,4.249,84.359,3.182,84.25,2.186C56.418,11.423,26.677,25.81,0.487,10.75Z" /></g><g id="i8" transform="matrix(1,0,0,1,51.23,142.612)"><path fill="#000922" d="M49.569,-54.037C49.355,-26.507,49.836,-9.138,48.799,-0.051C41.831,60.729,39.322,93.194,41.124,113.35C41.491,117.509,42.048,121.144,42.789,124.399C43.159,126.069,43.59,127.65,44.058,129.143C30.098,140.305,-6.309,141.28,-19.678,131.573C-20.22,126.838,-29.914,89.371,-35.302,72.481C-50.232,25.774,-29.268,-33.301,-29.948,-50.516C-33.356,-136.851,50.232,-141.281,49.569,-54.037Z" /></g></g></g></g></g></g></g></g></g><g id="i0"><g transform="translate(331.161,310.959)"><g transform="rotate(9)"><animateTransform repeatCount="indefinite" type="rotate" attributeName="transform" dur="5.005s" begin="0s" calcMode="spline" values="9; -8; -41; -40; 9; -8; -41; -40; 9; -8; -41; -40; 9; -8; -41; -40; 9; -8; -41; -40; 9; -8; -41; -40; 9; -8; -41; -40; 9; -8; -41; -40; 9; 9" keyTimes="0; 0.061807; 0.115393; 0.173087; 0.226667; 0.26; 0.293333; 0.331273; 0.36; 0.38; 0.400253; 0.42; 0.44; 0.46; 0.480253; 0.5; 0.52; 0.54; 0.560253; 0.58; 0.6; 0.62; 0.640253; 0.66; 0.68; 0.713333; 0.747087; 0.78; 0.813333; 0.853333; 0.902833; 0.951107; 1; 1" keySplines="0.333 0 0.667 1; 0.333 0 0.667 1; 0.333 0 0.667 1; 0.333 0 0.667 1; 0.167 0 0.667 1; 0.333 0 0.667 1; 0.333 0 0.667 1; 0.333 0 0.667 1; 0.167 0 0.667 1; 0.333 0 0.667 1; 0.333 0 0.667 1; 0.333 0 0.667 1; 0.167 0 0.667 1; 0.333 0 0.667 1; 0.333 0 0.667 1; 0.333 0 0.667 1; 0.167 0 0.667 1; 0.333 0 0.667 1; 0.333 0 0.667 1; 0.333 0 0.667 1; 0.167 0 0.667 1; 0.333 0 0.667 1; 0.333 0 0.667 1; 0.333 0 0.667 1; 0.167 0 0.667 1; 0.333 0 0.667 1; 0.333 0 0.667 1; 0.333 0 0.667 1; 0.167 0 0.667 1; 0.333 0 0.667 1; 0.333 0 0.667 1; 0.333 0 0.667 1; 0 0 1 1" fill="freeze" /><g transform="scale(0.51,0.51) translate(-125.022,-42.41)"><g id="i8" transform="matrix(1,0,0,1,140.298,199.274)"><path fill="#000922" d="M112.681,71.475C90.453,11.787,74.351,-33.699,78.915,-41.542C118.585,-188.445,50.57,-191.902,3.999,-195.85C-26.404,-198.427,-119.602,-185.461,-126.06,-153.07C-139.294,-86.7,-45.032,-15.757,-13.048,48.154C7.725,89.664,-4.692,72.541,13.333,98.187C83.789,198.427,139.294,142.94,112.681,71.475Z" /></g></g></g></g></g><g id="i9"><g transform="translate(364.241,566.858)"><g transform="rotate(0)"><animateTransform repeatCount="indefinite" type="rotate" attributeName="transform" dur="5.005s" begin="0s" calcMode="spline" values="0; 90; 180; 270; 360; 450; 540.018; 630.388; 720; 810; 900.018; 996.993; 1080; 1170; 1260.018; 1356.993; 1440; 1530; 1620.018; 1716.993; 1800; 1890; 1980.018; 2076.993; 2160; 2250; 2340.018; 2436.993; 2520; 2610; 2700.018; 2796.993; 2880; 2880" keyTimes="0; 0.061807; 0.115393; 0.173087; 0.226667; 0.26; 0.293087; 0.333333; 0.36; 0.38; 0.4; 0.42; 0.44; 0.46; 0.48; 0.5; 0.52; 0.54; 0.56; 0.58; 0.6; 0.62; 0.64; 0.66; 0.68; 0.713333; 0.746667; 0.78; 0.813333; 0.853333; 0.902227; 0.951107; 1; 1" keySplines="0.333 0 0.667 1; 0.333 0 0.667 1; 0.333 0 0.667 1; 0.333 0 0.667 1; 0.167 0 0.667 1; 0.333 0 0.667 1; 0.333 0 0.667 1; 0.333 0 0.667 1; 0.167 0 0.667 1; 0.333 0 0.667 1; 0.333 0 0.667 1; 0.333 0 0.667 1; 0.167 0 0.667 1; 0.333 0 0.667 1; 0.333 0 0.667 1; 0.333 0 0.667 1; 0.167 0 0.667 1; 0.333 0 0.667 1; 0.333 0 0.667 1; 0.333 0 0.667 1; 0.167 0 0.667 1; 0.333 0 0.667 1; 0.333 0 0.667 1; 0.333 0 0.667 1; 0.167 0 0.667 1; 0.333 0 0.667 1; 0.333 0 0.667 1; 0.333 0 0.667 1; 0.167 0 0.667 1; 0.333 0 0.667 1; 0.333 0 0.667 1; 0.333 0 0.667 1; 0 0 1 1" fill="freeze" /><g transform="scale(0.51,0.51) translate(-17.883,-29.172)"><g id="i8" transform="matrix(1,0,0,1,31.596,85.003)"><path fill="#252d42" d="M6.352,74.501C18.035,84.167,30.854,75.14,27.859,62.469C24.857,49.802,2.966,-63.948,-4.067,-71.643C-11.105,-79.341,-30.854,-84.166,-24.627,-49.782C-18.402,-15.395,-1.227,68.227,6.352,74.501Z" /></g></g></g></g></g><g transform="matrix(0.51,0,0,0.51,419.889,207.22)" id="i10"><g id="i8" transform="matrix(1,0,0,1,182.282,142.338)"><path fill="#eb9f7b" d="M-83.394,-11.425C-85.415,-21.84,-89.796,-106.674,-113.209,-123.884C-136.624,-141.096,-181.65,-128.708,-181.114,-85.529C-180.57,-42.353,-137.672,35.038,-122.767,66.66C-107.859,98.283,-81.735,141.096,-69.596,135.159C-57.461,129.22,-12.325,128.9,13.34,121.422C39.002,113.939,79.26,90.353,95.526,101.306C111.793,112.262,122.074,131.982,147.329,119.89C147.329,119.89,167.089,118.704,157.903,108.049C157.903,108.049,173.418,105.829,165.812,95.525C165.812,95.525,179.521,96.243,170.335,85.197C170.335,85.197,180.189,83.549,174.949,75.725C169.705,67.896,169.419,60.252,146.958,61.151C146.958,61.151,155.153,54.72,163.607,54.501C172.059,54.282,181.65,40.888,168.326,36.401C154.992,31.913,150.23,49.062,136.483,44.645C122.745,40.228,109.835,46.277,98.385,56.843C86.938,67.411,28.907,67.592,-9.72,71.197C-48.348,74.803,-64.452,86.11,-83.394,-11.425Z" /></g></g><g transform="matrix(0.51,0,0,0.51,427.54,139.39)" id="i11"><g id="i12" transform="matrix(1,0,0,1,184.887,104.04)"><path fill="#eb9f7b" d="M-60.55,32.747C-25.362,28.433,-34.865,66.957,23.649,76.612C36.233,80.872,51.748,78.89,65.404,72.069C64.863,71.486,64.315,70.906,63.768,70.336C55.939,62.245,68.129,38.514,68.129,38.514C103.343,-80.872,-48.168,-73.208,-75.76,-42.772C-103.343,-12.336,-90.553,7.543,-93.495,31.96C-93.864,35.042,-94.651,37.815,-95.668,40.366C-84.631,36.109,-72.273,33.971,-60.55,32.747Z" /></g><g id="i2" transform="matrix(1,0,0,1,115.538,184.36)"><path fill="#f3c6b1" d="M59.867,-18.306C28.068,-25.412,7.917,-63.303,-26.929,-56.781C-38.551,-54.821,-43.114,-46.006,-53.862,-41.062C-54.396,-39.413,-55.021,-37.825,-55.763,-36.361C-115.349,10.868,-92.513,45.937,-46.294,51.85C-37.732,47.793,-7.917,35.883,-7.917,35.883C-7.917,35.883,30.014,63.303,68.36,54.659C95.777,48.48,91.764,-2.645,91.764,-2.645C91.764,-2.645,114.024,-3.451,114.709,-6.84C115.348,-9.99,108.85,-18.232,101.251,-25.468C88.053,-17.801,72.693,-14.847,59.867,-18.306Z" /></g><g id="i3" transform="matrix(1,0,0,1,150.002,90.345)"><path fill="#252d42" d="M52.503,10.995C15.58,-19.808,-26.226,-39.289,-71.172,-52.079C-76.809,-47.064,-84.238,-43.549,-84.158,-32.6C-60.276,-16.712,-23.733,-13.106,2.961,-5.344C-11.923,5.84,-26.454,-4.201,-40.79,-1.582C-7.579,13.223,31.618,20.856,58.062,45.056C67.696,47.736,76.505,50.077,84.238,52.079C80.867,35.131,64.551,22.138,52.503,10.995Z" /></g><g id="i4" transform="matrix(1,0,0,1,161.906,85.603)"><path fill="#000922" d="M-84.317,-59.88C-80.758,-57.338,-77.4,-55.81,-77.4,-55.81C-78.367,-52.14,-80.538,-49.588,-83.077,-47.337C-38.131,-34.546,3.675,-15.066,40.598,15.737C52.646,26.88,68.963,39.872,72.334,56.82C76.684,57.946,80.701,58.969,84.317,59.88C57.939,-6.148,-20.666,-32.08,-84.317,-59.88Z" /></g><g id="i5" transform="matrix(1,0,0,1,132.287,96.573)"><path fill="#000922" d="M-23.075,-7.81C-8.739,-10.43,5.792,-0.389,20.676,-11.572C-6.018,-19.334,-42.561,-22.94,-66.443,-38.828C-66.441,-38.299,-66.416,-37.757,-66.381,-37.194C-65.139,-19.7,-75.777,-18.28,-60.156,-3.148C-44.534,11.982,2.642,17.115,48.551,30.947C58.146,33.836,67.277,36.461,75.777,38.828C49.333,14.628,10.136,6.995,-23.075,-7.81Z" /></g><g id="i6" transform="matrix(1,0,0,1,165.345,83.46)"><path fill="#008fef" d="M54.072,-16.951C57.243,-11.182,54.645,-2.244,55.767,3.9C37.313,-16.007,22.387,-51.369,-11.5,-51.525C-10.374,-45.382,-9.252,-39.237,-4.41,-35.891C-32.483,-50.326,-63.499,-61.046,-95.118,-65.571C-93.614,-62.483,-90.626,-59.779,-87.756,-57.736C-24.105,-29.936,54.501,-4.004,80.879,62.024C86.697,63.487,91.507,64.67,95.118,65.571C90.572,33.985,82.203,2.486,54.072,-16.951Z" /></g><g id="i7" transform="matrix(1,0,0,1,185.94,81.763)"><path fill="#00aeef" d="M59.364,-40.092C22.314,-73.525,-112.842,-80.568,-116.273,-70.418C-117.049,-68.115,-116.697,-65.914,-115.714,-63.875C-84.095,-59.349,-53.078,-48.629,-25.006,-34.194C-29.848,-37.54,-30.97,-43.685,-32.096,-49.828C1.792,-49.673,16.718,-14.31,35.172,5.597C34.05,-0.547,36.647,-9.486,33.476,-15.255C61.607,4.182,69.976,35.681,74.522,67.268C78.008,68.139,80.378,68.748,81.433,69.09C117.049,80.568,96.417,-6.657,59.364,-40.092Z" /></g><g id="i8" transform="matrix(1,0,0,1,149.228,142.451)"><path fill="#4a2800" d="M0.951,15.336C0.951,15.336,-0.117,2.505,-20.32,1.965C-40.529,1.425,-34.09,36.642,-14.298,34.931C-14.298,34.931,-34.06,51.037,-62.037,32.095C-90.011,13.153,-102.306,10.737,-93.672,0.098C-85.036,-10.546,-73.529,4.282,-73.529,4.282C-73.529,4.282,-92.582,-9.166,-85.65,-15.723C-78.714,-22.281,-64.649,-8.98,-64.649,-8.98C-64.649,-8.98,-88.822,-25.48,-89.041,-38.259C-89.264,-51.037,-60.917,-39.636,-60.917,-39.636C-60.917,-39.636,5.662,-22.53,25.775,-16.626C45.884,-10.722,101.869,4.252,101.869,4.252C101.869,4.252,102.306,30.34,80.252,31.197C58.186,32.058,73.823,13.417,73.823,13.417C73.823,13.417,71.331,21.608,55.444,22.187C39.557,22.764,51.353,-0.209,51.353,-0.209C51.353,-0.209,37.405,21.614,29.816,15.31C22.23,9.002,26.021,-5.446,26.021,-5.446C26.021,-5.446,22.965,23.042,13.996,29.762C5.027,36.48,0.951,15.336,0.951,15.336Z" /></g></g><g id="i13"><g transform="translate(588.19,563.455)"><g transform="rotate(0)"><animateTransform repeatCount="indefinite" type="rotate" attributeName="transform" dur="5.005s" begin="0s" calcMode="spline" values="0; 6120" keyTimes="0; 1" keySplines="0.546 0 0.61 1" fill="freeze" /><g transform="scale(0.51,0.51) translate(-233,-233.5)"><g id="i5" transform="matrix(0.75,0,0,0.75,232.848,233.426)"><path stroke-dashoffset="-88" stroke-dasharray="12 88" pathLength="100" d="M148.313,-158.742C109.6,-194.922,57.653,-217.134,0.48,-217.259C-119.505,-217.517,-216.986,-120.463,-217.248,-0.476C-217.399,68.622,-185.27,130.25,-135.081,170.149C-98.119,199.535,-51.355,217.141,-0.467,217.253C119.521,217.517,217,120.462,217.26,0.471C217.399,-62.345,190.852,-118.981,148.313,-158.742Z" stroke-miterlimit="10" stroke-width="6.146" stroke="#353535" /></g><g id="i4" transform="matrix(0.75,0,0,0.75,232.848,233.426)"><path stroke-dashoffset="-69" stroke-dasharray="8 92" pathLength="100" d="M148.313,-158.742C109.6,-194.922,57.653,-217.134,0.48,-217.259C-119.505,-217.517,-216.986,-120.463,-217.248,-0.476C-217.399,68.622,-185.27,130.25,-135.081,170.149C-98.119,199.535,-51.355,217.141,-0.467,217.253C119.521,217.517,217,120.462,217.26,0.471C217.399,-62.345,190.852,-118.981,148.313,-158.742Z" stroke-miterlimit="10" stroke-width="6.146" stroke="#353535" /></g><g id="i7" transform="matrix(1,0,0,1,233.918,233.847)"><path fill="#000922" fill-rule="evenodd" d="M148.319,-158.738C109.602,-194.924,57.654,-217.129,0.485,-217.254C-119.501,-217.516,-216.982,-120.463,-217.248,-0.477C-217.401,68.625,-185.27,130.248,-135.078,170.148C-98.112,199.538,-51.352,217.14,-0.467,217.254C119.524,217.516,216.999,120.458,217.261,0.47C217.401,-62.345,190.849,-118.983,148.319,-158.738ZM-182.243,-0.4C-182.025,-101.054,-100.251,-182.472,0.408,-182.253C48.899,-182.148,92.922,-163.105,125.51,-132.15C160.563,-98.85,182.375,-51.763,182.26,0.396C182.042,101.051,100.27,182.472,-0.386,182.25C-42.603,182.159,-81.432,167.717,-112.271,143.559C-154.973,110.116,-182.367,58.04,-182.243,-0.4Z" /></g><g id="i8" transform="matrix(1,0,0,1,232.968,233.473)"><path stroke-miterlimit="10" stroke-width="6.146" stroke="#ffffff" d="M148.313,-158.742C109.601,-194.923,57.653,-217.133,0.48,-217.258C-119.504,-217.517,-216.986,-120.462,-217.247,-0.475C-217.398,68.623,-185.27,130.249,-135.08,170.149C-98.119,199.534,-51.355,217.141,-0.467,217.253C119.521,217.517,217,120.461,217.259,0.471C217.398,-62.345,190.852,-118.982,148.313,-158.742Z" /></g></g></g></g></g><g id="i14"><g transform="translate(234.25,562.945)"><g transform="rotate(0)"><animateTransform repeatCount="indefinite" type="rotate" attributeName="transform" dur="5.005s" begin="0s" calcMode="spline" values="0; 6120" keyTimes="0; 1" keySplines="0.546 0 0.61 1" fill="freeze" /><g transform="scale(0.51,0.51) translate(-233,-233.5)"><g id="i7" transform="matrix(1,0,0,1,232.848,233.426)"><path fill="#000922" fill-rule="evenodd" d="M148.313,-158.742C109.6,-194.921,57.652,-217.133,0.48,-217.258C-119.506,-217.517,-216.986,-120.462,-217.248,-0.476C-217.399,68.622,-185.27,130.25,-135.081,170.149C-98.12,199.536,-51.355,217.141,-0.468,217.253C119.521,217.517,216.999,120.462,217.26,0.471C217.399,-62.344,190.852,-118.981,148.313,-158.742ZM-182.244,-0.399C-182.025,-101.056,-100.248,-182.474,0.407,-182.254C48.899,-182.148,92.923,-163.108,125.505,-132.153C160.558,-98.852,182.371,-51.764,182.257,0.395C182.039,101.05,100.266,182.471,-0.39,182.253C-42.605,182.158,-81.432,167.714,-112.279,143.557C-154.975,110.113,-182.372,58.041,-182.244,-0.399Z" /></g><g id="i8" transform="matrix(1,0,0,1,232.848,233.426)"><path stroke-miterlimit="10" stroke-width="6.146" stroke="#ffffff" d="M148.313,-158.742C109.6,-194.922,57.653,-217.134,0.48,-217.259C-119.505,-217.517,-216.986,-120.463,-217.248,-0.476C-217.399,68.622,-185.27,130.25,-135.081,170.149C-98.119,199.535,-51.355,217.141,-0.467,217.253C119.521,217.517,217,120.462,217.26,0.471C217.399,-62.345,190.852,-118.981,148.313,-158.742Z" /></g><g id="i6" transform="matrix(0.75,0,0,0.75,232.848,233.426)"><path stroke-dashoffset="-14" stroke-dasharray="44 56" pathLength="100" d="M148.313,-158.742C109.6,-194.922,57.653,-217.134,0.48,-217.259C-119.505,-217.517,-216.986,-120.463,-217.248,-0.476C-217.399,68.622,-185.27,130.25,-135.081,170.149C-98.119,199.535,-51.355,217.141,-0.467,217.253C119.521,217.517,217,120.462,217.26,0.471C217.399,-62.345,190.852,-118.981,148.313,-158.742Z" stroke-miterlimit="10" stroke-width="6.146" stroke="#353535" /></g></g></g></g></g><g id="i15"><g transform="translate(365.83,573.4)"><g transform="rotate(0)"><animateTransform repeatCount="indefinite" type="rotate" attributeName="transform" dur="5.005s" begin="0s" calcMode="spline" values="0; 90; 180; 270; 360; 360" keyTimes="0; 0.03454; 0.064487; 0.096727; 0.126667; 1" keySplines="0.333 0 0.667 1; 0.333 0 0.667 1; 0.333 0 0.667 1; 0.333 0 0.667 1; 0 0 1 1" fill="freeze" /><g transform="scale(0.51,0.51) translate(-68,-68)"><g id="i7" transform="matrix(1,0,0,1,67.791,68.522)"><path fill="#b3d5dd" fill-rule="evenodd" d="M0.145,-67.101C-36.912,-67.182,-67.017,-37.207,-67.099,-0.147C-67.181,36.91,-37.202,67.019,-0.146,67.103C36.912,67.182,67.022,37.204,67.099,0.147C67.181,-36.912,37.205,-67.021,0.145,-67.101ZM14.688,-27.882C13.083,-28.726,11.405,-29.446,9.648,-30.008C9.648,-30.008,9.703,-55.062,9.703,-55.062C18.071,-53.594,25.787,-50.28,32.424,-45.54C32.424,-45.54,14.688,-27.882,14.688,-27.882ZM-9.521,-30.052C-11.269,-29.498,-12.954,-28.787,-14.565,-27.947C-14.565,-27.947,-32.224,-45.682,-32.224,-45.682C-25.561,-50.39,-17.834,-53.674,-9.463,-55.103C-9.463,-55.103,-9.521,-30.052,-9.521,-30.052ZM-28.058,-14.326C-28.864,-12.747,-29.562,-11.105,-30.101,-9.386C-30.101,-9.386,-55.104,-9.438,-55.104,-9.438C-53.69,-17.772,-50.427,-25.471,-45.763,-32.113C-45.763,-32.113,-28.058,-14.326,-28.058,-14.326ZM-29.951,9.786C-29.413,11.444,-28.737,13.042,-27.945,14.563C-27.945,14.563,-45.682,32.228,-45.682,32.228C-50.341,25.634,-53.606,17.997,-55.057,9.734C-55.057,9.734,-29.951,9.786,-29.951,9.786ZM-14.329,28.056C-12.825,28.822,-11.273,29.487,-9.649,30.009C-9.649,30.009,-9.703,55.06,-9.703,55.06C-17.929,53.618,-25.543,50.383,-32.109,45.768C-32.109,45.768,-14.329,28.056,-14.329,28.056ZM9.523,30.049C11.142,29.537,12.702,28.876,14.201,28.118C14.201,28.118,31.911,45.903,31.911,45.903C25.324,50.492,17.702,53.697,9.466,55.102C9.466,55.102,9.523,30.049,9.523,30.049ZM27.882,14.684C28.683,13.167,29.363,11.574,29.911,9.917C29.911,9.917,55.01,9.975,55.01,9.975C53.524,18.233,50.226,25.852,45.541,32.422C45.541,32.422,27.882,14.684,27.882,14.684ZM30.145,-9.251C29.616,-10.974,28.924,-12.622,28.12,-14.202C28.12,-14.202,45.906,-31.911,45.906,-31.911C50.545,-25.25,53.768,-17.534,55.148,-9.196C55.148,-9.196,30.145,-9.251,30.145,-9.251Z" /></g><g id="i8" transform="matrix(1,0,0,1,67.794,68.522)"><path fill="#8bbfcb" fill-rule="evenodd" d="M0.129,-60.446C-33.253,-60.52,-60.379,-33.517,-60.449,-0.133C-60.52,33.252,-33.519,60.373,-0.137,60.446C33.253,60.52,60.374,33.516,60.447,0.133C60.521,-33.251,33.517,-60.375,0.129,-60.446ZM-0.124,54.977C-30.483,54.91,-55.048,30.243,-54.978,-0.121C-54.917,-30.482,-30.247,-55.04,0.12,-54.977C30.483,-54.908,55.044,-30.243,54.977,0.118C54.908,30.483,30.241,55.04,-0.124,54.977Z" /></g></g></g></g></g><g transform="matrix(0.51,0,0,0.51,209.26,293.92)" id="i16"><g id="i17" transform="matrix(1,0,0,1,595.014,103.065)"><path fill="#000922" d="M34.733,-17.011C34.729,-17.042,34.721,-17.073,34.717,-17.104C32.616,-29.781,-7.087,-26.348,-20.912,-17.424C-34.733,-8.498,-30.061,1.605,-25.121,15.692C-20.184,29.781,-13.325,24.523,-13.325,24.523C-13.325,24.523,2.787,13.843,2.787,13.843C1.237,10.475,4.86,7.466,6.763,6.172C6.816,5.325,6.976,4.531,6.938,3.956C13.622,-8.271,23.642,-13.552,34.733,-17.011Z" /></g><g id="i18" transform="matrix(1,0,0,1,691.343,71.851)"><path fill="#000922" d="M73.943,-67.838C66.128,-64.917,16.874,31.332,10.118,38.188C3.367,45.042,-32.411,49.016,-49.371,46.937C-66.281,44.861,-59.544,26.874,-61.596,14.203C-72.687,17.662,-82.707,22.943,-89.391,35.171C-89.353,35.746,-89.513,36.538,-89.566,37.386C-88.933,36.954,-88.492,36.713,-88.492,36.713C-84.192,53.247,-69.735,65.907,-58.023,68.33C-46.305,70.758,-12.909,65.343,-0.863,64.542C11.193,63.748,22.599,57.38,35.844,39.685C49.089,21.99,77.972,-25.575,83.764,-34.768C89.566,-43.963,81.755,-70.758,73.943,-67.838Z" /></g><g id="i19" transform="matrix(1,0,0,1,689.689,427.955)"><path fill="#008fef" d="M52.968,81.071C52.837,80.587,52.694,80.127,52.549,79.666C37.538,77.353,24.694,67.779,17.245,52.797C-3.487,9.371,-34.638,-28.874,-44.943,-77.483C-46.212,-89.097,-39.805,-97.818,-32.865,-106.51C-34.285,-111.268,-37.213,-113.028,-38.716,-113.627C-46.458,-108.66,-53.651,-101.586,-63.771,-104.038C-63.118,-100.772,-63.117,-97.482,-63.117,-97.482C-65.753,-84.475,-46.735,-52.328,-42.425,-38.434C-38.112,-24.541,5.97,49.304,15.476,68.41C20.528,78.576,26.813,88.008,33.159,93.565C32.907,94.702,32.767,95.876,32.765,97.086C32.741,106.188,40.109,113.584,49.218,113.603C58.32,113.627,65.716,106.261,65.734,97.16C65.753,89.316,60.288,82.757,52.968,81.071Z" /></g><g id="i20" transform="matrix(1,0,0,1,692.858,414.532)"><path fill="#00aeef" d="M-48.111,-64.061C-37.806,-15.453,-6.656,22.794,14.077,66.219C21.525,81.202,34.369,90.775,49.38,93.087C48.024,88.728,46.135,85.38,46.135,85.38C46.135,85.38,-39.446,-60.574,-35.93,-79.654C-34.813,-85.726,-35.118,-90.024,-36.034,-93.087C-42.974,-84.395,-49.38,-75.675,-48.111,-64.061Z" /></g><g id="i21" transform="matrix(1,0,0,1,225.386,203.614)"><path fill="#008fef" d="M18.953,22.324C18.953,22.324,3.734,-22.324,3.734,-22.324C3.734,-22.324,-18.953,-19.198,-18.953,-19.198C-18.953,-19.198,-13.725,1.815,-13.725,1.815C-0.751,3.378,10.011,11.874,18.953,22.324Z" /></g><g id="i22" transform="matrix(1,0,0,1,603.917,192.843)"><path fill="#008fef" d="M24.302,44.39C23.438,43.513,22.858,43.058,22.858,43.058C22.858,43.058,-6.059,-53.736,-6.059,-53.736C-6.059,-53.736,-24.302,-43.362,-24.302,-43.362C-24.302,-43.362,2.417,43.441,1.768,53.736C6.877,46.595,15.355,41.573,24.302,44.39Z" /></g><g id="i23" transform="matrix(1,0,0,1,35.355,540.24)"><path fill="#4e82b0" d="M-13.135,11.115C-2.863,18.193,11.024,13.722,24.033,14.871C8.511,4.159,-0.624,7.704,-0.624,7.704C-0.624,7.704,20.916,-3.192,3.591,-18.193C3.591,-18.193,-13.805,-8.481,-24.033,1.877C-21.289,5.535,-17.794,8.7,-13.135,11.115Z" /></g><g id="i24" transform="matrix(1,0,0,1,42.674,569.478)"><path fill="#5a93b5" d="M16.713,-14.367C3.704,-15.515,-10.183,-11.045,-20.455,-18.123C-25.114,-20.538,-28.608,-23.703,-31.352,-27.361C-34.853,-23.816,-37.516,-20.198,-38.345,-16.865C-41.597,-3.807,7.778,-6.785,19.371,17.721C19.371,17.721,26.077,27.362,31.359,24.831C36.64,22.291,41.597,6.216,22.548,-9.887C20.515,-11.61,18.57,-13.08,16.713,-14.367Z" /></g><g id="i25" transform="matrix(1,0,0,1,48.862,523.956)"><path fill="#8bbfcb" d="M30.079,0.066C30.041,16.675,16.546,30.115,-0.066,30.078C-16.676,30.039,-30.115,16.545,-30.078,-0.067C-30.042,-16.681,-16.545,-30.115,0.067,-30.079C16.677,-30.041,30.115,-16.552,30.079,0.066Z" /></g><g id="i26" transform="matrix(1,0,0,1,48.862,523.953)"><path fill="#b3d5dd" d="M22.561,0.052C22.534,12.511,12.408,22.589,-0.051,22.563C-12.508,22.533,-22.586,12.412,-22.559,-0.049C-22.53,-12.508,-12.408,-22.588,0.051,-22.559C12.512,-22.531,22.586,-12.407,22.561,0.052Z" /></g><g id="i27" transform="matrix(1,0,0,1,48.863,523.952)"><path fill="#8bbfcb" d="M13.345,0.032C13.33,7.401,7.338,13.361,-0.029,13.348C-7.402,13.33,-13.363,7.344,-13.348,-0.026C-13.332,-7.397,-7.343,-13.361,0.026,-13.346C7.401,-13.329,13.363,-7.341,13.345,0.032Z" /></g><g id="i28" transform="matrix(1,0,0,1,83.93,587.71)"><path fill="#8bbfcb" d="M17.139,0.037C17.118,9.501,9.427,17.159,-0.038,17.138C-9.505,17.118,-17.16,9.424,-17.14,-0.039C-17.118,-9.503,-9.427,-17.159,0.037,-17.138C9.5,-17.121,17.16,-9.426,17.139,0.037Z" /></g><g id="i12" transform="matrix(1,0,0,1,83.929,587.711)"><path fill="#b3d5dd" d="M12.856,0.028C12.838,7.125,7.07,12.869,-0.031,12.855C-7.127,12.836,-12.867,7.07,-12.851,-0.031C-12.839,-7.129,-7.071,-12.869,0.027,-12.857C7.127,-12.836,12.868,-7.074,12.856,0.028Z" /></g><g id="i2" transform="matrix(1,0,0,1,83.93,587.71)"><path fill="#8bbfcb" d="M7.603,0.018C7.596,4.218,4.185,7.613,-0.019,7.604C-4.217,7.593,-7.613,4.184,-7.604,-0.019C-7.595,-4.214,-4.184,-7.613,0.014,-7.602C4.218,-7.593,7.613,-4.183,7.603,0.018Z" /></g><g id="i3" transform="matrix(1,0,0,1,196.373,548.522)"><path stroke-miterlimit="10" stroke-width="4.097" stroke="#003142" d="M177.517,0.147C177.599,-36.913,147.622,-67.021,110.563,-67.101C108.227,-67.104,105.913,-66.986,103.633,-66.759C103.633,-66.759,-145.132,-54.546,-145.132,-54.546C-145.132,-54.546,-145.147,-54.526,-145.147,-54.526C-145.909,-54.585,-146.67,-54.648,-147.443,-54.645C-164.055,-54.681,-177.552,-41.248,-177.588,-24.633C-177.599,-20.224,-176.637,-16.048,-174.94,-12.272C-174.94,-12.272,-174.951,-12.255,-174.951,-12.255C-174.951,-12.255,-124.906,51.351,-122.367,53.161C-119.576,55.148,-116.165,56.318,-112.48,56.326C-112.48,56.326,104.035,66.783,104.035,66.783C106.089,66.98,108.172,67.092,110.272,67.102C112.04,67.104,113.786,67.016,115.52,66.886C115.52,66.886,115.526,66.884,115.526,66.884C150.134,64.277,177.442,35.434,177.517,0.147Z" /></g><g id="i4" transform="matrix(1,0,0,1,596.813,124.369)"><path fill="#000922" d="M37.938,-16.313C37.93,-16.346,37.931,-16.38,37.924,-16.416C36.593,-30.3,-6.671,-29.529,-22.303,-20.884C-37.938,-12.242,-33.628,-0.953,-29.321,14.672C-25.02,30.3,-17.198,25.112,-17.198,25.112C-17.198,25.112,1.044,14.737,1.044,14.737C-0.381,10.978,3.76,7.986,5.919,6.725C6.045,5.813,6.27,4.964,6.276,4.339C14.423,-8.41,25.672,-13.387,37.938,-16.313Z" /></g><g id="i5" transform="matrix(1,0,0,1,702.771,108.144)"><path fill="#252d42" d="M83.565,-59.727C74.889,-57.145,15.706,24.285,7.88,31.209C0.059,38.134,-38.99,39.787,-57.203,36.274C-75.37,32.774,-66.741,13.789,-68.02,-0.088C-80.286,2.838,-91.534,7.815,-99.681,20.564C-99.687,21.189,-99.912,22.038,-100.037,22.95C-99.317,22.528,-98.819,22.302,-98.819,22.302C-95.388,40.528,-80.672,55.313,-68.162,58.809C-55.654,62.311,-19.073,58.918,-5.961,58.946C7.15,58.972,19.981,52.93,35.639,34.742C51.298,16.555,86.108,-32.827,93.073,-42.353C100.037,-51.885,92.249,-62.311,83.565,-59.727Z" /></g><g id="i6" transform="matrix(1,0,0,1,203.426,120.018)"><path fill="#252d42" d="M75.094,-10.496C63.651,-8.604,50.963,-6.58,39.329,-5.595C-0.51,-2.209,-4.85,-2.222,-26.527,-7.475C-48.207,-12.726,-75.094,-17.993,-69.926,1.108C-69.786,1.632,-69.617,2.14,-69.43,2.647C-20.452,16.224,32.1,17.993,75.094,-10.496Z" /></g><g id="i7" transform="matrix(1,0,0,1,230.364,142.753)"><path fill="#00090c" d="M48.157,-33.231C5.163,-4.742,-47.39,-6.511,-96.368,-20.088C-89.851,-2.187,-57.38,3.952,-39.683,15.808C-30.114,22.218,-25.833,32.937,-23.932,41.662C-16.343,40.671,-8.767,39.668,-1.244,38.536C-1.717,33.01,-1.355,26.822,1.603,22.838C8.039,14.176,48.873,-9.162,76.678,-28.191C96.368,-41.662,75.921,-37.822,48.157,-33.231Z" /></g><g id="i8" transform="matrix(1,0,0,1,345.22,388.259)"><path fill="#00aeef" fill-rule="evenodd" d="M291.066,-134.988C289.816,-143.218,285.338,-148.672,282.999,-151.027C274.052,-153.844,265.575,-148.822,260.465,-141.681C260.39,-140.494,260.194,-139.421,259.833,-138.526C256.346,-129.857,245.053,-124.676,245.053,-124.676C245.053,-124.676,-43.936,-99.178,-62.163,-96.617C-80.388,-94.053,-86.439,-103.61,-86.439,-103.61C-86.439,-103.61,-100.881,-162.321,-100.881,-162.321C-109.824,-172.771,-120.585,-181.268,-133.559,-182.83C-133.559,-182.83,-113.406,-71.565,-113.406,-71.565C-113.406,-71.565,-293.429,118.926,-293.429,118.926C-293.429,118.926,-294.013,119.205,-294.932,119.774C-295.297,119.746,-295.663,119.716,-296.031,119.716C-305.659,119.694,-313.478,127.479,-313.497,137.099C-313.518,146.728,-305.734,154.543,-296.109,154.568C-291.448,154.574,-287.216,152.744,-284.087,149.771C-256.04,153.669,-58.436,181.105,-47.152,181.932C-35.005,182.83,-28.043,172.429,-28.043,172.429C-28.043,172.429,270.969,-70.823,276.168,-70.812C278.758,-70.808,280.052,-67.585,280.699,-64.343C290.819,-61.891,298.012,-68.965,305.754,-73.932C305.178,-74.156,304.81,-74.222,304.81,-74.222C313.518,-88.953,292.773,-123.702,291.066,-134.988ZM-91.329,147.999C-104.345,148.838,-257.031,139.829,-257.031,139.829C-268.149,139.189,-274.789,137.694,-278.702,135.965C-278.936,132.442,-280.218,129.21,-282.239,126.571C-281.55,125.65,-280.257,123.937,-277.814,120.698C-272.595,113.764,-188.269,38.463,-167.391,15.083C-146.517,-8.299,-113.459,-46.406,-106.525,-43.784C-99.594,-41.171,-72.146,106.395,-71.318,122.88C-70.486,139.37,-78.31,147.163,-91.329,147.999ZM244.978,-89.968C244.978,-89.968,20.761,74.493,-1.842,94.401C-8.511,100.275,-13.658,104.405,-17.764,107.275C-29.579,117.895,-43.565,127.266,-48.741,114.256C-69.436,56.941,-84.918,-5.562,-89.988,-68.042C-89.981,-71.176,-85.574,-72.408,-80.181,-72.894C-80.344,-73.682,-80.426,-74.099,-80.426,-74.099C-80.426,-74.099,240.668,-102.123,240.668,-102.123C255.945,-103.67,244.978,-89.968,244.978,-89.968Z" /></g></g><g transform="matrix(0.51,0,0,0.51,423.97,203.65)" id="i29"><g id="i7" transform="matrix(1,0,0,1,54.795,154.86)"><path fill="#eb9f7b" d="M-19.719,-34.113C-27.861,-56.858,-30.158,-80.181,-23.429,-101.454C-16.937,-118.436,-2.092,-133.507,16.113,-141.168C-9.542,-153.595,-49.549,-141.137,-51.891,-99.259C-54.509,-52.448,-13.781,34.564,0.026,69.923C13.828,105.281,38.95,153.595,52.542,148.061C53.121,147.826,53.794,147.606,54.508,147.397C29.669,121.769,28.964,72.487,16.922,38.813C8.496,13.151,-11.013,-5.533,-19.719,-34.113Z" /></g><g id="i8" transform="matrix(1,0,0,1,205.561,163.694)"><path fill="#f3c6b1" d="M160.361,69.156C169.539,69.545,180.923,55.747,166.82,49.897C152.713,44.048,146.275,62.272,131.719,56.469C117.158,50.666,102.73,56.259,89.542,66.852C76.357,77.451,13.482,73.348,-28.628,74.387C-70.741,75.428,-89.016,86.478,-102.293,-20.576C-103.712,-32.007,-102.174,-124.225,-126.256,-144.605C-128.795,-146.751,-131.629,-148.541,-134.652,-150.003C-152.857,-142.343,-167.701,-127.269,-174.194,-110.287C-180.922,-89.014,-178.626,-65.691,-170.485,-42.947C-161.779,-14.366,-142.27,4.316,-133.844,29.978C-121.802,63.652,-121.096,112.935,-96.257,138.564C-80.445,133.942,-34.501,136.431,-7.368,130.501C20.982,124.299,66.339,101.734,83.151,114.806C99.958,127.879,109.637,150.003,137.884,138.777C137.884,138.777,159.376,138.957,150.214,126.733C150.214,126.733,167.186,125.482,159.71,113.754C159.71,113.754,174.507,115.552,165.377,102.903C165.377,102.903,176.173,101.851,171.077,92.984C165.981,84.118,166.234,75.816,141.838,75.122C141.838,75.122,151.192,68.762,160.361,69.156Z" /></g></g><g id="i30"><g transform="translate(366.258,571.316)"><g transform="rotate(0)"><animateTransform repeatCount="indefinite" type="rotate" attributeName="transform" dur="5.005s" begin="0s" calcMode="spline" values="0; 90; 180; 270; 360; 450; 540.016; 630.388; 720; 810; 900.082; 995.421; 1083.471; 1170; 1260.441; 1357.101; 1445.848; 1530; 1620.441; 1717.101; 1803.471; 1890; 1980.441; 2077.101; 2163.471; 2250; 2340.441; 2437.101; 2523.471; 2610; 2702.065; 2797.621; 2883.2; 2898.657; 2898.657" keyTimes="0; 0.06182; 0.115393; 0.173093; 0.226667; 0.26; 0.290393; 0.32724; 0.36; 0.38; 0.400433; 0.418327; 0.438753; 0.46; 0.48; 0.5; 0.52; 0.54; 0.56; 0.58; 0.6; 0.62; 0.64; 0.66; 0.68; 0.713333; 0.746667; 0.78; 0.813333; 0.853333; 0.9; 0.953333; 0.993333; 1; 1" keySplines="0.333 0 0.667 1; 0.333 0 0.667 1; 0.333 0 0.667 1; 0.333 0 0.667 1; 0.167 0 0.667 1; 0.333 0 0.667 1; 0.333 0 0.667 1; 0.333 0 0.667 1; 0.167 0 0.667 1; 0.333 0 0.667 1; 0.333 0 0.667 1; 0.333 0 0.667 1; 0.167 0 0.667 1; 0.333 0 0.667 1; 0.333 0 0.667 1; 0.333 0 0.667 1; 0.167 0 0.667 1; 0.333 0 0.667 1; 0.333 0 0.667 1; 0.333 0 0.667 1; 0.167 0 0.667 1; 0.333 0 0.667 1; 0.333 0 0.667 1; 0.333 0 0.667 1; 0.167 0 0.667 1; 0.333 0 0.667 1; 0.333 0 0.667 1; 0.333 0 0.667 1; 0.167 0 0.667 1; 0.333 0 0.667 1; 0.333 0 0.667 1; 0.333 0 0.667 1; 0.333 0 0.667 1; 0 0 1 1" fill="freeze" /><g transform="scale(0.51,0.51) translate(-47.84,-144.913)"><g id="i8" transform="matrix(1,0,0,1,31.003,84.947)"><path fill="#252d42" d="M6.354,74.499C18.037,84.166,30.856,75.139,27.853,62.467C24.855,49.8,2.966,-63.95,-4.072,-71.648C-11.103,-79.345,-30.855,-84.167,-24.629,-49.786C-18.402,-15.401,-1.229,68.223,6.354,74.499Z" /></g></g></g></g></g><g id="i31"><g transform="translate(321.793,321.357)"><g transform="rotate(0)"><animateTransform repeatCount="indefinite" type="rotate" attributeName="transform" dur="5.005s" begin="0s" calcMode="spline" values="0; 3.8; 69.8; 39.8; 0; 3.8; 69.8; 39.8; 0; 3.8; 69.8; 39.8; 0; 3.8; 69.8; 39.8; 0; 3.8; 69.8; 39.8; 0; 3.8; 69.8; 39.8; 0; 3.8; 69.8; 39.8; 0; 3.8; 69.8; 39.8; 0; 0" keyTimes="0; 0.06182; 0.115393; 0.173093; 0.226667; 0.257633; 0.290533; 0.325973; 0.358887; 0.38; 0.4; 0.42; 0.44; 0.46; 0.48; 0.5; 0.52; 0.54; 0.56; 0.58; 0.6; 0.62; 0.64; 0.66; 0.68; 0.713333; 0.746667; 0.78; 0.813333; 0.853333; 0.902227; 0.951107; 1; 1" keySplines="0.333 0 0.667 1; 0.333 0 0.667 1; 0.333 0 0.667 1; 0.333 0 0.667 1; 0.167 0 0.667 1; 0.333 0 0.667 1; 0.333 0 0.667 1; 0.333 0 0.667 1; 0.167 0 0.667 1; 0.333 0 0.667 1; 0.333 0 0.667 1; 0.333 0 0.667 1; 0.167 0 0.667 1; 0.333 0 0.667 1; 0.333 0 0.667 1; 0.333 0 0.667 1; 0.167 0 0.667 1; 0.333 0 0.667 1; 0.333 0 0.667 1; 0.333 0 0.667 1; 0.167 0 0.667 1; 0.333 0 0.667 1; 0.333 0 0.667 1; 0.333 0 0.667 1; 0.167 0 0.667 1; 0.333 0 0.667 1; 0.333 0 0.667 1; 0.333 0 0.667 1; 0.167 0 0.667 1; 0.333 0 0.667 1; 0.333 0 0.667 1; 0.333 0 0.667 1; 0 0 1 1" fill="freeze" /><g transform="scale(0.51,0.51) translate(-96.653,-91.798)"><g id="i32"><g transform="translate(332.784,170.834)"><g transform="rotate(0)"><animateTransform repeatCount="indefinite" type="rotate" attributeName="transform" dur="5.005s" begin="0s" calcMode="spline" values="0; -28.1; -117.1; -38.1; 0; -28.1; -117.1; -38.1; 0; -28.1; -117.1; -38.1; 0; -28.1; -117.1; -38.1; 0; -28.1; -117.1; -38.1; 0; -28.1; -117.1; -38.1; 0; -28.1; -117.1; -38.1; 0; -28.1; -117.1; -38.1; 0; 0" keyTimes="0; 0.06182; 0.115393; 0.173093; 0.226667; 0.257633; 0.290533; 0.325973; 0.358887; 0.38; 0.4; 0.42; 0.44; 0.46; 0.48; 0.5; 0.52; 0.54; 0.56; 0.58; 0.6; 0.62; 0.64; 0.66; 0.68; 0.713333; 0.746667; 0.78; 0.813333; 0.853333; 0.902227; 0.951107; 1; 1" keySplines="0.333 0 0.667 1; 0.333 0 0.667 1; 0.333 0 0.667 1; 0.333 0 0.667 1; 0.167 0 0.667 1; 0.333 0 0.667 1; 0.333 0 0.667 1; 0.333 0 0.667 1; 0.167 0 0.667 1; 0.333 0 0.667 1; 0.333 0 0.667 1; 0.333 0 0.667 1; 0.167 0 0.667 1; 0.333 0 0.667 1; 0.333 0 0.667 1; 0.333 0 0.667 1; 0.167 0 0.667 1; 0.333 0 0.667 1; 0.333 0 0.667 1; 0.333 0 0.667 1; 0.167 0 0.667 1; 0.333 0 0.667 1; 0.333 0 0.667 1; 0.333 0 0.667 1; 0.167 0 0.667 1; 0.333 0 0.667 1; 0.333 0 0.667 1; 0.333 0 0.667 1; 0.167 0 0.667 1; 0.333 0 0.667 1; 0.333 0 0.667 1; 0.333 0 0.667 1; 0 0 1 1" fill="freeze" /><g transform="scale(1,1) translate(-246.784,-90.834)"><g id="i28" transform="matrix(1,0,0,1,77.837,398.019)"><path fill="#000922" d="M58.333,34.473C60.348,31.038,37.03,11.429,10.302,-5.005C-16.43,-21.439,-39.827,-49.463,-50.091,-39.529C-60.348,-29.597,-30.189,-8.248,-16.865,0.475C-3.545,9.202,49.542,49.462,58.333,34.473Z" /></g><g id="i12" transform="matrix(1,0,0,1,86.716,400.047)"><path fill="#b3d5dd" d="M32.324,18.505C-3.383,-17.745,-40.68,-45.312,-86.245,-53.926C-86.193,-52.101,-85.655,-50.415,-84.5,-48.922C-74.125,-35.502,-53.481,-43.316,-25.789,-15.236C1.911,12.844,66.261,53.925,83.664,34.6C84.798,33.348,85.639,32.086,86.245,30.826C66.225,34.328,45.988,31.125,32.324,18.505Z" /></g><g id="i2" transform="matrix(1,0,0,1,68.159,371.872)"><path fill="#252d42" d="M-45.455,-56.78C-57.668,-45.436,-67.942,-34.066,-67.688,-25.75C-22.123,-17.136,15.174,10.431,50.881,46.681C55.808,51.24,61.609,54.548,67.941,56.78C62.172,44.887,58.089,32.136,50.335,21.699C26.435,-14.126,-6.726,-41.455,-45.455,-56.78Z" /></g><g id="i3" transform="matrix(1,0,0,1,85.143,300.681)"><path fill="#252d42" d="M-24.485,-22.68C-25.972,-20.634,-27.423,-18.717,-28.829,-16.964C-15.301,3.518,4.495,19.447,28.814,22.68C28.709,20.645,28.724,18.63,28.829,16.635C7.978,7.57,-9.783,-5.333,-24.485,-22.68Z" /></g><g id="i5" transform="matrix(1,0,0,1,105.399,273.255)"><path fill="#f3c6b1" d="M-13.903,-29.24C-35.139,-4.132,-27.712,-14.491,-46.371,14.739C-33.218,31.736,-18.081,47.235,-1.118,59.564C-0.122,55.029,1.58,50.627,4.173,46.432C18.195,23.775,21.567,8.702,46.371,-12.179C46.371,-12.179,11.75,-59.564,-13.903,-29.24Z" /></g><g id="i6" transform="matrix(1,0,0,1,198.258,147.621)"><path fill="#000922" d="M89.696,-32.604C70.122,-7.466,61.034,10.237,35.899,35.87C-23.908,96.866,-52.047,121.332,-62.446,141.339C-63.368,143.103,-64.169,144.815,-64.873,146.488C-85.547,145.911,-118.45,119.556,-123.012,100.978C-119.943,96.394,-117.139,92.35,-114.57,88.713C-98.89,66.565,-91.575,59.536,-82.985,38.833C-61.255,-13.6,-1.742,-57.226,10.279,-73.141C65.681,-146.489,123.012,-75.39,89.696,-32.604Z" /></g><g id="i7" transform="matrix(1,0,0,1,107.999,265.109)"><path fill="#021a4f" d="M33.072,25.924C32.064,27.851,31.19,29.72,30.422,31.547C7.843,30.916,-28.09,2.135,-33.072,-18.154C-29.72,-23.16,-26.657,-27.576,-23.852,-31.548C-0.172,-22.23,8.823,11.385,33.072,25.924Z" /></g><g id="i8" transform="matrix(1,0,0,1,102.204,358.415)"><path fill="#000922" d="M26.618,12.951C19.698,-2.073,12.597,-18.97,11.753,-35.054C-12.566,-38.287,-32.362,-54.215,-45.89,-74.697C-48.244,-71.773,-50.476,-69.271,-52.569,-67.326C-60.264,-60.184,-70.415,-51.76,-79.5,-43.322C-40.772,-27.997,-7.61,-0.668,16.291,35.156C24.045,45.594,28.128,58.345,33.897,70.237C45.094,74.18,57.961,74.698,70.757,72.459C79.5,54.293,36.931,35.343,26.618,12.951Z" /></g></g></g></g></g></g></g></g></g><g id="i31"><g transform="translate(321.793,321.357)"><g transform="rotate(0)"><animateTransform repeatCount="indefinite" type="rotate" attributeName="transform" dur="5.005s" begin="0s" calcMode="spline" values="0; 3.8; 69.8; 39.8; 0; 3.8; 69.8; 39.8; 0; 3.8; 69.8; 39.8; 0; 3.8; 69.8; 39.8; 0; 3.8; 69.8; 39.8; 0; 3.8; 69.8; 39.8; 0; 3.8; 69.8; 39.8; 0; 3.8; 69.8; 39.8; 0; 0" keyTimes="0; 0.06182; 0.115393; 0.173093; 0.226667; 0.257633; 0.290533; 0.325973; 0.358887; 0.38; 0.4; 0.42; 0.44; 0.46; 0.48; 0.5; 0.52; 0.54; 0.56; 0.58; 0.6; 0.62; 0.64; 0.66; 0.68; 0.713333; 0.746667; 0.78; 0.813333; 0.853333; 0.902227; 0.951107; 1; 1" keySplines="0.333 0 0.667 1; 0.333 0 0.667 1; 0.333 0 0.667 1; 0.333 0 0.667 1; 0.167 0 0.667 1; 0.333 0 0.667 1; 0.333 0 0.667 1; 0.333 0 0.667 1; 0.167 0 0.667 1; 0.333 0 0.667 1; 0.333 0 0.667 1; 0.333 0 0.667 1; 0.167 0 0.667 1; 0.333 0 0.667 1; 0.333 0 0.667 1; 0.333 0 0.667 1; 0.167 0 0.667 1; 0.333 0 0.667 1; 0.333 0 0.667 1; 0.333 0 0.667 1; 0.167 0 0.667 1; 0.333 0 0.667 1; 0.333 0 0.667 1; 0.333 0 0.667 1; 0.167 0 0.667 1; 0.333 0 0.667 1; 0.333 0 0.667 1; 0.333 0 0.667 1; 0.167 0 0.667 1; 0.333 0 0.667 1; 0.333 0 0.667 1; 0.333 0 0.667 1; 0 0 1 1" fill="freeze" /><g transform="scale(0.51,0.51) translate(-96.653,-91.798)"><g id="i8" transform="matrix(1,0,0,1,201.207,109.802)"><path fill="#000922" d="M153.157,9.298C111.036,-27.62,-183.854,-109,-195.849,-55.273C-200.465,-34.597,-193.058,15.737,-184.779,25.411C-155.72,59.362,-86.988,73.353,-13.952,81.948C-4.374,83.076,84.248,109.001,113.355,105.685C179.525,98.148,200.465,50.761,153.157,9.298Z" /></g></g></g></g></g><g transform="matrix(0.51,0,0,0.51,198.04,189.88)" id="i33"><g id="i8" transform="matrix(1,0,0,1,278.52,125.789)"><path d="M266.722,-22.293C266.722,-22.293,270.839,-9.292,270.281,2.054C269.696,14.099,277.845,46.421,266.033,66.92C255.408,85.384,211.552,75.601,194.144,82.517C182.197,87.264,186.969,-3.241,118.388,78.509C101.295,98.883,89.857,118.561,89.857,118.561C65.229,109.55,19.767,106.472,4.167,104.503C1.747,104.198,-15.126,103.901,-35.713,103.321C-60.281,102.629,-90.137,101.536,-107.026,99.544C-165.483,92.651,-217.811,85.949,-176.089,58.927C-74.322,-6.978,20.634,-124.831,216.513,-97.741C259.077,-91.854,266.722,-22.293,266.722,-22.293Z" fill="#00aeef"><animate repeatCount="indefinite" attributeName="d" dur="5.005s" begin="0s" calcMode="spline" values="M266.722,-22.293C266.722,-22.293,270.839,-9.292,270.281,2.054C269.696,14.099,277.845,46.421,266.033,66.92C255.408,85.384,211.552,75.601,194.144,82.517C182.197,87.264,186.969,-3.241,118.388,78.509C101.295,98.883,89.857,118.561,89.857,118.561C65.229,109.55,19.767,106.472,4.167,104.503C1.747,104.198,-15.126,103.901,-35.713,103.321C-60.281,102.629,-90.137,101.536,-107.026,99.544C-165.483,92.651,-217.811,85.949,-176.089,58.927C-74.322,-6.978,20.634,-124.831,216.513,-97.741C259.077,-91.854,266.722,-22.293,266.722,-22.293Z; M266.722,-22.293C266.722,-22.293,270.839,-9.292,270.281,2.054C269.696,14.099,277.845,46.421,266.033,66.92C255.408,85.384,211.552,75.601,194.144,82.517C182.197,87.264,186.969,-3.241,118.388,78.509C101.295,98.883,89.857,118.561,89.857,118.561C65.229,109.55,17.687,112.531,4.167,104.503C-9.878,96.163,-29.27,92.373,-48.476,91.64C-71.396,90.765,-94.048,94.246,-107.026,99.544C-192.969,134.633,-217.811,85.949,-176.089,58.927C-74.322,-6.978,20.634,-124.831,216.513,-97.741C259.077,-91.854,266.722,-22.293,266.722,-22.293Z; M266.722,-22.293C266.722,-22.293,270.839,-9.292,270.281,2.054C269.696,14.099,277.845,46.421,266.033,66.92C255.408,85.384,211.552,75.601,194.144,82.517C182.197,87.264,186.969,-3.241,118.388,78.509C101.295,98.883,89.857,118.561,89.857,118.561C65.229,109.55,19.767,106.472,4.167,104.503C1.747,104.198,-15.126,103.901,-35.713,103.321C-60.281,102.629,-90.137,101.536,-107.026,99.544C-165.483,92.651,-217.811,85.949,-176.089,58.927C-74.322,-6.978,20.634,-124.831,216.513,-97.741C259.077,-91.854,266.722,-22.293,266.722,-22.293Z; M266.722,-22.293C266.722,-22.293,270.839,-9.292,270.281,2.054C269.696,14.099,277.845,46.421,266.033,66.92C255.408,85.384,211.552,75.601,194.144,82.517C182.197,87.264,186.969,-3.241,118.388,78.509C101.295,98.883,89.857,118.561,89.857,118.561C65.229,109.55,18.122,97.256,4.167,104.503C-10.952,112.354,-28.965,98.753,-46.566,102.997C-78.599,110.72,-102.955,89.356,-117.483,90.393C-177.945,94.707,-217.811,85.949,-176.089,58.927C-74.322,-6.978,20.634,-124.831,216.513,-97.741C259.077,-91.854,266.722,-22.293,266.722,-22.293Z; M266.722,-22.293C266.722,-22.293,270.839,-9.292,270.281,2.054C269.696,14.099,277.845,46.421,266.033,66.92C255.408,85.384,211.552,75.601,194.144,82.517C182.197,87.264,186.969,-3.241,118.388,78.509C101.295,98.883,89.857,118.561,89.857,118.561C65.229,109.55,17.687,112.531,4.167,104.503C-9.878,96.163,-29.27,92.373,-48.476,91.64C-71.396,90.765,-94.048,94.246,-107.026,99.544C-192.969,134.633,-217.811,85.949,-176.089,58.927C-74.322,-6.978,20.634,-124.831,216.513,-97.741C259.077,-91.854,266.722,-22.293,266.722,-22.293Z; M266.722,-22.293C266.722,-22.293,270.839,-9.292,270.281,2.054C269.696,14.099,277.845,46.421,266.033,66.92C255.408,85.384,211.552,75.601,194.144,82.517C182.197,87.264,186.969,-3.241,118.388,78.509C101.295,98.883,89.857,118.561,89.857,118.561C65.229,109.55,19.767,106.472,4.167,104.503C1.747,104.198,-15.126,103.901,-35.713,103.321C-60.281,102.629,-90.137,101.536,-107.026,99.544C-165.483,92.651,-217.811,85.949,-176.089,58.927C-74.322,-6.978,20.634,-124.831,216.513,-97.741C259.077,-91.854,266.722,-22.293,266.722,-22.293Z; M266.722,-22.293C266.722,-22.293,270.839,-9.292,270.281,2.054C269.696,14.099,277.845,46.421,266.033,66.92C255.408,85.384,211.552,75.601,194.144,82.517C182.197,87.264,186.969,-3.241,118.388,78.509C101.295,98.883,89.857,118.561,89.857,118.561C65.229,109.55,18.122,97.256,4.167,104.503C-10.952,112.354,-28.965,98.753,-46.566,102.997C-78.599,110.72,-102.955,89.356,-117.483,90.393C-177.945,94.707,-217.811,85.949,-176.089,58.927C-74.322,-6.978,20.634,-124.831,216.513,-97.741C259.077,-91.854,266.722,-22.293,266.722,-22.293Z; M266.722,-22.293C266.722,-22.293,270.839,-9.292,270.281,2.054C269.696,14.099,277.845,46.421,266.033,66.92C255.408,85.384,211.552,75.601,194.144,82.517C182.197,87.264,186.969,-3.241,118.388,78.509C101.295,98.883,89.857,118.561,89.857,118.561C65.229,109.55,17.687,112.531,4.167,104.503C-9.878,96.163,-29.27,92.373,-48.476,91.64C-71.396,90.765,-94.048,94.246,-107.026,99.544C-192.969,134.633,-217.811,85.949,-176.089,58.927C-74.322,-6.978,20.634,-124.831,216.513,-97.741C259.077,-91.854,266.722,-22.293,266.722,-22.293Z; M266.722,-22.293C266.722,-22.293,270.839,-9.292,270.281,2.054C269.696,14.099,277.845,46.421,266.033,66.92C255.408,85.384,211.552,75.601,194.144,82.517C182.197,87.264,186.969,-3.241,118.388,78.509C101.295,98.883,89.857,118.561,89.857,118.561C65.229,109.55,19.767,106.472,4.167,104.503C1.747,104.198,-15.126,103.901,-35.713,103.321C-60.281,102.629,-90.137,101.536,-107.026,99.544C-165.483,92.651,-217.811,85.949,-176.089,58.927C-74.322,-6.978,20.634,-124.831,216.513,-97.741C259.077,-91.854,266.722,-22.293,266.722,-22.293Z; M266.722,-22.293C266.722,-22.293,270.839,-9.292,270.281,2.054C269.696,14.099,277.845,46.421,266.033,66.92C255.408,85.384,211.552,75.601,194.144,82.517C182.197,87.264,186.969,-3.241,118.388,78.509C101.295,98.883,89.857,118.561,89.857,118.561C65.229,109.55,18.122,97.256,4.167,104.503C-10.952,112.354,-28.965,98.753,-46.566,102.997C-78.599,110.72,-102.955,89.356,-117.483,90.393C-177.945,94.707,-217.811,85.949,-176.089,58.927C-74.322,-6.978,20.634,-124.831,216.513,-97.741C259.077,-91.854,266.722,-22.293,266.722,-22.293Z; M266.722,-22.293C266.722,-22.293,270.839,-9.292,270.281,2.054C269.696,14.099,277.845,46.421,266.033,66.92C255.408,85.384,211.552,75.601,194.144,82.517C182.197,87.264,186.969,-3.241,118.388,78.509C101.295,98.883,89.857,118.561,89.857,118.561C65.229,109.55,17.687,112.531,4.167,104.503C-9.878,96.163,-29.27,92.373,-48.476,91.64C-71.396,90.765,-94.048,94.246,-107.026,99.544C-192.969,134.633,-217.811,85.949,-176.089,58.927C-74.322,-6.978,20.634,-124.831,216.513,-97.741C259.077,-91.854,266.722,-22.293,266.722,-22.293Z; M266.722,-22.293C266.722,-22.293,270.839,-9.292,270.281,2.054C269.696,14.099,277.845,46.421,266.033,66.92C255.408,85.384,211.552,75.601,194.144,82.517C182.197,87.264,186.969,-3.241,118.388,78.509C101.295,98.883,89.857,118.561,89.857,118.561C65.229,109.55,19.767,106.472,4.167,104.503C1.747,104.198,-15.126,103.901,-35.713,103.321C-60.281,102.629,-90.137,101.536,-107.026,99.544C-165.483,92.651,-217.811,85.949,-176.089,58.927C-74.322,-6.978,20.634,-124.831,216.513,-97.741C259.077,-91.854,266.722,-22.293,266.722,-22.293Z; M266.722,-22.293C266.722,-22.293,270.839,-9.292,270.281,2.054C269.696,14.099,277.845,46.421,266.033,66.92C255.408,85.384,211.552,75.601,194.144,82.517C182.197,87.264,186.969,-3.241,118.388,78.509C101.295,98.883,89.857,118.561,89.857,118.561C65.229,109.55,18.122,97.256,4.167,104.503C-10.952,112.354,-28.965,98.753,-46.566,102.997C-78.599,110.72,-102.955,89.356,-117.483,90.393C-177.945,94.707,-217.811,85.949,-176.089,58.927C-74.322,-6.978,20.634,-124.831,216.513,-97.741C259.077,-91.854,266.722,-22.293,266.722,-22.293Z; M266.722,-22.293C266.722,-22.293,270.839,-9.292,270.281,2.054C269.696,14.099,277.845,46.421,266.033,66.92C255.408,85.384,211.552,75.601,194.144,82.517C182.197,87.264,186.969,-3.241,118.388,78.509C101.295,98.883,89.857,118.561,89.857,118.561C65.229,109.55,17.687,112.531,4.167,104.503C-9.878,96.163,-29.27,92.373,-48.476,91.64C-71.396,90.765,-94.048,94.246,-107.026,99.544C-192.969,134.633,-217.811,85.949,-176.089,58.927C-74.322,-6.978,20.634,-124.831,216.513,-97.741C259.077,-91.854,266.722,-22.293,266.722,-22.293Z; M266.722,-22.293C266.722,-22.293,270.839,-9.292,270.281,2.054C269.696,14.099,277.845,46.421,266.033,66.92C255.408,85.384,211.552,75.601,194.144,82.517C182.197,87.264,186.969,-3.241,118.388,78.509C101.295,98.883,89.857,118.561,89.857,118.561C65.229,109.55,19.767,106.472,4.167,104.503C1.747,104.198,-15.126,103.901,-35.713,103.321C-60.281,102.629,-90.137,101.536,-107.026,99.544C-165.483,92.651,-217.811,85.949,-176.089,58.927C-74.322,-6.978,20.634,-124.831,216.513,-97.741C259.077,-91.854,266.722,-22.293,266.722,-22.293Z; M266.722,-22.293C266.722,-22.293,270.839,-9.292,270.281,2.054C269.696,14.099,277.845,46.421,266.033,66.92C255.408,85.384,211.552,75.601,194.144,82.517C182.197,87.264,186.969,-3.241,118.388,78.509C101.295,98.883,89.857,118.561,89.857,118.561C65.229,109.55,18.122,97.256,4.167,104.503C-10.952,112.354,-28.965,98.753,-46.566,102.997C-78.599,110.72,-102.955,89.356,-117.483,90.393C-177.945,94.707,-217.811,85.949,-176.089,58.927C-74.322,-6.978,20.634,-124.831,216.513,-97.741C259.077,-91.854,266.722,-22.293,266.722,-22.293Z; M266.722,-22.293C266.722,-22.293,270.839,-9.292,270.281,2.054C269.696,14.099,277.845,46.421,266.033,66.92C255.408,85.384,211.552,75.601,194.144,82.517C182.197,87.264,186.969,-3.241,118.388,78.509C101.295,98.883,89.857,118.561,89.857,118.561C65.229,109.55,17.687,112.531,4.167,104.503C-9.878,96.163,-29.27,92.373,-48.476,91.64C-71.396,90.765,-94.048,94.246,-107.026,99.544C-192.969,134.633,-217.811,85.949,-176.089,58.927C-74.322,-6.978,20.634,-124.831,216.513,-97.741C259.077,-91.854,266.722,-22.293,266.722,-22.293Z; M266.722,-22.293C266.722,-22.293,270.839,-9.292,270.281,2.054C269.696,14.099,277.845,46.421,266.033,66.92C255.408,85.384,211.552,75.601,194.144,82.517C182.197,87.264,186.969,-3.241,118.388,78.509C101.295,98.883,89.857,118.561,89.857,118.561C65.229,109.55,19.767,106.472,4.167,104.503C1.747,104.198,-15.126,103.901,-35.713,103.321C-60.281,102.629,-90.137,101.536,-107.026,99.544C-165.483,92.651,-217.811,85.949,-176.089,58.927C-74.322,-6.978,20.634,-124.831,216.513,-97.741C259.077,-91.854,266.722,-22.293,266.722,-22.293Z; M266.722,-22.293C266.722,-22.293,270.839,-9.292,270.281,2.054C269.696,14.099,277.845,46.421,266.033,66.92C255.408,85.384,211.552,75.601,194.144,82.517C182.197,87.264,186.969,-3.241,118.388,78.509C101.295,98.883,89.857,118.561,89.857,118.561C65.229,109.55,18.122,97.256,4.167,104.503C-10.952,112.354,-28.965,98.753,-46.566,102.997C-78.599,110.72,-102.955,89.356,-117.483,90.393C-177.945,94.707,-217.811,85.949,-176.089,58.927C-74.322,-6.978,20.634,-124.831,216.513,-97.741C259.077,-91.854,266.722,-22.293,266.722,-22.293Z; M266.722,-22.293C266.722,-22.293,270.839,-9.292,270.281,2.054C269.696,14.099,277.845,46.421,266.033,66.92C255.408,85.384,211.552,75.601,194.144,82.517C182.197,87.264,186.969,-3.241,118.388,78.509C101.295,98.883,89.857,118.561,89.857,118.561C65.229,109.55,17.687,112.531,4.167,104.503C-9.878,96.163,-29.27,92.373,-48.476,91.64C-71.396,90.765,-94.048,94.246,-107.026,99.544C-192.969,134.633,-217.811,85.949,-176.089,58.927C-74.322,-6.978,20.634,-124.831,216.513,-97.741C259.077,-91.854,266.722,-22.293,266.722,-22.293Z; M266.722,-22.293C266.722,-22.293,270.839,-9.292,270.281,2.054C269.696,14.099,277.845,46.421,266.033,66.92C255.408,85.384,211.552,75.601,194.144,82.517C182.197,87.264,186.969,-3.241,118.388,78.509C101.295,98.883,89.857,118.561,89.857,118.561C65.229,109.55,19.767,106.472,4.167,104.503C1.747,104.198,-15.126,103.901,-35.713,103.321C-60.281,102.629,-90.137,101.536,-107.026,99.544C-165.483,92.651,-217.811,85.949,-176.089,58.927C-74.322,-6.978,20.634,-124.831,216.513,-97.741C259.077,-91.854,266.722,-22.293,266.722,-22.293Z; M266.722,-22.293C266.722,-22.293,270.839,-9.292,270.281,2.054C269.696,14.099,277.845,46.421,266.033,66.92C255.408,85.384,211.552,75.601,194.144,82.517C182.197,87.264,186.969,-3.241,118.388,78.509C101.295,98.883,89.857,118.561,89.857,118.561C65.229,109.55,18.122,97.256,4.167,104.503C-10.952,112.354,-28.965,98.753,-46.566,102.997C-78.599,110.72,-102.955,89.356,-117.483,90.393C-177.945,94.707,-217.811,85.949,-176.089,58.927C-74.322,-6.978,20.634,-124.831,216.513,-97.741C259.077,-91.854,266.722,-22.293,266.722,-22.293Z; M266.722,-22.293C266.722,-22.293,270.839,-9.292,270.281,2.054C269.696,14.099,277.845,46.421,266.033,66.92C255.408,85.384,211.552,75.601,194.144,82.517C182.197,87.264,186.969,-3.241,118.388,78.509C101.295,98.883,89.857,118.561,89.857,118.561C65.229,109.55,17.687,112.531,4.167,104.503C-9.878,96.163,-29.27,92.373,-48.476,91.64C-71.396,90.765,-94.048,94.246,-107.026,99.544C-192.969,134.633,-217.811,85.949,-176.089,58.927C-74.322,-6.978,20.634,-124.831,216.513,-97.741C259.077,-91.854,266.722,-22.293,266.722,-22.293Z; M266.722,-22.293C266.722,-22.293,270.839,-9.292,270.281,2.054C269.696,14.099,277.845,46.421,266.033,66.92C255.408,85.384,211.552,75.601,194.144,82.517C182.197,87.264,186.969,-3.241,118.388,78.509C101.295,98.883,89.857,118.561,89.857,118.561C65.229,109.55,19.767,106.472,4.167,104.503C1.747,104.198,-15.126,103.901,-35.713,103.321C-60.281,102.629,-90.137,101.536,-107.026,99.544C-165.483,92.651,-217.811,85.949,-176.089,58.927C-74.322,-6.978,20.634,-124.831,216.513,-97.741C259.077,-91.854,266.722,-22.293,266.722,-22.293Z; M266.722,-22.293C266.722,-22.293,270.839,-9.292,270.281,2.054C269.696,14.099,277.845,46.421,266.033,66.92C255.408,85.384,211.552,75.601,194.144,82.517C182.197,87.264,186.969,-3.241,118.388,78.509C101.295,98.883,89.857,118.561,89.857,118.561C65.229,109.55,18.122,97.256,4.167,104.503C-10.952,112.354,-28.965,98.753,-46.566,102.997C-78.599,110.72,-102.955,89.356,-117.483,90.393C-177.945,94.707,-217.811,85.949,-176.089,58.927C-74.322,-6.978,20.634,-124.831,216.513,-97.741C259.077,-91.854,266.722,-22.293,266.722,-22.293Z; M266.722,-22.293C266.722,-22.293,270.839,-9.292,270.281,2.054C269.696,14.099,277.845,46.421,266.033,66.92C255.408,85.384,211.552,75.601,194.144,82.517C182.197,87.264,186.969,-3.241,118.388,78.509C101.295,98.883,89.857,118.561,89.857,118.561C65.229,109.55,17.687,112.531,4.167,104.503C-9.878,96.163,-29.27,92.373,-48.476,91.64C-71.396,90.765,-94.048,94.246,-107.026,99.544C-192.969,134.633,-217.811,85.949,-176.089,58.927C-74.322,-6.978,20.634,-124.831,216.513,-97.741C259.077,-91.854,266.722,-22.293,266.722,-22.293Z; M266.722,-22.293C266.722,-22.293,270.839,-9.292,270.281,2.054C269.696,14.099,277.845,46.421,266.033,66.92C255.408,85.384,211.552,75.601,194.144,82.517C182.197,87.264,186.969,-3.241,118.388,78.509C101.295,98.883,89.857,118.561,89.857,118.561C65.229,109.55,19.767,106.472,4.167,104.503C1.747,104.198,-15.126,103.901,-35.713,103.321C-60.281,102.629,-90.137,101.536,-107.026,99.544C-165.483,92.651,-217.811,85.949,-176.089,58.927C-74.322,-6.978,20.634,-124.831,216.513,-97.741C259.077,-91.854,266.722,-22.293,266.722,-22.293Z; M266.722,-22.293C266.722,-22.293,270.839,-9.292,270.281,2.054C269.696,14.099,277.845,46.421,266.033,66.92C255.408,85.384,211.552,75.601,194.144,82.517C182.197,87.264,186.969,-3.241,118.388,78.509C101.295,98.883,89.857,118.561,89.857,118.561C65.229,109.55,18.122,97.256,4.167,104.503C-10.952,112.354,-28.965,98.753,-46.566,102.997C-78.599,110.72,-102.955,89.356,-117.483,90.393C-177.945,94.707,-217.811,85.949,-176.089,58.927C-74.322,-6.978,20.634,-124.831,216.513,-97.741C259.077,-91.854,266.722,-22.293,266.722,-22.293Z; M266.722,-22.293C266.722,-22.293,270.839,-9.292,270.281,2.054C269.696,14.099,277.845,46.421,266.033,66.92C255.408,85.384,211.552,75.601,194.144,82.517C182.197,87.264,186.969,-3.241,118.388,78.509C101.295,98.883,89.857,118.561,89.857,118.561C65.229,109.55,17.687,112.531,4.167,104.503C-9.878,96.163,-29.27,92.373,-48.476,91.64C-71.396,90.765,-94.048,94.246,-107.026,99.544C-192.969,134.633,-217.811,85.949,-176.089,58.927C-74.322,-6.978,20.634,-124.831,216.513,-97.741C259.077,-91.854,266.722,-22.293,266.722,-22.293Z; M266.722,-22.293C266.722,-22.293,270.839,-9.292,270.281,2.054C269.696,14.099,277.845,46.421,266.033,66.92C255.408,85.384,211.552,75.601,194.144,82.517C182.197,87.264,186.969,-3.241,118.388,78.509C101.295,98.883,89.857,118.561,89.857,118.561C65.229,109.55,19.767,106.472,4.167,104.503C1.747,104.198,-15.126,103.901,-35.713,103.321C-60.281,102.629,-90.137,101.536,-107.026,99.544C-165.483,92.651,-217.811,85.949,-176.089,58.927C-74.322,-6.978,20.634,-124.831,216.513,-97.741C259.077,-91.854,266.722,-22.293,266.722,-22.293Z; M266.722,-22.293C266.722,-22.293,270.839,-9.292,270.281,2.054C269.696,14.099,277.845,46.421,266.033,66.92C255.408,85.384,211.552,75.601,194.144,82.517C182.197,87.264,186.969,-3.241,118.388,78.509C101.295,98.883,89.857,118.561,89.857,118.561C65.229,109.55,18.122,97.256,4.167,104.503C-10.952,112.354,-28.965,98.753,-46.566,102.997C-78.599,110.72,-102.955,89.356,-117.483,90.393C-177.945,94.707,-217.811,85.949,-176.089,58.927C-74.322,-6.978,20.634,-124.831,216.513,-97.741C259.077,-91.854,266.722,-22.293,266.722,-22.293Z; M266.722,-22.293C266.722,-22.293,270.839,-9.292,270.281,2.054C269.696,14.099,277.845,46.421,266.033,66.92C255.408,85.384,211.552,75.601,194.144,82.517C182.197,87.264,186.969,-3.241,118.388,78.509C101.295,98.883,89.857,118.561,89.857,118.561C65.229,109.55,17.687,112.531,4.167,104.503C-9.878,96.163,-29.27,92.373,-48.476,91.64C-71.396,90.765,-94.048,94.246,-107.026,99.544C-192.969,134.633,-217.811,85.949,-176.089,58.927C-74.322,-6.978,20.634,-124.831,216.513,-97.741C259.077,-91.854,266.722,-22.293,266.722,-22.293Z; M266.722,-22.293C266.722,-22.293,270.839,-9.292,270.281,2.054C269.696,14.099,277.845,46.421,266.033,66.92C255.408,85.384,211.552,75.601,194.144,82.517C182.197,87.264,186.969,-3.241,118.388,78.509C101.295,98.883,89.857,118.561,89.857,118.561C65.229,109.55,19.767,106.472,4.167,104.503C1.747,104.198,-15.126,103.901,-35.713,103.321C-60.281,102.629,-90.137,101.536,-107.026,99.544C-165.483,92.651,-217.811,85.949,-176.089,58.927C-74.322,-6.978,20.634,-124.831,216.513,-97.741C259.077,-91.854,266.722,-22.293,266.722,-22.293Z; M266.722,-22.293C266.722,-22.293,270.839,-9.292,270.281,2.054C269.696,14.099,277.845,46.421,266.033,66.92C255.408,85.384,211.552,75.601,194.144,82.517C182.197,87.264,186.969,-3.241,118.388,78.509C101.295,98.883,89.857,118.561,89.857,118.561C65.229,109.55,18.122,97.256,4.167,104.503C-10.952,112.354,-28.965,98.753,-46.566,102.997C-78.599,110.72,-102.955,89.356,-117.483,90.393C-177.945,94.707,-217.811,85.949,-176.089,58.927C-74.322,-6.978,20.634,-124.831,216.513,-97.741C259.077,-91.854,266.722,-22.293,266.722,-22.293Z; M266.722,-22.293C266.722,-22.293,270.839,-9.292,270.281,2.054C269.696,14.099,277.845,46.421,266.033,66.92C255.408,85.384,211.552,75.601,194.144,82.517C182.197,87.264,186.969,-3.241,118.388,78.509C101.295,98.883,89.857,118.561,89.857,118.561C65.229,109.55,17.687,112.531,4.167,104.503C-9.878,96.163,-29.27,92.373,-48.476,91.64C-71.396,90.765,-94.048,94.246,-107.026,99.544C-192.969,134.633,-217.811,85.949,-176.089,58.927C-74.322,-6.978,20.634,-124.831,216.513,-97.741C259.077,-91.854,266.722,-22.293,266.722,-22.293Z; M266.722,-22.293C266.722,-22.293,270.839,-9.292,270.281,2.054C269.696,14.099,277.845,46.421,266.033,66.92C255.408,85.384,211.552,75.601,194.144,82.517C182.197,87.264,186.969,-3.241,118.388,78.509C101.295,98.883,89.857,118.561,89.857,118.561C65.229,109.55,19.767,106.472,4.167,104.503C1.747,104.198,-15.126,103.901,-35.713,103.321C-60.281,102.629,-90.137,101.536,-107.026,99.544C-165.483,92.651,-217.811,85.949,-176.089,58.927C-74.322,-6.978,20.634,-124.831,216.513,-97.741C259.077,-91.854,266.722,-22.293,266.722,-22.293Z; M266.722,-22.293C266.722,-22.293,270.839,-9.292,270.281,2.054C269.696,14.099,277.845,46.421,266.033,66.92C255.408,85.384,211.552,75.601,194.144,82.517C182.197,87.264,186.969,-3.241,118.388,78.509C101.295,98.883,89.857,118.561,89.857,118.561C65.229,109.55,18.122,97.256,4.167,104.503C-10.952,112.354,-28.965,98.753,-46.566,102.997C-78.599,110.72,-102.955,89.356,-117.483,90.393C-177.945,94.707,-217.811,85.949,-176.089,58.927C-74.322,-6.978,20.634,-124.831,216.513,-97.741C259.077,-91.854,266.722,-22.293,266.722,-22.293Z; M266.722,-22.293C266.722,-22.293,270.839,-9.292,270.281,2.054C269.696,14.099,277.845,46.421,266.033,66.92C255.408,85.384,211.552,75.601,194.144,82.517C182.197,87.264,186.969,-3.241,118.388,78.509C101.295,98.883,89.857,118.561,89.857,118.561C65.229,109.55,18.122,97.256,4.167,104.503C-10.952,112.354,-28.965,98.753,-46.566,102.997C-78.599,110.72,-102.955,89.356,-117.483,90.393C-177.945,94.707,-217.811,85.949,-176.089,58.927C-74.322,-6.978,20.634,-124.831,216.513,-97.741C259.077,-91.854,266.722,-22.293,266.722,-22.293Z" keyTimes="0; 0.066667; 0.1; 0.133333; 0.1636; 0.185227; 0.206854; 0.245767; 0.267387; 0.289006; 0.301987; 0.3236; 0.345227; 0.3582; 0.37982; 0.40144; 0.431706; 0.453333; 0.47496; 0.496573; 0.5182; 0.53982; 0.570093; 0.591706; 0.613333; 0.633333; 0.65496; 0.676586; 0.6982; 0.733973; 0.76974; 0.819834; 0.8556; 0.891373; 0.921773; 0.95756; 0.993334; 1" keySplines="0 0 1 1; 0 0 1 1; 0 0 1 1; 0 0 1 1; 0 0 1 1; 0 0 1 1; 0 0 1 1; 0 0 1 1; 0 0 1 1; 0 0 1 1; 0 0 1 1; 0 0 1 1; 0 0 1 1; 0 0 1 1; 0 0 1 1; 0 0 1 1; 0 0 1 1; 0 0 1 1; 0 0 1 1; 0 0 1 1; 0 0 1 1; 0 0 1 1; 0 0 1 1; 0 0 1 1; 0 0 1 1; 0 0 1 1; 0 0 1 1; 0 0 1 1; 0 0 1 1; 0 0 1 1; 0 0 1 1; 0 0 1 1; 0 0 1 1; 0 0 1 1; 0 0 1 1; 0 0 1 1; 0 0 1 1" fill="freeze" /></path></g></g></svg>