<svg xml:space="preserve" style="max-height: 500px" viewBox="170.58823529411765 96.04 272.54901960784315 252.84" y="0px" x="0px" version="1.1" xmlns:xlink="http://www.w3.org/1999/xlink" xmlns="http://www.w3.org/2000/svg" width="272.54901960784315" height="252.84">
<style type="text/css">
	.st0{fill-rule:evenodd;clip-rule:evenodd;fill:#4D4D4D;}
	.st1{fill:#000000;}
	.st2{fill:#333333;}
	.st3{fill:#FFFFFF;}
	.st4{fill:#000000;}
	.st5{fill-rule:evenodd;clip-rule:evenodd;fill:#FFCC99;}
</style>
<g id="Layer_1">
	<g id="XMLID_1_">
		
	</g>
</g>
<g id="Layer_2">
	<g id="XMLID_3_">
		<path d="M314.6,110.6c63,0,114.1,51.2,114.1,114.3s-51.1,114.3-114.1,114.3S200.6,288.1,200.6,225    S251.6,110.6,314.6,110.6L314.6,110.6z M313,209.7l0.6-1l-1.1-1.8l-0.5,1.8L313,209.7z M310.9,204.1l-3-5l0,5.7l2.2,2.1    L310.9,204.1z M308,208.1l0,1.9l1.1,0.6l0.3-1.1L308,208.1z M314.9,206.3l1.5-2.5l-1.6-5.6l-1.4,5.5L314.9,206.3z M318,200.9    l3.7-6.5l-0.2-22.1l-5.5,21.3L318,200.9z M321.5,163.1l-0.3-28.6c-4.6-0.3-9.2-0.3-13.8,0l0.2,28.6l7.2,25.9L321.5,163.1z     M323.6,134.7l0.2,19.5l4.9-18.9C327,135,325.3,134.8,323.6,134.7L323.6,134.7z M331,135.7l-7.2,27.7l0.2,26.9l13.1-23.3l7.2-27.7    C340,137.7,335.5,136.5,331,135.7L331,135.7z M346.6,140l-4.9,18.9l9.6-17C349.7,141.3,348.2,140.6,346.6,140L346.6,140z     M353.4,143l-14,24.9l-6.7,26l18.7-19.1l14.1-24.9C361.7,147.3,357.6,144.9,353.4,143L353.4,143z M367.4,151.2l-9.6,17l13.6-13.9    C370.1,153.3,368.8,152.2,367.4,151.2L367.4,151.2z M373.3,155.8l-20,20.4l-13.2,23.4l23-13.6l20-20.4    C380.1,162.1,376.8,158.8,373.3,155.8L373.3,155.8z M384.6,167.4L371,181.4l16.7-9.9C386.8,170.1,385.7,168.7,384.6,167.4    L384.6,167.4z M389.2,173.4l-24.6,14.5l-18.8,19.2l25.7-7.1l24.6-14.5C394.1,181.2,391.8,177.2,389.2,173.4L389.2,173.4z     M397.1,187.6l-16.8,9.9l18.7-5.2C398.5,190.7,397.8,189.1,397.1,187.6L397.1,187.6z M399.9,194.5l-27.5,7.6l-23.1,13.6l26.7-0.2    l27.5-7.7C402.7,203.3,401.5,198.8,399.9,194.5L399.9,194.5z M404,210.2l-18.8,5.2l19.5-0.2C404.5,213.6,404.3,211.9,404,210.2    L404,210.2z M404.9,217.7l-28.5,0.2l-25.8,7.2l25.8,6.7l28.6-0.3C405.2,226.9,405.2,222.3,404.9,217.7L404.9,217.7z M404.7,233.9    l-19.5,0.2l18.8,4.9C404.4,237.3,404.6,235.6,404.7,233.9L404.7,233.9z M403.7,241.3l-27.6-7.2l-26.8,0.2l23.2,13.2l27.7,7.2    C401.7,250.4,402.9,245.9,403.7,241.3L403.7,241.3z M399.4,257l-18.9-4.9l16.9,9.6C398.1,260.1,398.8,258.6,399.4,257L399.4,257z     M396.5,263.9l-24.8-14.1l-26-6.7l19,18.8l24.9,14.1C392.1,272.1,394.4,268.1,396.5,263.9L396.5,263.9z M388.2,277.9l-16.9-9.6    l13.9,13.7C386.2,280.6,387.2,279.2,388.2,277.9L388.2,277.9z M383.6,283.8l-20.3-20L340,250.5l13.5,23l20.3,20    C377.3,290.6,380.6,287.3,383.6,283.8L383.6,283.8z M372,295.1l-13.9-13.6l9.9,16.8C369.4,297.3,370.7,296.2,372,295.1L372,295.1z     M366.1,299.7L351.6,275l-19.1-18.8l7.1,25.8l14.5,24.7C358.3,304.6,362.3,302.3,366.1,299.7L366.1,299.7z M351.9,307.7l-9.9-16.8    l5.2,18.8C348.9,309,350.4,308.4,351.9,307.7L351.9,307.7z M345,310.4l-7.6-27.5l-13.6-23.1l0.2,26.7l7.6,27.6    C336.3,313.2,340.7,312,345,310.4L345,310.4z M329.3,314.5l-5.2-18.8l0.2,19.5C326,315,327.7,314.8,329.3,314.5L329.3,314.5z     M321.9,315.4l-0.2-28.6l-7.2-25.9l-6.7,25.9l0.2,28.6C312.7,315.8,317.3,315.8,321.9,315.4L321.9,315.4z M305.7,315.3l-0.2-19.5    l-4.9,18.9C302.3,314.9,304,315.1,305.7,315.3L305.7,315.3z M298.3,314.2l7.2-27.7l-0.2-26.9L292.1,283l-7.2,27.7    C289.2,312.2,293.7,313.4,298.3,314.2L298.3,314.2z M282.7,309.9l4.9-18.9l-9.6,17C279.5,308.6,281.1,309.3,282.7,309.9    L282.7,309.9z M275.8,307l14-24.9l6.7-26l-18.7,19.1l-14.1,24.9C267.6,302.7,271.6,305,275.8,307L275.8,307z M261.8,298.7l9.6-17    l-13.6,13.9C259.1,296.7,260.5,297.7,261.8,298.7L261.8,298.7z M256,294.1l20-20.4l13.2-23.4l-23,13.6l-20,20.4    C249.2,287.8,252.5,291.1,256,294.1L256,294.1z M244.6,282.5l13.6-13.9l-16.8,9.9C242.5,279.8,243.5,281.2,244.6,282.5    L244.6,282.5z M240.1,276.5l24.5-14.5l18.8-19.2l-25.7,7.1l-24.6,14.5C235.2,268.7,237.5,272.7,240.1,276.5L240.1,276.5z     M232.1,262.4l16.8-9.9l-18.8,5.2C230.8,259.3,231.4,260.8,232.1,262.4L232.1,262.4z M229.3,255.4l27.5-7.6l23.1-13.6l-26.7,0.2    l-27.5,7.7C226.6,246.6,227.8,251.1,229.3,255.4L229.3,255.4z M225.3,239.7l18.7-5.2l-19.4,0.2C224.8,236.3,225,238,225.3,239.7    L225.3,239.7z M224.4,232.3l28.5-0.2l25.8-7.2l-25.8-6.7l-28.5,0.2C224,223,224,227.6,224.4,232.3L224.4,232.3z M224.6,216    l19.5-0.2l-18.8-4.9C224.9,212.6,224.7,214.3,224.6,216L224.6,216z M225.6,208.6l27.6,7.2l26.8-0.2l-23.2-13.2l-27.6-7.2    C227.6,199.5,226.4,204,225.6,208.6L225.6,208.6z M229.9,192.9l18.8,4.9l-16.9-9.6C231.1,189.8,230.5,191.3,229.9,192.9    L229.9,192.9z M232.8,186.1l24.8,14.1l25.9,6.7l-19-18.8L239.7,174C237.1,177.8,234.8,181.8,232.8,186.1L232.8,186.1z M241.1,172    l16.9,9.6L244.1,168C243.1,169.3,242.1,170.7,241.1,172L241.1,172z M245.7,166.2l20.3,20l23.3,13.2l-13.5-23.1l-20.4-20    C251.9,159.3,248.7,162.6,245.7,166.2L245.7,166.2z M257.3,154.8l13.9,13.7l-9.9-16.8C259.9,152.7,258.5,153.7,257.3,154.8    L257.3,154.8z M263.2,150.3l14.5,24.6l19.1,18.8l-7.1-25.8l-14.5-24.7C271,145.3,267,147.6,263.2,150.3L263.2,150.3z M277.3,142.3    l9.9,16.8l-5.2-18.8C280.4,140.9,278.8,141.5,277.3,142.3L277.3,142.3z M284.2,139.5l7.6,27.5l13.6,23.2l-0.2-26.8l-7.6-27.6    C293,136.7,288.6,137.9,284.2,139.5L284.2,139.5z M299.9,135.4l5.2,18.8l-0.2-19.5C303.3,134.9,301.6,135.1,299.9,135.4    L299.9,135.4z M334.9,175.8L324.1,195l0.1,7.6l5.2-5.3L334.9,175.8z M324.2,205.9l0,3.1l2.5-1.5l1.5-5.6L324.2,205.9z     M329.6,205.8l6.4-3.8l10.9-19.3l-15.4,15.7L329.6,205.8z M356.7,192.6l-18.9,11.2l-3.7,6.6l7.2-2L356.7,192.6z M332.4,213.2    l-1.5,2.7h2.9l4.1-4.2L332.4,213.2z M337.2,215.9l7.4-0.1l19-11.2l-21.2,5.9L337.2,215.9z M367.2,218l-22,0.2l-6.5,3.8l7.2,1.9    L367.2,218z M335.8,223.7l-2.6,1.5l2.5,1.5l5.6-1.6L335.8,223.7z M338.7,228.4l6.5,3.7l22.1-0.2l-21.3-5.5L338.7,228.4z     M363.7,245.3l-19.1-10.9l-7.6,0.1l5.3,5.2L363.7,245.3z M333.6,234.5l-3.1,0l1.5,2.5l5.6,1.5L333.6,234.5z M333.7,240l3.8,6.4    l19.2,10.9l-15.7-15.4L333.7,240z M347,267.1l-11.1-19l-6.6-3.7l2,7.2L347,267.1z M326.3,242.8l-2.6-1.5l0,2.9l4.1,4.1    L326.3,242.8z M323.7,247.6l0.1,7.5l11.2,19.1l-5.9-21.2L323.7,247.6z M321.6,277.7l-0.2-22l-3.8-6.5l-1.9,7.2L321.6,277.7z     M315.9,246.2l-1.5-2.6l-1.4,2.6l1.5,5.6L315.9,246.2z M311.2,249.1l-3.7,6.5l0.2,22.1l5.5-21.3L311.2,249.1z M294.4,274.1    l10.8-19.2l-0.1-7.6l-5.2,5.3L294.4,274.1z M305.1,244l0-3.1l-2.5,1.5l-1.5,5.7L305.1,244z M299.7,244.1l-6.4,3.8l-10.9,19.2    l15.4-15.7L299.7,244.1z M272.6,257.4l18.9-11.2l3.7-6.6l-7.2,2L272.6,257.4z M296.9,236.7l1.5-2.7l-2.9,0l-4.1,4.2L296.9,236.7z     M292.1,234l-7.4,0.1l-19,11.2l21.2-5.9L292.1,234z M262.1,231.9l21.9-0.2l6.5-3.8l-7.2-1.9L262.1,231.9z M293.4,226.2l2.6-1.5    l-2.5-1.4l-5.6,1.5L293.4,226.2z M290.6,221.6l-6.5-3.7L262,218l21.3,5.5L290.6,221.6z M265.6,204.6l19.1,10.9l7.6-0.1l-5.3-5.2    L265.6,204.6z M295.7,215.4l3.1,0l-1.5-2.5l-5.6-1.5L295.7,215.4z M295.5,209.9l-3.8-6.4l-19.2-10.9l15.7,15.4L295.5,209.9z     M282.3,182.8l11.1,19l6.6,3.7l-2-7.2L282.3,182.8z M303,207.2l2.6,1.5v-2.9l-4.2-4.1L303,207.2z M305.6,202.4l-0.1-7.5    l-11.2-19.1l5.9,21.2L305.6,202.4z M307.7,172.3l0.2,22l3.8,6.5l1.9-7.2L307.7,172.3z M321.8,199.1l-2.8,5l0.8,3l2-2.1    L321.8,199.1z M317.3,207l-1,1.7l0.7,1.2l0.8-0.9L317.3,207z M320.8,211l1-0.6v-2l-1.4,1.4L320.8,211z M328.1,215.9l1-1.8    l-1.8,0.5l-0.3,1.3H328.1z M330.8,211.2l2.9-5.1l-4.9,2.9l-0.7,3L330.8,211.2z M325.9,210.8l-1.6,1v1.3l1.1-0.3L325.9,210.8z     M329.5,218.3l-0.6,1.1l1.1,0.3l1.5-1.5L329.5,218.3z M329.8,223.4l1,0.6l1.8-1.1l-1.9-0.5L329.8,223.4z M335.5,221.2l5-3l-5.7,0    l-2.1,2.2L335.5,221.2z M305.6,211.4l-1.8-1l0.5,1.9l1.3,0.3V211.4z M300.9,208.8l-5.1-2.9l2.9,4.9l3,0.7L300.9,208.8z     M300.5,213.7l1,1.7l1.3,0l-0.3-1.1L300.5,213.7z M300.7,218.7l-0.6-1h-2l1.4,1.4L300.7,218.7z M294.7,217.8l-5.8,0.1l5,2.8l3-0.8    L294.7,217.8z M296.7,222.3l1.7,1l1.2-0.7l-0.8-0.8L296.7,222.3z M299.5,226.6l-1-0.6l-1.8,1l1.8,0.5L299.5,226.6z M293.8,228.7    l-5,3l5.7,0l2.1-2.2L293.8,228.7z M297.8,231.6h1.9l0.6-1.2l-1.1-0.3L297.8,231.6z M308.4,238.9l-1,0.6v2l1.4-1.4L308.4,238.9z     M307.5,245l0.1,5.9l2.8-5l-0.8-2.9L307.5,245z M312,242.9l1-1.7l-0.7-1.1l-0.8,0.8L312,242.9z M295.6,243.8l4.9-2.9l0.7-3    l-2.8,0.8L295.6,243.8z M303.4,239.2l1.7-1l0-1.3l-1.1,0.3L303.4,239.2z M302.3,234h-1.2l-1,1.8l1.9-0.5L302.3,234z M316.3,240.2    l-0.6,1l1,1.8l0.5-1.9L316.3,240.2z M318.4,245.9l3,5l0-5.8l-2.2-2.1L318.4,245.9z M321.3,241.8v-1.9l-1.2-0.6l-0.3,1.1    L321.3,241.8z M323.6,237.3v1.2l1.8,1l-0.5-1.8L323.6,237.3z M328.3,241.2l5.1,2.9l-2.9-4.9l-3-0.7L328.3,241.2z M328.8,236.2    l-1-1.6h-1.3l0.3,1.1L328.8,236.2z M340.4,232.1l-5-2.8l-2.9,0.8l2.1,2L340.4,232.1z M332.5,227.6l-1.7-1l-1.1,0.7l0.8,0.8    L332.5,227.6z M328.6,231.2l0.6,1h2l-1.4-1.4L328.6,231.2z" class="st1" id="XMLID_5_"/>
		<path d="M307.8,103.8c63,0,114.1,51.2,114.1,114.3s-51.1,114.3-114.1,114.3    c-63,0-114.1-51.2-114.1-114.3S244.8,103.8,307.8,103.8L307.8,103.8z M306.2,202.9l0.6-1l-1.1-1.8l-0.5,1.8L306.2,202.9z     M304.1,197.3l-3-5l0,5.7l2.2,2.1L304.1,197.3z M301.2,201.3l0,1.9l1.1,0.6l0.3-1.1L301.2,201.3z M308.1,199.5l1.5-2.5l-1.6-5.6    l-1.4,5.5L308.1,199.5z M311.2,194.1l3.7-6.5l-0.2-22.1l-5.5,21.3L311.2,194.1z M314.7,156.2l-0.3-28.6c-4.6-0.3-9.2-0.3-13.8,0    l0.2,28.6l7.2,25.9L314.7,156.2z M316.8,127.9l0.2,19.5l4.9-18.9C320.2,128.2,318.5,128,316.8,127.9L316.8,127.9z M324.2,128.9    l-7.2,27.7l0.2,26.9l13.1-23.3l7.2-27.7C333.2,130.9,328.8,129.7,324.2,128.9L324.2,128.9z M339.8,133.2l-4.9,18.9l9.6-17    C342.9,134.5,341.4,133.8,339.8,133.2L339.8,133.2z M346.6,136.2l-14,24.9l-6.7,26l18.7-19.1l14.1-24.9    C354.9,140.5,350.9,138.1,346.6,136.2L346.6,136.2z M360.6,144.4l-9.6,17l13.6-13.9C363.4,146.4,362,145.4,360.6,144.4    L360.6,144.4z M366.5,149l-20,20.4l-13.2,23.4l23-13.6l20-20.4C373.3,155.3,370,152,366.5,149L366.5,149z M377.8,160.6l-13.6,13.9    l16.7-9.9C380,163.3,378.9,161.9,377.8,160.6L377.8,160.6z M382.4,166.6l-24.6,14.5L339,200.2l25.7-7.1l24.6-14.5    C387.3,174.4,385,170.4,382.4,166.6L382.4,166.6z M390.3,180.7l-16.8,9.9l18.7-5.2C391.7,183.8,391.1,182.3,390.3,180.7    L390.3,180.7z M393.1,187.7l-27.5,7.6L342.6,209l26.7-0.2l27.5-7.7C395.9,196.5,394.7,192,393.1,187.7L393.1,187.7z M397.2,203.4    l-18.8,5.2l19.5-0.2C397.7,206.8,397.5,205.1,397.2,203.4L397.2,203.4z M398.1,210.9l-28.5,0.2l-25.8,7.2l25.8,6.7l28.6-0.3    C398.5,220.1,398.5,215.5,398.1,210.9L398.1,210.9z M397.9,227.1l-19.5,0.2l18.8,4.9C397.6,230.5,397.8,228.8,397.9,227.1    L397.9,227.1z M396.9,234.5l-27.6-7.2l-26.8,0.2l23.2,13.2l27.7,7.2C394.9,243.6,396.1,239.1,396.9,234.5L396.9,234.5z     M392.6,250.2l-18.9-4.9l16.9,9.6C391.3,253.3,392,251.8,392.6,250.2L392.6,250.2z M389.7,257L364.8,243l-26-6.7l19,18.8    l24.9,14.1C385.4,265.3,387.7,261.3,389.7,257L389.7,257z M381.4,271.1l-16.9-9.6l13.9,13.7C379.4,273.8,380.4,272.4,381.4,271.1    L381.4,271.1z M376.8,277l-20.3-20l-23.3-13.2l13.5,23l20.3,20C370.5,283.8,373.8,280.5,376.8,277L376.8,277z M365.2,288.3    l-13.9-13.6l9.9,16.8C362.6,290.5,363.9,289.4,365.2,288.3L365.2,288.3z M359.3,292.8l-14.5-24.6l-19.1-18.8l7.1,25.8l14.5,24.7    C351.5,297.8,355.5,295.5,359.3,292.8L359.3,292.8z M345.2,300.8l-9.9-16.8l5.2,18.8C342.1,302.2,343.6,301.6,345.2,300.8    L345.2,300.8z M338.2,303.6l-7.6-27.5L317,253l0.2,26.7l7.6,27.6C329.5,306.4,333.9,305.2,338.2,303.6L338.2,303.6z M322.5,307.7    l-5.2-18.8l0.2,19.5C319.2,308.2,320.9,308,322.5,307.7L322.5,307.7z M315.1,308.6l-0.2-28.6l-7.2-25.9l-6.7,25.9l0.2,28.6    C305.9,309,310.5,309,315.1,308.6L315.1,308.6z M298.9,308.5l-0.2-19.5l-4.9,18.9C295.5,308.1,297.2,308.3,298.9,308.5    L298.9,308.5z M291.5,307.4l7.2-27.7l-0.2-26.9l-13.1,23.3l-7.2,27.7C282.4,305.4,286.9,306.6,291.5,307.4L291.5,307.4z     M275.9,303.1l4.9-18.9l-9.6,17C272.7,301.8,274.3,302.5,275.9,303.1L275.9,303.1z M269,300.2l14-24.9l6.7-26l-18.7,19.1    L257,293.3C260.8,295.8,264.8,298.2,269,300.2L269,300.2z M255,291.9l9.6-17L251,288.8C252.3,289.9,253.7,290.9,255,291.9    L255,291.9z M249.2,287.3l20-20.4l13.2-23.4l-23,13.6l-20,20.4C242.4,281,245.7,284.3,249.2,287.3L249.2,287.3z M237.8,275.7    l13.6-13.9l-16.8,9.9C235.7,273,236.7,274.4,237.8,275.7L237.8,275.7z M233.4,269.7l24.5-14.5l18.8-19.2l-25.7,7.1l-24.6,14.5    C228.4,261.9,230.7,265.9,233.4,269.7L233.4,269.7z M225.3,255.6l16.8-9.9l-18.8,5.2C224,252.5,224.6,254,225.3,255.6L225.3,255.6    z M222.6,248.6L250,241l23.1-13.6l-26.7,0.2l-27.5,7.7C219.8,239.8,221,244.3,222.6,248.6L222.6,248.6z M218.5,232.9l18.7-5.2    l-19.4,0.2C218,229.5,218.2,231.2,218.5,232.9L218.5,232.9z M217.6,225.5l28.5-0.2l25.8-7.2l-25.8-6.7l-28.5,0.2    C217.2,216.2,217.2,220.8,217.6,225.5L217.6,225.5z M217.8,209.2l19.5-0.2l-18.8-4.9C218.1,205.8,217.9,207.5,217.8,209.2    L217.8,209.2z M218.8,201.8l27.6,7.2l26.8-0.2L250,195.6l-27.6-7.2C220.8,192.7,219.6,197.2,218.8,201.8L218.8,201.8z     M223.1,186.1L242,191l-16.9-9.6C224.4,183,223.7,184.5,223.1,186.1L223.1,186.1z M226.1,179.3l24.8,14.1l25.9,6.7l-19-18.8    l-24.9-14.1C230.3,171,228,175,226.1,179.3L226.1,179.3z M234.3,165.2l16.9,9.6l-13.9-13.6C236.3,162.5,235.3,163.9,234.3,165.2    L234.3,165.2z M238.9,159.4l20.3,20l23.3,13.2L269,169.6l-20.4-20C245.1,152.5,241.9,155.8,238.9,159.4L238.9,159.4z M250.5,148    l13.9,13.7l-9.9-16.8C253.1,145.9,251.8,146.9,250.5,148L250.5,148z M256.4,143.5l14.5,24.6l19.1,18.8l-7.1-25.8l-14.5-24.7    C264.2,138.5,260.2,140.8,256.4,143.5L256.4,143.5z M270.5,135.5l9.9,16.8l-5.2-18.8C273.6,134.1,272.1,134.7,270.5,135.5    L270.5,135.5z M277.5,132.7l7.6,27.5l13.6,23.2l-0.2-26.8l-7.6-27.6C286.2,129.9,281.8,131.1,277.5,132.7L277.5,132.7z     M293.1,128.6l5.2,18.8l-0.2-19.5C296.5,128.1,294.8,128.3,293.1,128.6L293.1,128.6z M328.1,169l-10.8,19.1l0.1,7.6l5.2-5.3    L328.1,169z M317.4,199.1l0,3.1l2.5-1.5l1.5-5.6L317.4,199.1z M322.8,199l6.4-3.8l10.9-19.3l-15.4,15.7L322.8,199z M349.9,185.8    L331,196.9l-3.7,6.6l7.2-2L349.9,185.8z M325.6,206.4l-1.5,2.7h2.9l4.1-4.2L325.6,206.4z M330.4,209.1l7.4-0.1l19-11.2l-21.2,5.9    L330.4,209.1z M360.4,211.2l-22,0.2l-6.5,3.8l7.2,1.9L360.4,211.2z M329.1,216.9l-2.6,1.5l2.5,1.5l5.6-1.6L329.1,216.9z     M331.9,221.6l6.5,3.7l22.1-0.2l-21.3-5.5L331.9,221.6z M356.9,238.5l-19.1-10.9l-7.6,0.1l5.3,5.2L356.9,238.5z M326.9,227.7    l-3.1,0l1.5,2.5l5.6,1.5L326.9,227.7z M327,233.2l3.8,6.4l19.2,10.9l-15.7-15.4L327,233.2z M340.2,260.3l-11.1-19l-6.6-3.7l2,7.2    L340.2,260.3z M319.5,235.9l-2.6-1.5l0,2.9l4.1,4.1L319.5,235.9z M316.9,240.7l0.1,7.5l11.2,19.1l-5.9-21.2L316.9,240.7z     M314.8,270.9l-0.2-22l-3.8-6.5l-1.9,7.2L314.8,270.9z M309.1,239.4l-1.5-2.6l-1.4,2.6l1.5,5.6L309.1,239.4z M304.4,242.3    l-3.7,6.5l0.2,22.1l5.5-21.3L304.4,242.3z M287.6,267.3l10.8-19.2l-0.1-7.6l-5.2,5.3L287.6,267.3z M298.3,237.2l0-3.1l-2.5,1.5    l-1.5,5.7L298.3,237.2z M292.9,237.3l-6.4,3.8l-10.9,19.2l15.4-15.7L292.9,237.3z M265.8,250.5l18.9-11.2l3.7-6.6l-7.2,2    L265.8,250.5z M290.1,229.9l1.5-2.7l-2.9,0l-4.1,4.2L290.1,229.9z M285.3,227.2l-7.4,0.1l-19,11.2l21.2-5.9L285.3,227.2z     M255.3,225.1l21.9-0.2l6.5-3.8l-7.2-1.9L255.3,225.1z M286.6,219.4l2.6-1.5l-2.5-1.4l-5.6,1.5L286.6,219.4z M283.8,214.7    l-6.5-3.7l-22.1,0.2l21.3,5.5L283.8,214.7z M258.8,197.8l19.1,10.9l7.6-0.1l-5.3-5.2L258.8,197.8z M288.9,208.6l3.1,0l-1.5-2.5    l-5.6-1.5L288.9,208.6z M288.7,203.1l-3.8-6.4l-19.2-10.9l15.7,15.4L288.7,203.1z M275.5,176l11.1,19l6.6,3.7l-2-7.2L275.5,176z     M296.2,200.4l2.6,1.5v-2.9l-4.2-4.1L296.2,200.4z M298.8,195.6l-0.1-7.5L287.5,169l5.9,21.2L298.8,195.6z M300.9,165.5l0.2,22    l3.8,6.5l1.9-7.2L300.9,165.5z M315,192.3l-2.8,5l0.8,3l2-2.1L315,192.3z M310.5,200.2l-1,1.7l0.7,1.2l0.8-0.9L310.5,200.2z     M314.1,204.2l1-0.6v-2l-1.4,1.4L314.1,204.2z M321.4,209.1l1-1.8l-1.8,0.5l-0.3,1.3H321.4z M324,204.4l2.9-5.1l-4.9,2.9l-0.7,3    L324,204.4z M319.1,204l-1.6,1v1.3l1.1-0.3L319.1,204z M322.7,211.5l-0.6,1.1l1.1,0.3l1.5-1.5L322.7,211.5z M323,216.6l1,0.6    l1.8-1.1l-1.9-0.5L323,216.6z M328.7,214.4l5-3l-5.7,0l-2.1,2.2L328.7,214.4z M298.8,204.6l-1.8-1l0.5,1.9l1.3,0.3V204.6z     M294.2,202l-5.1-2.9l2.9,4.9l3,0.7L294.2,202z M293.7,206.9l1,1.7l1.3,0l-0.3-1.1L293.7,206.9z M293.9,211.9l-0.6-1h-2l1.4,1.4    L293.9,211.9z M287.9,211l-5.8,0.1l5,2.8l3-0.8L287.9,211z M289.9,215.5l1.7,1l1.2-0.7l-0.8-0.8L289.9,215.5z M292.7,219.8l-1-0.6    l-1.8,1l1.8,0.5L292.7,219.8z M287,221.9l-5,3l5.7,0l2.1-2.2L287,221.9z M291,224.8h1.9l0.6-1.2l-1.1-0.3L291,224.8z M301.6,232.1    l-1,0.6v2l1.4-1.4L301.6,232.1z M300.7,238.2l0.1,5.9l2.8-5l-0.8-2.9L300.7,238.2z M305.2,236.1l1-1.7l-0.7-1.1l-0.8,0.8    L305.2,236.1z M288.8,237l4.9-2.9l0.7-3l-2.8,0.8L288.8,237z M296.6,232.4l1.7-1l0-1.3l-1.1,0.3L296.6,232.4z M295.5,227.2h-1.2    l-1,1.8l1.9-0.5L295.5,227.2z M309.5,233.4l-0.6,1l1,1.8l0.5-1.9L309.5,233.4z M311.6,239.1l3,5l0-5.8l-2.2-2.1L311.6,239.1z     M314.5,235v-1.9l-1.2-0.6l-0.3,1.1L314.5,235z M316.8,230.5v1.2l1.8,1l-0.5-1.8L316.8,230.5z M321.6,234.4l5.1,2.9l-2.9-4.9    l-3-0.7L321.6,234.4z M322,229.4l-1-1.6h-1.3l0.3,1.1L322,229.4z M333.6,225.3l-5-2.8l-2.9,0.8l2.1,2L333.6,225.3z M325.7,220.8    l-1.7-1l-1.1,0.7l0.8,0.8L325.7,220.8z M321.8,224.4l0.6,1h2l-1.4-1.4L321.8,224.4z M307.8,115.4c56.6,0,102.5,46,102.5,102.7    s-45.9,102.7-102.5,102.7c-56.6,0-102.5-46-102.5-102.7S251.2,115.4,307.8,115.4L307.8,115.4z M307.8,117.8    c-55.3,0-100.1,44.9-100.1,100.3s44.8,100.3,100.1,100.3c55.3,0,100.1-44.9,100.1-100.3S363.1,117.8,307.8,117.8L307.8,117.8z     M307.8,125c51.3,0,93,41.7,93,93.1s-41.6,93.1-93,93.1c-51.3,0-92.9-41.7-92.9-93.1S256.5,125,307.8,125L307.8,125z M307.8,106.2    c-61.7,0-111.7,50.1-111.7,111.9c0,61.8,50,111.9,111.7,111.9c61.7,0,111.7-50.1,111.7-111.9C419.5,156.3,369.5,106.2,307.8,106.2    L307.8,106.2z" class="st2" id="XMLID_127_"/>
		<path d="M307.8,106.2c-61.7,0-111.7,50.1-111.7,111.9c0,61.8,50,111.9,111.7,111.9    c61.7,0,111.7-50.1,111.7-111.9C419.5,156.3,369.5,106.2,307.8,106.2L307.8,106.2z M307.8,115.4c56.6,0,102.5,46,102.5,102.7    s-45.9,102.7-102.5,102.7c-56.6,0-102.5-46-102.5-102.7S251.2,115.4,307.8,115.4L307.8,115.4z" class="st3" id="XMLID_253_"/>
		<path d="M307.8,117.8c-55.3,0-100.1,44.9-100.1,100.3s44.8,100.3,100.1,100.3    c55.3,0,100.1-44.9,100.1-100.3S363.1,117.8,307.8,117.8L307.8,117.8z M307.8,125c51.3,0,92.9,41.7,92.9,93.1    s-41.6,93.2-92.9,93.2c-51.3,0-92.9-41.7-92.9-93.2S256.5,125,307.8,125L307.8,125z" class="st4" id="XMLID_256_"/>
	</g>
</g>
<g id="Layer_3">
	<g id="XMLID_1063_">
		<path d="M517.6,194.2l1.1-5.4c-16,0.1-32.8-2.3-47.5-8.8l-0.2,0.8l-5.8-1.3l2.6-13.1l5.8,1.3    l-0.1,0.7c15-0.5,33.7,2.3,47.5,8.8l1-5.1l5.9,1.1l-1.2,5.9l5.2,1.6c4.5,1.4,7.7,5.4,9.5,9.6l3.6,8.1h123.7l3.6-8.1    c1.9-4.2,5-8.3,9.5-9.6l5.2-1.6l-1.2-5.9l5.9-1.1l1,5.1c13.8-6.5,32.4-9.4,47.5-8.8l-0.1-0.7l5.8-1.3l2.6,13.1l-5.8,1.3l-0.2-0.8    c-14.7,6.5-31.5,9-47.5,8.8l1.1,5.4l-5.9,1.1l-1.1-5.2l-1.9,0.5c-2.4,0.7-4.2,2.7-5.2,5l-31.9,72.1c-2.2,5.1-8.3,9.2-13.8,9.2    h-59.2c-5.6,0-11.6-4.1-13.8-9.2l-31.9-72.1c-1-2.3-2.8-4.3-5.2-5l-1.9-0.5l-1,5.2L517.6,194.2z M640.6,262.2l23.2-52.5H550    l23.2,52.5c0.7,1.7,2.8,3.6,4.7,3.6h58C637.9,265.8,639.9,263.9,640.6,262.2L640.6,262.2z" class="st1" id="XMLID_1085_"/>
		<path d="M510.8,187.4l1.1-5.4c-16,0.1-32.8-2.3-47.5-8.8l-0.2,0.8l-5.8-1.3l2.6-13.1l5.8,1.3    l-0.1,0.7c15-0.5,33.7,2.3,47.5,8.8l1-5.1l5.9,1.1l-1.2,5.9l5.2,1.6c4.5,1.4,7.7,5.4,9.5,9.6l3.6,8.1H662l3.6-8.1    c1.9-4.2,5-8.3,9.5-9.6l5.2-1.6l-1.2-5.9l5.9-1.1l1,5.1c13.8-6.5,32.4-9.4,47.5-8.8l-0.1-0.7l5.8-1.3l2.6,13.1l-5.8,1.3l-0.2-0.8    c-14.7,6.5-31.5,9-47.5,8.8l1.1,5.4l-5.9,1.1l-1.1-5.2l-1.9,0.5c-2.4,0.7-4.2,2.7-5.2,5L643.6,261c-2.2,5.1-8.3,9.2-13.8,9.2    h-59.2c-5.6,0-11.6-4.1-13.8-9.2l-31.9-72.1c-1-2.3-2.8-4.3-5.2-5l-1.9-0.5l-1,5.2L510.8,187.4z M513.7,172.8    c-13.6-6.6-32.5-9.5-47.5-8.8l-1.4,6.7c14.7,6.6,31.5,9,47.5,8.8L513.7,172.8z M464,162.7l-1.1-0.2l-1.7,8.4l1.1,0.2L464,162.7z     M685.4,185.7l1.2-0.2l-3.5-17.4l-1.2,0.2L685.4,185.7z M738,171.1l1.1-0.2l-1.7-8.4l-1.1,0.2L738,171.1z M687.9,179.6    c16,0.2,32.8-2.2,47.5-8.8l-1.3-6.7c-15.1-0.6-33.9,2.2-47.5,8.8L687.9,179.6z M519.5,174.7l-1.3,6.3l2.1,0.6    c3.2,0.9,5.4,3.4,6.7,6.3l31.9,72.2c1.8,4.2,7,7.7,11.6,7.7h59.2c4.6,0,9.7-3.5,11.6-7.7l31.9-72.2c1.3-2.9,3.6-5.4,6.7-6.3    l2.1-0.6l-1.3-6.3l-5,1.5c-3.8,1.2-6.5,4.8-8,8.3l-4.2,9.6H536.7l-4.2-9.6c-1.6-3.5-4.2-7.1-8-8.3L519.5,174.7z M518.3,168.3    l-1.2-0.2l-3.5,17.4l1.2,0.2L518.3,168.3z M636,256.4c-1.2,2.6-4,5-6.9,5h-58c-2.9,0-5.7-2.4-6.9-5l-24.7-55.9h121.2L636,256.4z     M633.8,255.4l23.2-52.5H543.2l23.2,52.5c0.7,1.7,2.8,3.6,4.7,3.6h58C631.1,259,633.1,257.1,633.8,255.4L633.8,255.4z" class="st2" id="XMLID_1074_"/>
		<path d="M518.3,168.3l-1.2-0.2l-3.5,17.4l1.2,0.2L518.3,168.3z M513.7,172.8    c-13.6-6.6-32.5-9.5-47.5-8.8l-1.4,6.7c14.7,6.6,31.5,9,47.5,8.8L513.7,172.8z M464,162.7l-1.1-0.2l-1.7,8.4l1.1,0.2L464,162.7z     M685.4,185.7l1.2-0.2l-3.5-17.4l-1.2,0.2L685.4,185.7z M738,171.1l1.1-0.2l-1.7-8.4l-1.1,0.2L738,171.1z M687.9,179.6    c16,0.2,32.8-2.2,47.5-8.8l-1.3-6.7c-15.1-0.6-33.9,2.2-47.5,8.8L687.9,179.6z" class="st3" id="XMLID_1067_"/>
		<path d="M519.5,174.7l-1.3,6.3l2.1,0.6c3.2,0.9,5.4,3.4,6.7,6.3l31.9,72.2c1.8,4.2,7,7.7,11.6,7.7    h59.2c4.6,0,9.7-3.5,11.6-7.7l31.9-72.2c1.3-2.9,3.6-5.4,6.7-6.3l2.1-0.6l-1.3-6.3l-5,1.5c-3.8,1.2-6.5,4.8-8,8.3l-4.2,9.6H536.7    l-4.2-9.6c-1.6-3.5-4.2-7.1-8-8.3L519.5,174.7z M636,256.4c-1.2,2.6-4,5-6.9,5h-58c-2.9,0-5.7-2.4-6.9-5l-24.7-55.9h121.2    L636,256.4z" class="st4" id="XMLID_1064_"/>
	</g>
</g>
<g id="Layer_4">
	<g id="XMLID_283_">
		<path d="M873.5,173.6v42.8c0,3.3-1.7,5.9-4.5,8v10.5c0,7.4,15.4,11.7,20.7,16c0,0.5,0,1.1,0,1.6    c20.1,2.5,41.5,1.5,62.7,0.6c33.3-1.5,66.1-3,93,9.1c6.4,2.9,13.1,7.7,15,14.8c1.9,7-1.9,14.4-9.3,15.6c-4.4,0.7-8.9-1.1-11.4-4.8    c-1.4-2.1-2.2-4.9-2-8.2c-5-6.8-30.8-10.9-59.6-9c-21.9,1.5-47.1,6.6-65.9,18.4c-20.1,5.4-38.1,8-58.9,8c-15.7,0-29.7-3.6-38-18.1    v-0.8h-4.1v-2.2l-12.1-2.3v-4.9c-5.3-0.2-10.8-1.5-16.1-2.7c-10.8-2.5-21.2-5-29.1,2.4c-2.8,2.6-9.2-3.7-3.8-8    c9.7-7.8,21.6-5.2,33.4-2.7c5.3,1.1,10.6,2.2,15.6,2.4v-4l12.1-2.3v-2.2h4.1v-0.4c3.7-6.3,14-11.9,14-18V224    c-2.4-2-3.9-4.5-3.9-7.6v-42.8c0-6.3,6.3-10.3,14.5-12c6.1-1.3,13-1.3,19.2,0C867.1,163.3,873.5,167.3,873.5,173.6L873.5,173.6z     M1076.6,120.1v42.8c0,3.3,1.7,6,4.5,8v10.5c0,7.4-15.4,11.7-20.7,16c0,0.5,0,1.1,0,1.6c-20.1,2.5-41.5,1.6-62.7,0.6    c-33.3-1.5-66.1-3-93,9.1c-6.4,2.9-13.1,7.6-15,14.8c-1.9,7,1.9,14.4,9.3,15.6c4.4,0.7,8.9-1.1,11.4-4.8c1.5-2.1,2.2-4.9,2-8.2    c5-6.8,30.7-10.9,59.6-9c21.9,1.5,47.1,6.6,65.9,18.4c20.1,5.4,38.1,8,58.9,8c15.7,0,29.7-3.6,38-18.1v-0.9h4.1v-2.2l12.1-2.3    v-4.9c5.3-0.2,10.8-1.4,16.1-2.7c10.8-2.5,21.2-5,29.1,2.4c2.8,2.6,9.2-3.7,3.8-8c-9.7-7.8-21.6-5.2-33.4-2.7    c-5.3,1.2-10.6,2.3-15.6,2.5v-4l-12.1-2.3v-2.2h-4.1v-0.4c-3.7-6.3-14-11.9-14-18.1v-9.2c2.5-2,3.9-4.5,3.9-7.6v-42.8    c0-6.3-6.3-10.3-14.5-12c-6.1-1.3-13-1.3-19.2,0C1082.9,109.8,1076.6,113.8,1076.6,120.1L1076.6,120.1z" class="st1" id="XMLID_285_"/>
		<path d="M866.7,166.8v42.8c0,3.3-1.7,5.9-4.5,8v10.5c0,7.4,15.4,11.7,20.7,16c0,0.5,0,1.1,0,1.6    c20.1,2.5,41.5,1.5,62.7,0.6c33.3-1.5,66.1-3,93,9.1c6.4,2.9,13.1,7.7,15,14.8c1.9,7-1.9,14.4-9.3,15.6c-4.4,0.7-8.9-1.1-11.4-4.8    c-1.4-2.1-2.2-4.9-2-8.2c-5-6.8-30.8-10.9-59.6-9c-21.9,1.5-47.1,6.6-65.9,18.4c-20.1,5.4-38.1,8-58.9,8c-15.7,0-29.7-3.6-38-18.1    v-0.8h-4.1v-2.2l-12.1-2.3v-4.9c-5.3-0.2-10.8-1.5-16.1-2.7c-10.8-2.5-21.2-5-29.1,2.4c-2.8,2.6-9.2-3.7-3.8-8    c9.7-7.8,21.6-5.2,33.4-2.7c5.3,1.1,10.6,2.2,15.6,2.4v-4l12.1-2.3v-2.2h4.1v-0.4c3.7-6.3,14-11.9,14-18v-9.2    c-2.4-2-3.9-4.5-3.9-7.6v-42.8c0-6.3,6.3-10.3,14.5-12c6.1-1.3,13-1.3,19.2,0C860.3,156.5,866.7,160.5,866.7,166.8L866.7,166.8z     M876.3,279c1.5,0,2.6,1.2,2.6,2.6c0,1.5-1.2,2.7-2.6,2.7c-0.8,0-1.6-0.4-2-1c-8.3,1.6-17.9,2-26.2,1.7c-0.1,1-0.2,1.8-0.3,2.8    c20.7-0.1,36.8-2.5,56.7-7.9c18.1-11.4,43.3-17,66.6-18.5c12.2-0.9,54.6-1.3,62.2,10.7c-0.3,2.7-0.1,5.2,1.5,7.5    c2,2.9,5.6,4.4,9,3.8c6.1-1,8.9-7,7.4-12.6c-1.7-6.4-7.9-10.7-13.6-13.2c-26.4-11.8-58.9-10.3-91.9-8.8c-21.3,1-42.7,1.9-63-0.6    c-1.5,8.3-8.7,12.4-16.3,16.6c-7.7,4.3-15.3,8.8-17.8,17.9c9.3,0.2,18.9-0.5,25.2-1.7C874.1,279.8,875.1,279,876.3,279L876.3,279z     M826.6,277.8c1.4,0,2.4,1,2.6,2.3c4.3,1.4,10.4,2.1,16.8,2.5c2.4-10.2,10.7-15.2,19.1-19.9c6.9-3.9,15-8.2,15.3-17.4    c-6.7-5-20.7-7.6-20.7-17.2v-44c0-2.6-4.1-4.3-9.4-5.1c-4.8-0.7-10.1-0.6-14.9,0c-5.9,0.9-10.6,2.6-10.6,5v42.2    c0,7.9-9.8,12-14,18.7v26.5c7.6,12.8,20.5,16.1,34.5,16.3c0.1-1,0.1-1.9,0.3-2.8c-6.6-0.3-12.7-1.1-17.2-2.6    c-0.5,0.4-1.1,0.7-1.8,0.7c-1.5,0-2.6-1.2-2.6-2.7C824,279,825.1,277.8,826.6,277.8L826.6,277.8z M795.9,252.1l7.2-0.6v2.4    l-7.2,0.6V252.1z M795.9,256.9h7.2v2.4h-7.2V256.9z M795.9,261.6l7.2,0.6v2.4l-7.2-0.6V261.6z M792.2,259.5v-3.8    c-5.2-0.2-10.7-1.3-16.1-2.5c-11.3-2.4-22.6-4.8-31.4,2.2c-2.6,2.1,0.3,4.8,1,4.1c8.6-7.9,19.6-5.4,31-2.8    C781.9,258,787.2,259.3,792.2,259.5L792.2,259.5z M808.5,268.9v-21.7h-1.7v21.7H808.5z M804.4,249.5l-9.7,1.8v13.5l9.7,1.8V249.5z     M862.2,214.4c1.3-1.4,2.1-3,2.1-4.8v-42.8c0-5-5.5-8.2-12.6-9.7c-5.8-1.2-12.4-1.2-18.2,0c-7.1,1.5-12.6,4.7-12.6,9.7v42.8    c0,1.6,0.6,3,1.5,4.2v-29.7c0-3.9,5.6-6.4,12.7-7.4c5-0.7,10.6-0.8,15.6,0c6.5,1,11.4,3.4,11.4,7.5V214.4z" class="st2" id="XMLID_288_"/>
		<path d="M804.4,249.5l-9.7,1.8v13.5l9.7,1.8V249.5z M795.9,261.6l7.2,0.6v2.4l-7.2-0.6V261.6z     M795.9,252.1l7.2-0.6v2.4l-7.2,0.6V252.1z M795.9,256.9h7.2v2.4h-7.2V256.9z M808.5,268.9v-21.7h-1.7v21.7H808.5z M826.6,277.8    c1.4,0,2.4,1,2.6,2.3c4.3,1.4,10.4,2.1,16.8,2.5c2.4-10.2,10.7-15.2,19.1-19.9c6.9-3.9,15-8.2,15.3-17.4    c-6.7-5-20.7-7.6-20.7-17.2v-44c0-2.6-4.1-4.3-9.4-5.1c-4.8-0.7-10.1-0.6-14.9,0c-5.9,0.9-10.6,2.6-10.6,5v42.2    c0,7.9-9.8,12-14,18.7v26.5c7.6,12.8,20.5,16.1,34.5,16.3c0.1-1,0.1-1.9,0.3-2.8c-6.6-0.3-12.7-1.1-17.2-2.6    c-0.5,0.4-1.1,0.7-1.8,0.7c-1.5,0-2.6-1.2-2.6-2.7C824,279,825.1,277.8,826.6,277.8L826.6,277.8z" class="st3" id="XMLID_299_"/>
		<path d="M1069.8,113.3v42.8c0,3.3,1.7,6,4.5,8v10.5c0,7.4-15.4,11.7-20.7,16c0,0.5,0,1.1,0,1.6    c-20.1,2.5-41.5,1.6-62.7,0.6c-33.3-1.5-66.1-3-93,9.1c-6.4,2.9-13.1,7.6-15,14.8c-1.9,7,1.9,14.4,9.3,15.6    c4.4,0.7,8.9-1.1,11.4-4.8c1.5-2.1,2.2-4.9,2-8.2c5-6.8,30.7-10.9,59.6-9c21.9,1.5,47.1,6.6,65.9,18.4c20.1,5.4,38.1,8,58.9,8    c15.7,0,29.7-3.6,38-18.1v-0.9h4.1v-2.2l12.1-2.3v-4.9c5.3-0.2,10.8-1.4,16.1-2.7c10.8-2.5,21.2-5,29.1,2.4c2.8,2.6,9.2-3.7,3.8-8    c-9.7-7.8-21.6-5.2-33.4-2.7c-5.3,1.2-10.6,2.3-15.6,2.5v-4l-12.1-2.3v-2.2h-4.1v-0.4c-3.7-6.3-14-11.9-14-18.1v-9.2    c2.5-2,3.9-4.5,3.9-7.6v-42.8c0-6.3-6.3-10.3-14.5-12c-6.1-1.3-13-1.3-19.2,0C1076.1,103,1069.8,106.9,1069.8,113.3L1069.8,113.3z     M1060.1,225.5c-1.5,0-2.6,1.2-2.6,2.7c0,1.5,1.2,2.6,2.6,2.6c0.8,0,1.6-0.4,2-1c8.3,1.6,17.9,2,26.2,1.7c0.1,1,0.2,1.8,0.3,2.8    c-20.7-0.1-36.8-2.5-56.7-7.8c-18.1-11.4-43.4-17-66.6-18.6c-12.2-0.8-54.6-1.3-62.2,10.8c0.3,2.7,0.1,5.1-1.5,7.4    c-2,3-5.6,4.4-9.1,3.8c-6-1-8.9-7-7.4-12.6c1.7-6.4,7.9-10.7,13.6-13.2c26.4-11.8,58.9-10.3,91.9-8.8c21.3,1,42.7,1.9,63-0.6    c1.5,8.3,8.7,12.4,16.3,16.6c7.7,4.4,15.3,8.8,17.8,17.9c-9.3,0.2-18.9-0.5-25.2-1.7C1062.4,226.3,1061.3,225.5,1060.1,225.5    L1060.1,225.5z M1109.8,224.3c-1.4,0-2.4,1-2.6,2.3c-4.3,1.4-10.4,2.1-16.8,2.4c-2.3-10.1-10.7-15.2-19.1-19.9    c-6.9-3.9-15-8.2-15.3-17.4c6.7-5,20.7-7.6,20.7-17.2v-44c0-2.6,4.1-4.3,9.4-5.1c4.8-0.7,10.1-0.6,14.9,0.1    c5.9,0.9,10.6,2.6,10.6,5v42.2c0,8,9.8,12,14,18.7V218c-7.5,12.9-20.5,16.1-34.4,16.3c-0.1-1-0.1-1.9-0.3-2.9    c6.6-0.3,12.7-1.1,17.2-2.6c0.5,0.4,1.1,0.7,1.8,0.7c1.5,0,2.6-1.2,2.6-2.6C1112.5,225.5,1111.3,224.3,1109.8,224.3L1109.8,224.3z     M1140.5,198.5l-7.2-0.6v2.4l7.2,0.6V198.5z M1140.5,203.3h-7.2v2.4h7.2V203.3z M1140.5,208.1l-7.2,0.6v2.4l7.2-0.6V208.1z     M1144.2,205.9v-3.7c5.2-0.2,10.7-1.3,16.1-2.5c11.3-2.4,22.6-4.8,31.4,2.2c2.6,2.1-0.3,4.9-1,4.2c-8.6-7.9-19.6-5.4-31-2.8    C1154.5,204.5,1149.2,205.8,1144.2,205.9L1144.2,205.9z M1127.9,215.4v-21.7h1.7v21.7H1127.9z M1132.1,196l9.7,1.8v13.5l-9.7,1.8    V196z M1074.2,160.9c-1.3-1.4-2.1-3-2.1-4.8v-42.8c0-4.9,5.5-8.2,12.6-9.7c5.7-1.2,12.4-1.2,18.2,0c7,1.5,12.6,4.7,12.6,9.7v42.8    c0,1.6-0.6,3-1.6,4.2v-29.7c0-3.8-5.6-6.4-12.7-7.4c-5-0.7-10.6-0.8-15.6-0.1c-6.5,1-11.4,3.4-11.4,7.5V160.9z" class="st2" id="XMLID_306_"/>
		<path d="M1132.1,196l9.7,1.8v13.5l-9.7,1.8V196z M1140.5,208.1l-7.2,0.6v2.4l7.2-0.6V208.1z     M1140.5,198.5l-7.2-0.6v2.4l7.2,0.6V198.5z M1140.5,203.3h-7.2v2.4h7.2V203.3z M1127.9,215.4v-21.7h1.7v21.7H1127.9z     M1109.8,224.3c-1.4,0-2.4,1-2.6,2.3c-4.3,1.4-10.4,2.1-16.8,2.4c-2.3-10.1-10.7-15.2-19.1-19.9c-6.9-3.9-15-8.2-15.3-17.4    c6.7-5,20.7-7.6,20.7-17.2v-44c0-2.6,4.1-4.3,9.4-5.1c4.8-0.7,10.1-0.6,14.9,0.1c5.9,0.9,10.6,2.6,10.6,5v42.2c0,8,9.8,12,14,18.7    V218c-7.5,12.9-20.5,16.1-34.4,16.3c-0.1-1-0.1-1.9-0.3-2.9c6.6-0.3,12.7-1.1,17.2-2.6c0.5,0.4,1.1,0.7,1.8,0.7    c1.5,0,2.6-1.2,2.6-2.6C1112.5,225.5,1111.3,224.3,1109.8,224.3L1109.8,224.3z" class="st3" id="XMLID_317_"/>
		<path d="M1074.2,160.9c-1.3-1.4-2.1-3-2.1-4.8v-42.8c0-4.9,5.5-8.2,12.6-9.7c5.7-1.2,12.4-1.2,18.2,0    c7,1.5,12.6,4.7,12.6,9.7v42.8c0,1.6-0.6,3-1.6,4.2v-29.7c0-3.8-5.6-6.4-12.7-7.4c-5-0.7-10.6-0.8-15.6-0.1    c-6.5,1-11.4,3.4-11.4,7.5V160.9z M1144.2,205.9v-3.7c5.2-0.2,10.7-1.3,16.1-2.5c11.3-2.4,22.6-4.8,31.4,2.2    c2.6,2.1-0.3,4.9-1,4.2c-8.6-7.9-19.6-5.4-31-2.8C1154.5,204.5,1149.2,205.8,1144.2,205.9L1144.2,205.9z M1060.1,225.5    c-1.5,0-2.6,1.2-2.6,2.7c0,1.5,1.2,2.6,2.6,2.6c0.8,0,1.6-0.4,2-1c8.3,1.6,17.9,2,26.2,1.7c0.1,1,0.2,1.8,0.3,2.8    c-20.7-0.1-36.8-2.5-56.7-7.8c-18.1-11.4-43.4-17-66.6-18.6c-12.2-0.8-54.6-1.3-62.2,10.8c0.3,2.7,0.1,5.1-1.5,7.4    c-2,3-5.6,4.4-9.1,3.8c-6-1-8.9-7-7.4-12.6c1.7-6.4,7.9-10.7,13.6-13.2c26.4-11.8,58.9-10.3,91.9-8.8c21.3,1,42.7,1.9,63-0.6    c1.5,8.3,8.7,12.4,16.3,16.6c7.7,4.4,15.3,8.8,17.8,17.9c-9.3,0.2-18.9-0.5-25.2-1.7C1062.4,226.3,1061.3,225.5,1060.1,225.5    L1060.1,225.5z" class="st4" id="XMLID_324_"/>
		<path d="M862.2,214.4c1.3-1.4,2.1-3,2.1-4.8v-42.8c0-5-5.5-8.2-12.6-9.7c-5.8-1.2-12.4-1.2-18.2,0    c-7.1,1.5-12.6,4.7-12.6,9.7v42.8c0,1.6,0.6,3,1.5,4.2v-29.7c0-3.9,5.6-6.4,12.7-7.4c5-0.7,10.6-0.8,15.6,0    c6.5,1,11.4,3.4,11.4,7.5V214.4z M792.2,259.5v-3.8c-5.2-0.2-10.7-1.3-16.1-2.5c-11.3-2.4-22.6-4.8-31.4,2.2    c-2.6,2.1,0.3,4.8,1,4.1c8.6-7.9,19.6-5.4,31-2.8C781.9,258,787.2,259.3,792.2,259.5L792.2,259.5z M876.3,279    c1.5,0,2.6,1.2,2.6,2.6c0,1.5-1.2,2.7-2.6,2.7c-0.8,0-1.6-0.4-2-1c-8.3,1.6-17.9,2-26.2,1.7c-0.1,1-0.2,1.8-0.3,2.8    c20.7-0.1,36.8-2.5,56.7-7.9c18.1-11.4,43.3-17,66.6-18.5c12.2-0.9,54.6-1.3,62.2,10.7c-0.3,2.7-0.1,5.2,1.5,7.5    c2,2.9,5.6,4.4,9,3.8c6.1-1,8.9-7,7.4-12.6c-1.7-6.4-7.9-10.7-13.6-13.2c-26.4-11.8-58.9-10.3-91.9-8.8c-21.3,1-42.7,1.9-63-0.6    c-1.5,8.3-8.7,12.4-16.3,16.6c-7.7,4.3-15.3,8.8-17.8,17.9c9.3,0.2,18.9-0.5,25.2-1.7C874.1,279.8,875.1,279,876.3,279L876.3,279z" class="st4" id="XMLID_328_"/>
	</g>
</g>
<g id="Layer_5">
	<g id="XMLID_797_">
		<path d="M314.8,582.5L280.5,459c-1.8,1.9-4.3,3-7,3c-4.3,0-8-2.8-9.2-6.9h-8.3    c-1.6,0-2.9-1.3-2.9-2.9c0-1.6,1.3-2.9,2.9-2.9h8.4c0.3-1,0.8-1.9,1.4-2.7c-3.8-0.3-9-0.2-12.2-2.3c-15.6-0.9-45.1-6.7-47.6-24.9    c-0.8-5.8,3-9.4,8.7-9.2c35,1,62.4-13.7,94.4-23.9c15.8-5.1,26.1-3,31.3,0.9c2.8,2.1,5.2,5.5,4.4,9.2c-0.8,3.9-3.9,4.8-7.3,5.5    c-4.8,1.1-9.4,2-13.7,3.3c-13.1,10-17.2,27.4-31,35.4c1,1.6,1.7,3.4,2.1,5.2l37.7,131.8C329.4,584.8,321.3,587.2,314.8,582.5    L314.8,582.5z M303.3,417.2c-5.7,6.3-9.2,11.8-16.3,17.4C293.5,431.9,298.2,424.9,303.3,417.2L303.3,417.2z" class="st1" id="XMLID_991_"/>
		<path d="M330.3,392.8c2.3-0.5,4.9-0.9,5.5-3.7c0.5-2.7-1.4-5.2-3.5-6.7c-4.8-3.5-14.2-5.3-29.2-0.6    c-32.4,10.3-59.7,25-95.2,24c-4.2-0.1-6.9,2.2-6.3,6.5c2.7,20,46.2,26.2,62.9,21.2c9-2.7,18-9,27.9-22    C301.9,399,315,396.1,330.3,392.8L330.3,392.8z M274.4,431.7c-2.2,1.3-4.4,2.3-6.6,3.2c1.4,0.2,3.1,0.3,5.1,0.2    c22-1.5,25.1-21.3,38.3-34.5c-2.9,1.1-5.5,2.5-8,4.2C296,415.1,288.4,430.9,274.4,431.7L274.4,431.7z M283.9,434.9    c-4.2,1.6-7.9,2.3-11,2.5c-0.3,0-0.6,0-1,0.1c3.9,2.6,5.4,7.8,3.4,12l34.6,124.7c4.6,3.1,10.8,1.2,13.3-3.6l-37.5-130.9    C285.5,438.1,284.8,436.4,283.9,434.9L283.9,434.9z M263.8,436.3c-0.1,0-0.2-0.1-0.3-0.1c-1.9,0.5-3.8,0.8-5.7,1.1    c1.1,0.1,2.3,0.2,3.5,0.3C262,437,262.9,436.6,263.8,436.3L263.8,436.3z M260,448.2c1.1,2.7,3.7,4.5,6.7,4.5c4,0,7.2-3.2,7.2-7.2    c0-4-3.2-7.2-7.2-7.2c-2.8,0-5.4,1.6-6.6,4.2h2.8c0.9-1.2,2.3-1.8,3.8-1.8c2.7,0,4.9,2.2,4.9,4.9s-2.2,4.9-4.9,4.9    c-1.7,0-3.2-0.9-4.1-2.2H260z M267.1,445.6c0.1-0.1,0.1-0.2,0.1-0.3c0-0.1-0.1-0.2-0.1-0.3l0,0c-0.1-0.1-0.2-0.1-0.3-0.1h-17.6    c-0.2,0-0.4,0.2-0.4,0.5c0,0.2,0.2,0.4,0.4,0.4h17.6C266.9,445.8,267,445.7,267.1,445.6L267.1,445.6z" class="st4" id="XMLID_984_"/>
		<path d="M308,575.7l-34.3-123.6c-1.8,1.9-4.3,3-7,3c-4.3,0-8-2.8-9.2-6.9h-8.3    c-1.6,0-2.9-1.3-2.9-2.9c0-1.6,1.3-2.9,2.9-2.9h8.4c0.3-1,0.8-1.9,1.4-2.7c-3.8-0.3-9-0.2-12.2-2.3c-15.6-0.9-45.1-6.7-47.6-24.9    c-0.8-5.8,3-9.4,8.7-9.2c35,1,62.4-13.7,94.4-23.9c15.8-5.1,26.1-3,31.3,0.9c2.8,2.1,5.2,5.5,4.4,9.2c-0.8,3.9-3.9,4.8-7.3,5.5    c-4.8,1.1-9.4,2-13.7,3.3c-13.1,10-17.2,27.4-31,35.4c1,1.6,1.7,3.4,2.1,5.2L326,570.9C322.6,578,314.5,580.4,308,575.7L308,575.7    z M274.4,431.7c-2.2,1.3-4.4,2.3-6.6,3.2c1.4,0.2,3.1,0.3,5.1,0.2c22-1.5,25.1-21.3,38.3-34.5c-2.9,1.1-5.5,2.5-8,4.2    C296,415.1,288.4,430.9,274.4,431.7L274.4,431.7z M283.9,434.9c-4.2,1.6-7.9,2.3-11,2.5c-0.3,0-0.6,0-1,0.1    c3.9,2.6,5.4,7.8,3.4,12l34.6,124.7c4.6,3.1,10.8,1.2,13.3-3.6l-37.5-130.9C285.5,438.1,284.8,436.4,283.9,434.9L283.9,434.9z     M263.8,436.3c-0.1,0-0.2-0.1-0.3-0.1c-1.9,0.5-3.8,0.8-5.7,1.1c1.1,0.1,2.3,0.2,3.5,0.3C262,437,262.9,436.6,263.8,436.3    L263.8,436.3z M260,448.2c1.1,2.7,3.7,4.5,6.7,4.5c4,0,7.2-3.2,7.2-7.2c0-4-3.2-7.2-7.2-7.2c-2.8,0-5.4,1.6-6.6,4.2h2.8    c0.9-1.2,2.3-1.8,3.8-1.8c2.7,0,4.9,2.2,4.9,4.9s-2.2,4.9-4.9,4.9c-1.7,0-3.2-0.9-4.1-2.2H260z M267.1,445.6    c0.1-0.1,0.1-0.2,0.1-0.3c0-0.1-0.1-0.2-0.1-0.3l0,0c-0.1-0.1-0.2-0.1-0.3-0.1h-17.6c-0.2,0-0.4,0.2-0.4,0.5    c0,0.2,0.2,0.4,0.4,0.4h17.6C266.9,445.8,267,445.7,267.1,445.6L267.1,445.6z M296.5,410.4c-5.7,6.3-9.2,11.8-16.3,17.4    C286.7,425.1,291.4,418.1,296.5,410.4L296.5,410.4z M330.3,392.8c2.3-0.5,4.9-0.9,5.5-3.7c0.5-2.7-1.4-5.2-3.5-6.7    c-4.8-3.5-14.2-5.3-29.2-0.6c-32.4,10.3-59.7,25-95.2,24c-4.2-0.1-6.9,2.2-6.3,6.5c2.7,20,46.2,26.2,62.9,21.2c9-2.7,18-9,27.9-22    C301.9,399,315,396.1,330.3,392.8L330.3,392.8z" class="st2" id="XMLID_799_"/>
		<path d="M330.3,392.8c-38-12.3-98.2,26-128.7,19.5c0.5,3.7,2.4,7,5.4,9.8c24.6-4.2,57-21.1,83.5-25    c-19.8,4.7-50.8,25.1-72.9,31.8c14.9,6.5,36.3,7.9,46.9,4.7c9-2.7,18-9,27.9-22C301.9,399,315,396.1,330.3,392.8L330.3,392.8z" class="st3" id="XMLID_798_"/>
	</g>
</g>
<g id="Layer_6">
	<g id="XMLID_352_">
		<path d="M573.6,405.8c2.2-0.1,4.2-1.3,4.8-2.9c0.3,1.6,2.4,3.2,4,3.5c2.2,0.2,4.3-0.7,5.1-2.2    c0.1,1.6,1.9,3.4,3.5,4c2.2,0.5,4.4-0.1,5.4-1.5c-0.1,1.6,1.5,3.7,2.9,4.4c2.1,0.8,4.3,0.5,5.5-0.7c-0.3,1.6,1,3.9,2.3,4.8    c1.9,1.1,4.2,1.1,5.5,0.1c-0.5,1.5,0.4,3.9,1.6,5c1.8,1.4,4.1,1.7,5.5,0.9c-0.7,1.4-0.2,3.9,0.8,5.2c1.6,1.6,3.8,2.2,5.3,1.6    c-1,1.3-0.7,3.9,0.1,5.3c1.3,1.8,3.4,2.7,5.1,2.3c-1.1,1.2-1.3,3.8-0.6,5.2c1.1,2,3,3.2,4.7,3c-1.3,1-1.8,3.6-1.4,5.1    c0.8,2.1,2.5,3.6,4.2,3.6c-1.4,0.8-2.2,3.3-2,4.9c0.5,2.1,2,3.9,3.6,4.2c-1.5,0.6-2.7,2.9-2.7,4.6c0.2,2.2,1.5,4.1,3.1,4.7    c-1.6,0.4-3.1,2.5-3.3,4.1c-0.1,2.2,0.9,4.3,2.4,5.1c-1.6,0.2-3.4,2.1-3.9,3.6c-0.4,2.2,0.3,4.4,1.6,5.3c-1.6,0-3.6,1.6-4.3,3.1    c-0.7,2.1-0.3,4.4,0.9,5.5c-1.6-0.3-3.8,1.1-4.7,2.5c-1,2-1,4.3,0.1,5.5c-1.6-0.5-3.9,0.5-5,1.8c-1.3,1.8-1.5,4.1-0.7,5.5    c-1.5-0.7-4,0-5.2,1.1c-1.5,1.6-2.1,3.8-1.4,5.4c-1.4-0.9-3.9-0.6-5.3,0.3c-1.7,1.4-2.6,3.5-2.2,5.1c-1.2-1.1-3.8-1.1-5.3-0.4    c-1.9,1.2-3.1,3.1-2.9,4.8c-1-1.2-3.6-1.7-5.1-1.2c-2.1,0.9-3.5,2.7-3.5,4.4c-0.9-1.4-3.4-2.1-5-1.9c-2.1,0.5-3.8,2.1-4,3.8    c-0.7-1.5-3-2.6-4.7-2.6c-2.2,0.3-4.1,1.6-4.5,3.2c-0.4-1.5-2.6-3-4.2-3.2c-2.2,0-4.2,1.1-4.9,2.6c-0.2-1.6-2.2-3.3-3.8-3.7    c-2.2-0.3-4.3,0.4-5.3,1.8c0-1.6-1.7-3.6-3.2-4.2c-2.1-0.6-4.4-0.2-5.5,1.1c0.2-1.6-1.2-3.8-2.6-4.6c-2-0.9-4.3-0.8-5.5,0.3    c0.4-1.6-0.7-3.9-1.9-4.9c-1.9-1.2-4.2-1.4-5.6-0.5c0.6-1.5-0.1-4-1.2-5.2c-1.7-1.5-3.9-1.9-5.4-1.2c0.8-1.4,0.4-3.9-0.5-5.3    c-1.5-1.7-3.6-2.5-5.2-2c1-1.2,1-3.8,0.3-5.3c-1.2-1.9-3.3-3-4.9-2.7c1.2-1.1,1.5-3.7,1-5.2c-0.9-2-2.8-3.4-4.4-3.4    c1.3-0.9,2-3.4,1.7-5c-0.6-2.1-2.3-3.7-3.9-3.9c1.4-0.7,2.4-3.1,2.4-4.7c-0.3-2.2-1.8-4-3.4-4.4c1.5-0.5,2.9-2.8,3-4.4    c0-2.2-1.2-4.2-2.7-4.9c1.6-0.3,3.2-2.3,3.6-3.9c0.3-2.2-0.6-4.3-2-5.2c1.6-0.1,3.5-1.9,4.1-3.4c0.6-2.1,0-4.4-1.3-5.4    c1.6,0.1,3.7-1.4,4.5-2.8c0.8-2,0.6-4.4-0.5-5.5c1.6,0.4,3.9-0.8,4.9-2.1c1.2-1.9,1.3-4.2,0.3-5.5c1.5,0.6,3.9-0.2,5.1-1.4    c1.4-1.7,1.8-4,1.1-5.5c1.4,0.8,3.9,0.3,5.2-0.6c1.6-1.5,2.3-3.7,1.8-5.3c1.3,1,3.9,0.9,5.3,0.1c1.8-1.3,2.9-3.3,2.5-5    c1.2,1.2,3.7,1.4,5.2,0.8c2-1,3.3-2.9,3.2-4.6c1,1.3,3.5,1.9,5.1,1.5c2.1-0.7,3.6-2.4,3.8-4.1c0.8,1.4,3.2,2.4,4.8,2.2    c2.2-0.4,3.9-1.9,4.3-3.5C569.8,404.5,572,405.7,573.6,405.8L573.6,405.8z M596,514.1c3.2-1.7,2.3-4.8,0.4-7.5l-1.5-2    c-1-1.4-3.3-1.9-4.8-1.1c-10.2,4.8-22.3,4.8-32.4,0c-1.6-0.8-3.8-0.3-4.9,1.1l-1.4,2c-2.9,4-1.7,6.5,0.4,7.5    C565.5,521.1,582.1,521.1,596,514.1L596,514.1z M623.2,461.7c-0.4-2.8-4.7-3.4-6.9-2.7l-2.3,0.8c-1.7,0.5-2.8,2.6-2.6,4.3    c1.5,11.3-2.2,22.8-10,31.1c-2.3,2.9-0.8,4.6,1,7c1.4,2,5.2,4,7.1,2C620.4,492.9,625.4,477.3,623.2,461.7L623.2,461.7z     M582.2,419.4c-2.8-0.5-4.6,3.4-4.6,5.8v2.5c0,1.8,1.5,3.5,3.2,3.8c11.2,2.1,20.8,9.2,26.2,19.2c1.7,2.8,3,2.5,6.9,1.2    c0.6-0.2,1.4-0.5,2-1c1.3-0.9,2.9-3.4,2-5.2C610.8,431.8,597.6,422,582.2,419.4L582.2,419.4z M529.7,445.6c-1.3,2.5,1.7,5.5,4,6.3    l2.3,0.7c1.7,0.6,3.7-0.4,4.6-1.9c5.4-10,15-17.1,26.2-19.2c1.7-0.3,3.3-2,3.3-3.8v-2.5c0-2.4-1.9-6.3-4.7-5.8    C550.1,422,536.9,431.8,529.7,445.6L529.7,445.6z M538.2,504.2c2,2,5.7,0,7.1-2l1.4-2c1.9-2.6,0.2-4.4-0.4-5    c-7.8-8.3-11.5-19.7-10-31.1c0.3-1.9-0.7-3.7-2.5-4.3l-2.3-0.8c-2.3-0.7-6.5-0.1-6.9,2.7C522.3,477.3,527.2,492.9,538.2,504.2    L538.2,504.2z" class="st1" id="XMLID_354_"/>
		<path d="M566.8,399c2.2-0.1,4.2-1.3,4.8-2.9c0.3,1.6,2.4,3.2,4,3.5c2.2,0.2,4.3-0.7,5.1-2.2    c0.1,1.6,1.9,3.4,3.5,4c2.2,0.5,4.4-0.1,5.4-1.5c-0.1,1.6,1.5,3.7,2.9,4.4c2.1,0.8,4.3,0.5,5.5-0.7c-0.3,1.6,1,3.9,2.3,4.8    c1.9,1.1,4.2,1.1,5.5,0.1c-0.5,1.5,0.4,3.9,1.6,5c1.8,1.4,4.1,1.7,5.5,0.9c-0.7,1.4-0.2,3.9,0.8,5.2c1.6,1.6,3.8,2.2,5.3,1.6    c-1,1.3-0.7,3.9,0.1,5.3c1.3,1.8,3.4,2.7,5.1,2.3c-1.1,1.2-1.3,3.8-0.6,5.2c1.1,2,3,3.2,4.7,3c-1.3,1-1.8,3.6-1.4,5.1    c0.8,2.1,2.5,3.6,4.2,3.6c-1.4,0.8-2.2,3.3-2,4.9c0.5,2.1,2,3.9,3.6,4.2c-1.5,0.6-2.7,2.9-2.7,4.6c0.2,2.2,1.5,4.1,3.1,4.7    c-1.6,0.4-3.1,2.5-3.3,4.1c-0.1,2.2,0.9,4.3,2.4,5.1c-1.6,0.2-3.4,2.1-3.9,3.6c-0.4,2.2,0.3,4.4,1.6,5.3c-1.6,0-3.6,1.6-4.3,3.1    c-0.7,2.1-0.3,4.4,0.9,5.5c-1.6-0.3-3.8,1.1-4.7,2.5c-1,2-1,4.3,0.1,5.5c-1.6-0.5-3.9,0.5-5,1.8c-1.3,1.8-1.5,4.1-0.7,5.5    c-1.5-0.7-4,0-5.2,1.1c-1.5,1.6-2.1,3.8-1.4,5.4c-1.4-0.9-3.9-0.6-5.3,0.3c-1.7,1.4-2.6,3.5-2.2,5.1c-1.2-1.1-3.8-1.1-5.3-0.4    c-1.9,1.2-3.1,3.1-2.9,4.8c-1-1.2-3.6-1.7-5.1-1.2c-2.1,0.9-3.5,2.7-3.5,4.4c-0.9-1.4-3.4-2.1-5-1.9c-2.1,0.5-3.8,2.1-4,3.8    c-0.7-1.5-3-2.6-4.7-2.6c-2.2,0.3-4.1,1.6-4.5,3.2c-0.4-1.5-2.6-3-4.2-3.2c-2.2,0-4.2,1.1-4.9,2.6c-0.2-1.6-2.2-3.3-3.8-3.7    c-2.2-0.3-4.3,0.4-5.3,1.8c0-1.6-1.7-3.6-3.2-4.2c-2.1-0.6-4.4-0.2-5.5,1.1c0.2-1.6-1.2-3.8-2.6-4.6c-2-0.9-4.3-0.8-5.5,0.3    c0.4-1.6-0.7-3.9-1.9-4.9c-1.9-1.2-4.2-1.4-5.6-0.5c0.6-1.5-0.1-4-1.2-5.2c-1.7-1.5-3.9-1.9-5.4-1.2c0.8-1.4,0.4-3.9-0.5-5.3    c-1.5-1.7-3.6-2.5-5.2-2c1-1.2,1-3.8,0.3-5.3c-1.2-1.9-3.3-3-4.9-2.7c1.2-1.1,1.5-3.7,1-5.2c-0.9-2-2.8-3.4-4.4-3.4    c1.3-0.9,2-3.4,1.7-5c-0.6-2.1-2.3-3.7-3.9-3.9c1.4-0.7,2.4-3.1,2.4-4.7c-0.3-2.2-1.8-4-3.4-4.4c1.5-0.5,2.9-2.8,3-4.4    c0-2.2-1.2-4.2-2.7-4.9c1.6-0.3,3.2-2.3,3.6-3.9c0.3-2.2-0.6-4.3-2-5.2c1.6-0.1,3.5-1.9,4.1-3.4c0.6-2.1,0-4.4-1.3-5.4    c1.6,0.1,3.7-1.4,4.5-2.8c0.8-2,0.6-4.4-0.5-5.5c1.6,0.4,3.9-0.8,4.9-2.1c1.2-1.9,1.3-4.2,0.3-5.5c1.5,0.6,3.9-0.2,5.1-1.4    c1.4-1.7,1.8-4,1.1-5.5c1.4,0.8,3.9,0.3,5.2-0.6c1.6-1.5,2.3-3.7,1.8-5.3c1.3,1,3.9,0.9,5.3,0.1c1.8-1.3,2.9-3.3,2.5-5    c1.2,1.2,3.7,1.4,5.2,0.8c2-1,3.3-2.9,3.2-4.6c1,1.3,3.5,1.9,5.1,1.5c2.1-0.7,3.6-2.4,3.8-4.1c0.8,1.4,3.2,2.4,4.8,2.2    c2.2-0.4,3.9-1.9,4.3-3.5C563,397.7,565.2,398.9,566.8,399L566.8,399z M567,403c-32.6,0-59,26.5-59,59.2c0,32.7,26.4,59.2,59,59.2    c32.6,0,59.1-26.5,59.1-59.2C626.1,429.5,599.7,403,567,403L567,403z M567,404.6c31.6,0,57.3,25.7,57.3,57.4    c0,31.7-25.6,57.4-57.3,57.4c-31.6,0-57.2-25.7-57.2-57.4C509.8,430.3,535.4,404.6,567,404.6L567,404.6z M567,406.9    c-30.5,0-55.1,24.7-55.1,55.3c0,30.6,24.7,55.3,55.1,55.3c30.5,0,55.2-24.7,55.2-55.3C622.2,431.7,597.5,406.9,567,406.9    L567,406.9z M567,432.2c-16.4,0-29.8,13.3-29.8,29.8c0,16.5,13.3,29.8,29.8,29.8c16.5,0,29.8-13.4,29.8-29.8    C596.8,445.5,583.5,432.2,567,432.2L567,432.2z M590.2,509.5c-14.5,7.2-31.9,7.2-46.4,0c-2.1-0.8-6-4.4-1.2-11l1.4-2    c1.7-2.4,5.2-3.2,7.8-1.9c9.5,4.6,20.9,4.6,30.4,0c2.6-1.3,6.1-0.5,7.8,1.9l1.4,2C596.2,505.1,592.1,508.4,590.2,509.5    L590.2,509.5z M589.2,507.3c3.2-1.7,2.3-4.8,0.4-7.5l-1.5-2c-1-1.4-3.3-1.9-4.8-1.1c-10.2,4.8-22.3,4.8-32.4,0    c-1.6-0.8-3.8-0.3-4.9,1.1l-1.4,2c-2.9,4-1.7,6.5,0.4,7.5C558.8,514.2,575.3,514.2,589.2,507.3L589.2,507.3z M618.8,454.6    c2.3,16.3-2.9,32.7-14.4,44.5c-3.1,3.2-8.5,1-10.8-2.2c-2.6-3.5-4.1-6.2-0.8-10c7.3-7.8,10.7-18.5,9.4-29.2    c-0.3-2.9,1.4-6,4.2-6.9l2.3-0.7C612.5,448.8,618.1,450.1,618.8,454.6L618.8,454.6z M616.4,454.9c-0.4-2.8-4.7-3.4-6.9-2.7    l-2.3,0.8c-1.7,0.5-2.8,2.6-2.6,4.3c1.5,11.3-2.2,22.8-10,31.1c-2.3,2.9-0.8,4.6,1,7c1.4,2,5.2,4,7.1,2    C613.6,486.1,618.6,470.5,616.4,454.9L616.4,454.9z M575.8,410.2c16.1,2.8,29.9,13,37.5,27.5c1.4,2.8-0.4,6.6-2.8,8.3    c-0.9,0.6-1.9,1.1-2.7,1.3c-5.2,1.7-7.8,1.1-9.7-2.3c-5.1-9.4-14.1-16.1-24.6-18c-2.9-0.5-5.2-3.2-5.2-6.2v-2.5    C568.4,414.4,571.5,409.5,575.8,410.2L575.8,410.2z M575.4,412.6c-2.8-0.5-4.6,3.4-4.6,5.8v2.5c0,1.8,1.5,3.5,3.2,3.8    c11.2,2.1,20.8,9.2,26.2,19.2c1.7,2.8,3,2.5,6.9,1.2c0.6-0.2,1.4-0.5,2-1c1.3-0.9,2.9-3.4,2-5.2C604,425,590.8,415.2,575.4,412.6    L575.4,412.6z M520.8,437.7c7.5-14.5,21.4-24.8,37.5-27.5c4.3-0.7,7.4,4.2,7.4,8.2v2.5c0,3-2.4,5.6-5.2,6.2    c-10.5,2-19.5,8.7-24.5,18c-1.4,2.6-4.7,4-7.4,3.1l-2.3-0.8C522.4,446.1,518.7,441.6,520.8,437.7L520.8,437.7z M522.9,438.8    c-1.3,2.5,1.7,5.5,4,6.3l2.3,0.7c1.7,0.6,3.7-0.4,4.6-1.9c5.4-10,15-17.1,26.2-19.2c1.7-0.3,3.3-2,3.3-3.8v-2.5    c0-2.4-1.9-6.3-4.7-5.8C543.3,415.2,530.1,425,522.9,438.8L522.9,438.8z M529.7,499.1c-11.5-11.8-16.7-28.2-14.4-44.5    c0.6-4.4,6.2-5.8,10-4.6l2.3,0.7c3,1,4.6,3.8,4.2,6.9c-1.3,10.6,2.1,21.3,9.4,29.2c2.2,2.3,2.7,5.2,0.6,8.1l-1.4,2    C538.1,500,532.7,502.2,529.7,499.1L529.7,499.1z M531.4,497.4c2,2,5.7,0,7.1-2l1.4-2c1.9-2.6,0.2-4.4-0.4-5    c-7.8-8.3-11.5-19.7-10-31.1c0.3-1.9-0.7-3.7-2.5-4.3l-2.3-0.8c-2.3-0.7-6.5-0.1-6.9,2.7C515.5,470.5,520.5,486.1,531.4,497.4    L531.4,497.4z M567,442.6c10.7,0,19.4,8.7,19.4,19.4c0,10.7-8.7,19.4-19.4,19.4s-19.4-8.7-19.4-19.4    C547.7,451.3,556.3,442.6,567,442.6L567,442.6z M567,429.7c17.8,0,32.2,14.4,32.2,32.3c0,17.8-14.4,32.3-32.2,32.3    c-17.8,0-32.2-14.4-32.2-32.3C534.9,444.2,549.3,429.7,567,429.7L567,429.7z" class="st2" id="XMLID_361_"/>
		<path d="M567,403c-32.6,0-59,26.5-59,59.2c0,32.7,26.4,59.2,59,59.2c32.6,0,59.1-26.5,59.1-59.2    C626.1,429.5,599.7,403,567,403L567,403z M567,432.2c-16.4,0-29.8,13.3-29.8,29.8c0,16.5,13.3,29.8,29.8,29.8    c16.5,0,29.8-13.4,29.8-29.8C596.8,445.5,583.5,432.2,567,432.2L567,432.2z M567,442.6c10.7,0,19.4,8.7,19.4,19.4    c0,10.7-8.7,19.4-19.4,19.4s-19.4-8.7-19.4-19.4C547.7,451.3,556.3,442.6,567,442.6L567,442.6z M567,406.9    c-30.5,0-55.1,24.7-55.1,55.3c0,30.6,24.7,55.3,55.1,55.3c30.5,0,55.2-24.7,55.2-55.3C622.2,431.7,597.5,406.9,567,406.9    L567,406.9z M520.8,437.7c7.5-14.5,21.4-24.8,37.5-27.5c4.3-0.7,7.4,4.2,7.4,8.2v2.5c0,3-2.4,5.6-5.2,6.2    c-10.5,2-19.5,8.7-24.5,18c-1.4,2.6-4.7,4-7.4,3.1l-2.3-0.8C522.4,446.1,518.7,441.6,520.8,437.7L520.8,437.7z M575.8,410.2    c16.1,2.8,29.9,13,37.5,27.5c1.4,2.8-0.4,6.6-2.8,8.3c-0.9,0.6-1.9,1.1-2.7,1.3c-5.2,1.7-7.8,1.1-9.7-2.3    c-5.1-9.4-14.1-16.1-24.6-18c-2.9-0.5-5.2-3.2-5.2-6.2v-2.5C568.4,414.4,571.5,409.5,575.8,410.2L575.8,410.2z M618.8,454.6    c2.3,16.3-2.9,32.7-14.4,44.5c-3.1,3.2-8.5,1-10.8-2.2c-2.6-3.5-4.1-6.2-0.8-10c7.3-7.8,10.7-18.5,9.4-29.2    c-0.3-2.9,1.4-6,4.2-6.9l2.3-0.7C612.5,448.8,618.1,450.1,618.8,454.6L618.8,454.6z M590.2,509.5c-14.5,7.2-31.9,7.2-46.4,0    c-2.1-0.8-6-4.4-1.2-11l1.4-2c1.7-2.4,5.2-3.2,7.8-1.9c9.5,4.6,20.9,4.6,30.4,0c2.6-1.3,6.1-0.5,7.8,1.9l1.4,2    C596.2,505.1,592.1,508.4,590.2,509.5L590.2,509.5z M529.7,499.1c-11.5-11.8-16.7-28.2-14.4-44.5c0.6-4.4,6.2-5.8,10-4.6l2.3,0.7    c3,1,4.6,3.8,4.2,6.9c-1.3,10.6,2.1,21.3,9.4,29.2c2.2,2.3,2.7,5.2,0.6,8.1l-1.4,2C538.1,500,532.7,502.2,529.7,499.1L529.7,499.1    z M567,429.7c17.8,0,32.2,14.4,32.2,32.3c0,17.8-14.4,32.3-32.2,32.3c-17.8,0-32.2-14.4-32.2-32.3    C534.9,444.2,549.3,429.7,567,429.7L567,429.7z M567,404.6c31.6,0,57.3,25.7,57.3,57.4c0,31.7-25.6,57.4-57.3,57.4    c-31.6,0-57.2-25.7-57.2-57.4C509.8,430.3,535.4,404.6,567,404.6L567,404.6z" class="st3" id="XMLID_379_"/>
		<path d="M567,445.8c9,0,16.3,7.3,16.3,16.3c0,9-7.3,16.3-16.3,16.3c-9,0-16.3-7.3-16.3-16.3    C550.7,453.2,558,445.8,567,445.8L567,445.8z" class="st4" id="XMLID_390_"/>
	</g>
</g>
<g id="Layer_7">
	<g id="XMLID_464_">
		<path d="M840.2,415.2h0.1c4.1,0,6.9,1.4,9.5,2.6c2,1,4,1.9,6.2,1.9c2.3,0,4.2-0.9,6.2-1.9    c2.6-1.2,5.4-2.6,9.5-2.6h0.1c4.1,0,7,1.4,9.6,2.6c2,1,3.9,1.9,6.2,1.9s4.2-0.9,6.2-1.9c2.6-1.2,5.5-2.6,9.6-2.6h0.1    c4.1,0,6.9,1.4,9.5,2.6c2,1,3.9,1.9,6.2,1.9c2.3,0,4.2-0.9,6.2-1.9c2.6-1.2,5.4-2.6,9.5-2.6h0.1c4.2,0,7,1.4,9.6,2.6    c2.1,1,4,1.9,6.2,1.9s4.2-0.9,6.2-1.9c2.6-1.2,5.5-2.6,9.6-2.6h0.1c4.1,0,6.9,1.4,9.5,2.6c2,1,4,1.9,6.2,1.9    c2.2,0,4.2-0.9,6.2-1.9c2.6-1.2,5.4-2.6,9.5-2.6h0.1c4.1,0,7,1.4,9.6,2.6c2,1,4,1.9,6.2,1.9c2.3,0,4.2-0.9,6.2-1.9    c2.6-1.2,5.5-2.6,9.6-2.6h0.1c4.1,0,6.9,1.4,9.5,2.6c2,1,3.9,1.9,6.2,1.9c2.3,0,4.2-0.9,6.2-1.9c2.6-1.2,5.4-2.6,9.5-2.6l0,0h0.1    l0,0h0.2l0,0h0.1l0,0h0.1h0h0.1l0.1,0h0h0h0.1c1,0.1,1.9,0.3,2.8,0.6h0l0.1,0h0c0.1,0,0.1,0.1,0.2,0.1h0l0,0l0.1,0v0l0.1,0h0    c1.1,0.4,2,1,3,1.8l0,0l0.1,0.1h0l0.1,0.1l0,0l0.1,0.1l0,0l0.1,0.1l0,0l0.1,0.1v0l0.1,0.1l0,0l0.1,0.1l0,0l0.1,0.1l0,0    c3,2.9,4,5.9,5,8.6c0.8,2.1,1.5,4.2,3.1,5.8c1.6,1.6,3.6,2.3,5.7,3.1c2.7,1,5.7,2,8.6,5c0.1,0.1,0.1,0.1,0.2,0.2l0.1,0.1l0,0    l0.1,0.1l0,0l0.1,0.1l0,0l0.1,0.1l0,0l0.1,0.1v0l0.1,0.1l0,0c0.7,0.9,1.3,1.8,1.7,2.8v0l0,0l0,0.1v0l0.1,0.1l0,0    c0.4,1.1,0.7,2.3,0.7,3.5l0,0l0,0.1v0.1v0v0.1l0,0v0.1l0,0v0.2l0,0c0,0.2,0,0.3,0,0.5c-0.1,3.9-1.4,6.6-2.6,9.1    c-1,2.1-1.9,4-1.9,6.3c0,2.3,0.9,4.2,1.9,6.2c1.2,2.6,2.5,5.4,2.6,9.5l0,0v0.1l0,0v0.1v0v0.1v0v0.1v0v0.1l0,0.1v0.1v0v0.1    c-0.1,1-0.3,1.9-0.6,2.8v0l0,0.1l0,0c0,0.1-0.1,0.2-0.1,0.2v0l0,0l0,0.1v0l-0.1,0.1v0l-0.1,0.1l0,0.1l0,0c-0.4,1-1,1.9-1.7,2.7    l0,0l-0.1,0.1l0,0l-0.1,0.1l0,0l-0.1,0.1l0,0l-0.1,0.1l0,0l-0.1,0.1v0l-0.1,0.1l0,0l-0.1,0.1l0,0l-0.1,0.1l0,0    c-2.9,2.9-5.9,4-8.6,5c-2.1,0.7-4.1,1.5-5.7,3.1c-1.6,1.6-2.3,3.6-3.1,5.7c-1,2.8-2,5.7-5,8.7l0,0l-0.1,0.1l0,0l-0.1,0.1l0,0    l-0.1,0.1c-0.1,0.1-0.1,0.1-0.2,0.2h0c-0.9,0.8-1.9,1.5-3,1.9v0h0l-0.1,0h0l-0.1,0.1h0l-0.1,0v0l-0.1,0l-0.1,0h0    c-1,0.4-2.1,0.6-3.2,0.7l0,0h-0.1h-0.1l0,0h-0.1l0,0h-0.1l0,0h-0.2l0,0c-0.2,0-0.3,0-0.5,0c-3.9-0.1-6.6-1.4-9.1-2.6    c-2.1-1-4-1.9-6.2-1.9c-2.3,0-4.2,0.9-6.2,1.9c-2.6,1.2-5.4,2.6-9.5,2.6h-0.1l0,0h-0.2c-4,0-6.6-1.3-9.1-2.5c-2-1-4-1.9-6.6-1.9    c-2.5,0-4.5,1-6.6,1.9c-2.5,1.2-5.2,2.5-9.3,2.5s-6.8-1.3-9.3-2.5c-2.1-1-4-1.9-6.6-1.9c-2.6,0-4.5,1-6.6,1.9    c-2.5,1.2-5.2,2.5-9.3,2.5c-4.1,0-6.8-1.3-9.3-2.5c-2.1-1-4-1.9-6.6-1.9c-2.6,0-4.5,1-6.6,1.9c-2.5,1.2-5.2,2.5-9.3,2.5    c-4.1,0-6.7-1.3-9.3-2.5c-2-1-4-1.9-6.6-1.9c-2.6,0-4.5,1-6.6,1.9c-2.5,1.2-5.2,2.5-9.3,2.5c-4.1,0-6.8-1.3-9.3-2.5    c-2-1-4-1.9-6.6-1.9c-2.6,0-4.5,1-6.6,1.9c-2.5,1.2-5.2,2.5-9.3,2.5c-4.1,0-6.8-1.3-9.3-2.5c-2.1-1-4-1.9-6.6-1.9    c-2.5,0-4.5,1-6.6,1.9c-2.5,1.2-5.2,2.5-9.3,2.5c-4.1,0-6.8-1.3-9.3-2.5c-2.1-1-4-1.9-6.6-1.9c-2.6,0-4.5,1-6.6,1.9    c-2.5,1.2-5.2,2.5-9.3,2.5c-4.1,0-6.7-1.3-9.3-2.5c-2.1-1-4-1.9-6.6-1.9c-2.6,0-4.5,1-6.6,1.9c-2.5,1.2-5.1,2.5-9.1,2.5h-0.1h-0.2    l0,0h-0.1l0,0h-0.1l0,0h-0.1c-1.3,0-2.5-0.3-3.6-0.7h0v0l-0.1,0h0l-0.1-0.1h0h0c-1.1-0.5-2.1-1.1-3.1-2h0L769,512l-0.1-0.1v0    l-0.1-0.1l0,0l-0.1-0.1l0,0l-0.1-0.1c-3-3-4-5.9-5-8.7c-0.8-2.1-1.5-4.1-3.1-5.7c-1.6-1.6-3.6-2.3-5.7-3.1c-2.7-1-5.7-2.1-8.6-5    l-0.1-0.1l0,0L746,489l0,0l-0.1-0.1h0l-0.1-0.1l-0.1-0.1l0,0c-0.8-1-1.5-2-2-3.1l0,0l0,0l0-0.1v0l0,0c-0.5-1.2-0.8-2.5-0.8-3.8    v-0.1v0v-0.1v0v-0.1v0V481l0,0v-0.1l0,0c0-4.1,1.4-6.9,2.6-9.5c1-2,1.9-3.9,1.9-6.2c0-2.3-0.9-4.2-1.9-6.3    c-1.2-2.6-2.5-5.4-2.6-9.5v-0.1v-0.2l0,0v-0.1l0,0v-0.1v0v-0.1c0.1-1.3,0.3-2.5,0.8-3.6h0l0-0.1v0l0-0.1l0,0v0    c0.5-1.1,1.1-2.1,2-3.1v0l0.1-0.1l0.1-0.1h0l0.1-0.1l0,0l0.1-0.1l0,0l0.1-0.1c2.9-3,5.9-4,8.6-5c2.1-0.8,4.1-1.5,5.7-3.1    c1.6-1.6,2.3-3.6,3.1-5.8c1-2.7,2-5.7,5-8.6l0.1-0.1l0,0l0.1-0.1l0,0l0.1-0.1v0l0.1-0.1l0.1-0.1h0l0.1-0.1l0,0    c0.8-0.7,1.8-1.3,2.8-1.8l0,0l0.1-0.1h0l0.1,0l0,0l0.1,0h0l0,0c1.3-0.5,2.7-0.8,4.1-0.9l0,0h0.2l0,0l0,0h0.1    c4.1,0,6.9,1.4,9.5,2.6c2.1,1,4,1.9,6.2,1.9c2.3,0,4.2-0.9,6.2-1.9c2.6-1.2,5.4-2.6,9.5-2.6h0.1c4.2,0,7,1.4,9.6,2.6    c2.1,1,4,1.9,6.2,1.9c2.2,0,4.2-0.9,6.2-1.9C833.2,416.6,836.1,415.2,840.2,415.2L840.2,415.2z M871.9,438.2    c-4.1,0-6.8-1.3-9.3-2.5c-2.1-1-4-1.9-6.6-1.9c-2.5,0-4.5,1-6.6,1.9c-2.5,1.2-5.2,2.5-9.3,2.5c-4.1,0-6.8-1.3-9.3-2.5    c-2.1-1-4-1.9-6.6-1.9c-2.6,0-4.5,1-6.6,1.9c-2.5,1.2-5.2,2.5-9.3,2.5c-4.1,0-6.7-1.3-9.3-2.5c-2.1-1-4-1.9-6.6-1.9    c-2.6,0-4.5,1-6.6,1.9c-1.5,0.7-3,1.4-4.8,1.9c-1.6,0.9-3.2,1.5-4.7,2c-2.2,0.7-4.2,1.5-6,3.3c-1.8,1.8-2.5,3.9-3.3,6.1    c-0.5,1.5-1.1,3.1-2,4.7c-0.5,1.8-1.2,3.3-1.9,4.8c-1,2-1.9,4-1.9,6.6c0,2.6,1,4.5,1.9,6.6c0.7,1.5,1.4,3,1.9,4.8    c0.9,1.6,1.5,3.2,2,4.7c0.7,2.2,1.5,4.2,3.3,6.1c1.8,1.8,3.9,2.6,6,3.3c1.5,0.5,3.1,1.1,4.7,2c1.9,0.5,3.6,1.3,5.2,2    c2.1,1,4,1.9,6.2,1.9c2.3,0,4.2-0.9,6.2-1.9c2.6-1.2,5.4-2.6,9.5-2.6h0.1c4.2,0,7,1.3,9.6,2.6c2.1,1,4,1.9,6.2,1.9    c2.2,0,4.2-0.9,6.2-1.9c2.6-1.3,5.5-2.6,9.6-2.6h0.1c4.1,0,6.9,1.4,9.5,2.6c2,1,4,1.9,6.2,1.9c2.3,0,4.2-0.9,6.2-1.9    c2.6-1.2,5.4-2.6,9.5-2.6h0.1c4.1,0,7,1.3,9.6,2.6c2,1,3.9,1.9,6.2,1.9s4.2-0.9,6.2-1.9c2.6-1.3,5.5-2.6,9.6-2.6h0.1    c4.1,0,6.9,1.4,9.5,2.6c2,1,3.9,1.9,6.2,1.9c2.3,0,4.2-0.9,6.2-1.9c2.6-1.2,5.4-2.6,9.5-2.6h0.1c4.2,0,7,1.3,9.6,2.6    c2.1,1,4,1.9,6.2,1.9s4.2-0.9,6.2-1.9c2.6-1.3,5.5-2.6,9.6-2.6h0.1c4.1,0,6.9,1.4,9.5,2.6c2,1,4,1.9,6.2,1.9    c2.2,0,4.2-0.9,6.2-1.9c2.6-1.2,5.4-2.6,9.5-2.6h0.1c4.1,0,7,1.3,9.6,2.6c2,1,4,1.9,6.2,1.9c2.3,0,4.2-0.9,6.2-1.9    c2.6-1.3,5.5-2.6,9.6-2.6l0,0h0.1l0,0c4,0,6.6,1.3,9.1,2.5c2.1,1,4,1.9,6.6,1.9c2.6,0,4.5-1,6.6-1.9c1.5-0.7,3-1.5,4.8-1.9    c1.6-0.9,3.2-1.5,4.7-2c2.2-0.7,4.2-1.5,6-3.3c1.8-1.8,2.5-3.9,3.3-6.1c0.5-1.5,1.1-3.1,2-4.7c0.5-1.8,1.2-3.3,1.9-4.8    c1-2.1,1.9-4,1.9-6.6c0-2.6-1-4.6-1.9-6.6c-0.7-1.5-1.4-3-1.9-4.8c-0.9-1.6-1.5-3.2-2-4.7c-0.7-2.2-1.5-4.2-3.3-6.1    c-1.8-1.8-3.9-2.6-6-3.3c-1.5-0.5-3.1-1.1-4.7-2c-1.8-0.5-3.3-1.2-4.8-1.9c-2-1-4-1.9-6.6-1.9c-2.6,0-4.5,1-6.6,1.9    c-2.5,1.2-5.2,2.5-9.3,2.5c-4.1,0-6.8-1.3-9.3-2.5c-2-1-4-1.9-6.6-1.9c-2.5,0-4.5,1-6.6,1.9c-2.5,1.2-5.2,2.5-9.3,2.5    s-6.8-1.3-9.3-2.5c-2.1-1-4-1.9-6.6-1.9c-2.6,0-4.5,1-6.6,1.9c-2.5,1.2-5.2,2.5-9.3,2.5c-4.1,0-6.8-1.3-9.3-2.5    c-2.1-1-4-1.9-6.6-1.9c-2.6,0-4.5,1-6.6,1.9c-2.5,1.2-5.2,2.5-9.3,2.5c-4.1,0-6.7-1.3-9.3-2.5c-2-1-4-1.9-6.6-1.9    c-2.6,0-4.5,1-6.6,1.9c-2.5,1.2-5.2,2.5-9.3,2.5c-4.1,0-6.8-1.3-9.3-2.5c-2-1-4-1.9-6.6-1.9c-2.6,0-4.5,1-6.6,1.9    C878.7,436.9,876,438.2,871.9,438.2L871.9,438.2z" class="st1" id="XMLID_755_"/>
		<path d="M1078,466.2c4.4,0,8,3.6,8,8c0,4.5-3.6,8.1-8,8.1c-4.4,0-8-3.6-8-8.1    C1070,469.8,1073.6,466.2,1078,466.2L1078,466.2z M1078,468.6c-3.1,0-5.6,2.6-5.6,5.6c0,3.1,2.5,5.6,5.6,5.6    c3.1,0,5.6-2.5,5.6-5.6C1083.6,471.1,1081.1,468.6,1078,468.6L1078,468.6z M1078,434.4c4.4,0,8,3.6,8,8.1c0,4.4-3.6,8-8,8    c-4.4,0-8-3.6-8-8C1070,438,1073.6,434.4,1078,434.4L1078,434.4z M1078,436.8c-3.1,0-5.6,2.5-5.6,5.6c0,3.1,2.5,5.6,5.6,5.6    c3.1,0,5.6-2.5,5.6-5.6C1083.6,439.3,1081.1,436.8,1078,436.8L1078,436.8z M747.5,466.2c4.4,0,8,3.6,8,8c0,4.5-3.6,8.1-8,8.1    c-4.4,0-8-3.6-8-8.1C739.5,469.8,743.1,466.2,747.5,466.2L747.5,466.2z M747.5,468.6c-3.1,0-5.6,2.6-5.6,5.6    c0,3.1,2.5,5.6,5.6,5.6c3.1,0,5.6-2.5,5.6-5.6C753.1,471.1,750.6,468.6,747.5,468.6L747.5,468.6z M747.5,434.4c4.4,0,8,3.6,8,8.1    c0,4.4-3.6,8-8,8c-4.4,0-8-3.6-8-8C739.5,438,743.1,434.4,747.5,434.4L747.5,434.4z M747.5,436.8c-3.1,0-5.6,2.5-5.6,5.6    c0,3.1,2.5,5.6,5.6,5.6c3.1,0,5.6-2.5,5.6-5.6C753.1,439.3,750.6,436.8,747.5,436.8L747.5,436.8z M1055.6,488.7c4.4,0,8,3.6,8,8    c0,4.5-3.6,8.1-8,8.1c-4.4,0-8-3.6-8-8.1C1047.5,492.3,1051.1,488.7,1055.6,488.7L1055.6,488.7z M1055.6,491.1    c-3.1,0-5.6,2.6-5.6,5.6c0,3.1,2.5,5.6,5.6,5.6c3.1,0,5.6-2.5,5.6-5.6C1061.2,493.6,1058.7,491.1,1055.6,491.1L1055.6,491.1z     M1023.8,488.7c4.4,0,8,3.6,8,8c0,4.5-3.6,8.1-8,8.1c-4.4,0-8-3.6-8-8.1C1015.8,492.3,1019.4,488.7,1023.8,488.7L1023.8,488.7z     M1023.8,491.1c-3.1,0-5.6,2.6-5.6,5.6c0,3.1,2.5,5.6,5.6,5.6c3.1,0,5.6-2.5,5.6-5.6C1029.5,493.6,1026.9,491.1,1023.8,491.1    L1023.8,491.1z M992.1,488.7c4.4,0,8,3.6,8,8c0,4.5-3.6,8.1-8,8.1c-4.4,0-8-3.6-8-8.1C984.1,492.3,987.7,488.7,992.1,488.7    L992.1,488.7z M992.1,491.1c-3.1,0-5.6,2.6-5.6,5.6c0,3.1,2.5,5.6,5.6,5.6c3.1,0,5.6-2.5,5.6-5.6    C997.7,493.6,995.2,491.1,992.1,491.1L992.1,491.1z M960.4,488.7c4.4,0,8,3.6,8,8c0,4.5-3.6,8.1-8,8.1c-4.4,0-8-3.6-8-8.1    C952.3,492.3,955.9,488.7,960.4,488.7L960.4,488.7z M960.4,491.1c-3.1,0-5.6,2.6-5.6,5.6c0,3.1,2.5,5.6,5.6,5.6    c3.1,0,5.6-2.5,5.6-5.6C966,493.6,963.5,491.1,960.4,491.1L960.4,491.1z M928.6,488.7c4.4,0,8,3.6,8,8c0,4.5-3.6,8.1-8,8.1    c-4.4,0-8-3.6-8-8.1C920.6,492.3,924.2,488.7,928.6,488.7L928.6,488.7z M928.6,491.1c-3.1,0-5.6,2.6-5.6,5.6    c0,3.1,2.5,5.6,5.6,5.6c3.1,0,5.6-2.5,5.6-5.6C934.2,493.6,931.7,491.1,928.6,491.1L928.6,491.1z M896.9,488.7c4.4,0,8,3.6,8,8    c0,4.5-3.6,8.1-8,8.1c-4.4,0-8-3.6-8-8.1C888.9,492.3,892.5,488.7,896.9,488.7L896.9,488.7z M896.9,491.1c-3.1,0-5.6,2.6-5.6,5.6    c0,3.1,2.5,5.6,5.6,5.6c3.1,0,5.6-2.5,5.6-5.6C902.5,493.6,900,491.1,896.9,491.1L896.9,491.1z M865.2,488.7c4.4,0,8,3.6,8,8    c0,4.5-3.6,8.1-8,8.1c-4.4,0-8-3.6-8-8.1C857.1,492.3,860.7,488.7,865.2,488.7L865.2,488.7z M865.2,491.1c-3.1,0-5.6,2.6-5.6,5.6    c0,3.1,2.5,5.6,5.6,5.6c3.1,0,5.6-2.5,5.6-5.6C870.8,493.6,868.3,491.1,865.2,491.1L865.2,491.1z M770,488.7c4.4,0,8,3.6,8,8    c0,4.5-3.6,8.1-8,8.1c-4.4,0-8-3.6-8-8.1C761.9,492.3,765.5,488.7,770,488.7L770,488.7z M770,491.1c-3.1,0-5.6,2.6-5.6,5.6    c0,3.1,2.5,5.6,5.6,5.6c3.1,0,5.6-2.5,5.6-5.6C775.6,493.6,773,491.1,770,491.1L770,491.1z M801.7,488.7c4.4,0,8,3.6,8,8    c0,4.5-3.6,8.1-8,8.1c-4.4,0-8-3.6-8-8.1C793.7,492.3,797.3,488.7,801.7,488.7L801.7,488.7z M801.7,491.1c-3.1,0-5.6,2.6-5.6,5.6    c0,3.1,2.5,5.6,5.6,5.6c3.1,0,5.6-2.5,5.6-5.6C807.3,493.6,804.8,491.1,801.7,491.1L801.7,491.1z M833.4,488.7c4.4,0,8,3.6,8,8    c0,4.5-3.6,8.1-8,8.1c-4.4,0-8-3.6-8-8.1C825.4,492.3,829,488.7,833.4,488.7L833.4,488.7z M833.4,491.1c-3.1,0-5.6,2.6-5.6,5.6    c0,3.1,2.5,5.6,5.6,5.6c3.1,0,5.6-2.5,5.6-5.6C839,493.6,836.5,491.1,833.4,491.1L833.4,491.1z M1055.6,411.9c4.4,0,8,3.6,8,8.1    c0,4.4-3.6,8-8,8c-4.4,0-8-3.6-8-8C1047.5,415.5,1051.1,411.9,1055.6,411.9L1055.6,411.9z M1055.6,414.3c-3.1,0-5.6,2.5-5.6,5.6    c0,3.1,2.5,5.6,5.6,5.6c3.1,0,5.6-2.5,5.6-5.6C1061.2,416.8,1058.7,414.3,1055.6,414.3L1055.6,414.3z M1023.8,411.9    c4.4,0,8,3.6,8,8.1c0,4.4-3.6,8-8,8c-4.4,0-8-3.6-8-8C1015.8,415.5,1019.4,411.9,1023.8,411.9L1023.8,411.9z M1023.8,414.3    c-3.1,0-5.6,2.5-5.6,5.6c0,3.1,2.5,5.6,5.6,5.6c3.1,0,5.6-2.5,5.6-5.6C1029.5,416.8,1026.9,414.3,1023.8,414.3L1023.8,414.3z     M992.1,411.9c4.4,0,8,3.6,8,8.1c0,4.4-3.6,8-8,8c-4.4,0-8-3.6-8-8C984.1,415.5,987.7,411.9,992.1,411.9L992.1,411.9z     M992.1,414.3c-3.1,0-5.6,2.5-5.6,5.6c0,3.1,2.5,5.6,5.6,5.6c3.1,0,5.6-2.5,5.6-5.6C997.7,416.8,995.2,414.3,992.1,414.3    L992.1,414.3z M960.4,411.9c4.4,0,8,3.6,8,8.1c0,4.4-3.6,8-8,8c-4.4,0-8-3.6-8-8C952.3,415.5,955.9,411.9,960.4,411.9L960.4,411.9    z M960.4,414.3c-3.1,0-5.6,2.5-5.6,5.6c0,3.1,2.5,5.6,5.6,5.6c3.1,0,5.6-2.5,5.6-5.6C966,416.8,963.5,414.3,960.4,414.3    L960.4,414.3z M928.6,411.9c4.4,0,8,3.6,8,8.1c0,4.4-3.6,8-8,8c-4.4,0-8-3.6-8-8C920.6,415.5,924.2,411.9,928.6,411.9L928.6,411.9    z M928.6,414.3c-3.1,0-5.6,2.5-5.6,5.6c0,3.1,2.5,5.6,5.6,5.6c3.1,0,5.6-2.5,5.6-5.6C934.2,416.8,931.7,414.3,928.6,414.3    L928.6,414.3z M896.9,411.9c4.4,0,8,3.6,8,8.1c0,4.4-3.6,8-8,8c-4.4,0-8-3.6-8-8C888.9,415.5,892.5,411.9,896.9,411.9L896.9,411.9    z M896.9,414.3c-3.1,0-5.6,2.5-5.6,5.6c0,3.1,2.5,5.6,5.6,5.6c3.1,0,5.6-2.5,5.6-5.6C902.5,416.8,900,414.3,896.9,414.3    L896.9,414.3z M865.2,411.9c4.4,0,8,3.6,8,8.1c0,4.4-3.6,8-8,8c-4.4,0-8-3.6-8-8C857.1,415.5,860.7,411.9,865.2,411.9L865.2,411.9    z M865.2,414.3c-3.1,0-5.6,2.5-5.6,5.6c0,3.1,2.5,5.6,5.6,5.6c3.1,0,5.6-2.5,5.6-5.6C870.8,416.8,868.2,414.3,865.2,414.3    L865.2,414.3z M770,411.9c4.4,0,8,3.6,8,8.1c0,4.4-3.6,8-8,8c-4.4,0-8-3.6-8-8C761.9,415.5,765.5,411.9,770,411.9L770,411.9z     M770,414.3c-3.1,0-5.6,2.5-5.6,5.6c0,3.1,2.5,5.6,5.6,5.6c3.1,0,5.6-2.5,5.6-5.6C775.6,416.8,773,414.3,770,414.3L770,414.3z     M801.7,411.9c4.4,0,8,3.6,8,8.1c0,4.4-3.6,8-8,8c-4.4,0-8-3.6-8-8C793.7,415.5,797.3,411.9,801.7,411.9L801.7,411.9z     M801.7,414.3c-3.1,0-5.6,2.5-5.6,5.6c0,3.1,2.5,5.6,5.6,5.6c3.1,0,5.6-2.5,5.6-5.6C807.3,416.8,804.8,414.3,801.7,414.3    L801.7,414.3z M738.4,442.4c0,3.6,1.2,6.2,2.3,8.6c1.1,2.3,2.1,4.5,2.1,7.3c0,2.8-1,5-2.1,7.3c-1.1,2.4-2.3,5-2.3,8.6    c0,2.5,1,4.8,2.6,6.4c1.6,1.6,3.9,2.7,6.4,2.7c2.5,0,4.8-1,6.4-2.7c1.6-1.6,2.6-3.9,2.6-6.4c0-3.5-1.2-6-2.3-8.2    c-1.1-2.3-2.2-4.5-2.2-7.7c0-3.1,1.1-5.3,2.2-7.7c1.1-2.3,2.3-4.7,2.3-8.2c0-2.5-1-4.8-2.6-6.4c-1.6-1.6-3.9-2.7-6.4-2.7    c-2.5,0-4.8,1-6.4,2.7C739.5,437.6,738.4,439.9,738.4,442.4L738.4,442.4z M969,490c-2.4-1.1-5-2.3-8.6-2.3c-2.5,0-4.8,1-6.4,2.7    c-1.7,1.6-2.6,3.9-2.6,6.4c0,2.5,1,4.8,2.6,6.4c1.6,1.6,3.9,2.7,6.4,2.7c3.6,0,5.9-1.2,8.3-2.3c2.3-1.1,4.5-2.2,7.6-2.2    c3.1,0,5.3,1.1,7.6,2.2c2.3,1.1,4.7,2.3,8.3,2.3c2.5,0,4.8-1,6.4-2.7c1.7-1.6,2.7-3.9,2.7-6.4c0-2.5-1-4.8-2.7-6.4    c-1.6-1.6-3.9-2.7-6.4-2.7c-3.6,0-6.2,1.2-8.6,2.3c-2.3,1.1-4.4,2.1-7.2,2.1C973.4,492.1,971.3,491.1,969,490L969,490z M905.5,490    c-2.4-1.1-5-2.3-8.6-2.3c-2.5,0-4.8,1-6.4,2.7c-1.6,1.6-2.6,3.9-2.6,6.4c0,2.5,1,4.8,2.6,6.4c1.6,1.6,3.9,2.7,6.4,2.7    c3.5,0,5.9-1.2,8.2-2.3c2.3-1.1,4.5-2.2,7.6-2.2c3.1,0,5.3,1.1,7.6,2.2c2.3,1.1,4.7,2.3,8.2,2.3c2.5,0,4.8-1,6.4-2.7    c1.6-1.6,2.6-3.9,2.6-6.4c0-2.5-1-4.8-2.6-6.4c-1.6-1.6-3.9-2.7-6.4-2.7c-3.6,0-6.2,1.2-8.6,2.3c-2.3,1.1-4.5,2.1-7.3,2.1    S907.8,491.1,905.5,490L905.5,490z M778.5,490c-2.4-1.1-5-2.3-8.6-2.3c-2.5,0-4.8,1-6.4,2.7c-1.6,1.6-2.6,3.9-2.6,6.4    c0,2.5,1,4.8,2.6,6.4c1.6,1.6,3.9,2.7,6.4,2.7c3.5,0,5.9-1.2,8.2-2.3c2.3-1.1,4.5-2.2,7.6-2.2c3.1,0,5.3,1.1,7.6,2.2    c2.3,1.1,4.7,2.3,8.2,2.3c2.5,0,4.8-1,6.4-2.7s2.6-3.9,2.6-6.4c0-2.5-1-4.8-2.6-6.4c-1.6-1.6-3.9-2.7-6.4-2.7    c-3.6,0-6.2,1.2-8.6,2.3c-2.3,1.1-4.5,2.1-7.3,2.1S780.9,491.1,778.5,490L778.5,490z M842,490c-2.4-1.1-5-2.3-8.6-2.3    c-2.5,0-4.8,1-6.4,2.7c-1.7,1.6-2.6,3.9-2.6,6.4c0,2.5,1,4.8,2.6,6.4c1.6,1.6,3.9,2.7,6.4,2.7c3.6,0,5.9-1.2,8.3-2.3    c2.3-1.1,4.5-2.2,7.6-2.2c3.1,0,5.3,1.1,7.6,2.2c2.3,1.1,4.7,2.3,8.3,2.3c2.5,0,4.8-1,6.4-2.7c1.7-1.6,2.6-3.9,2.6-6.4    c0-2.5-1-4.8-2.6-6.4c-1.6-1.6-3.9-2.7-6.4-2.7c-3.6,0-6.2,1.2-8.6,2.3c-2.3,1.1-4.4,2.1-7.3,2.1C846.5,492.1,844.3,491.1,842,490    L842,490z M1047,503.5c2.4,1.1,5,2.3,8.6,2.3l0,0c2.5,0,4.8-1,6.4-2.7c1.6-1.6,2.6-3.9,2.6-6.4l0,0c0-2.5-1-4.8-2.6-6.4    c-1.6-1.6-3.9-2.7-6.4-2.7c-3.5,0-5.9,1.2-8.2,2.2c-2.3,1.1-4.5,2.2-7.6,2.2c-3.1,0-5.3-1.1-7.6-2.2c-2.3-1.1-4.7-2.2-8.2-2.2    c-2.5,0-4.8,1-6.4,2.7c-1.6,1.6-2.6,3.9-2.6,6.4l0,0c0,2.5,1,4.8,2.6,6.4c1.6,1.6,3.9,2.7,6.4,2.7l0,0c3.6,0,6.2-1.2,8.6-2.3    c2.3-1.1,4.5-2.1,7.3-2.1C1042.5,501.3,1044.7,502.4,1047,503.5L1047,503.5z M1084.7,451c1.1-2.4,2.3-5,2.3-8.6l0,0    c0-2.5-1-4.8-2.6-6.4c-1.6-1.6-3.9-2.7-6.4-2.7c-2.5,0-4.8,1-6.4,2.7c-1.6,1.6-2.6,3.9-2.6,6.4c0,3.5,1.2,6,2.3,8.2    c1.1,2.3,2.2,4.5,2.2,7.7c0,3.1-1.1,5.3-2.2,7.7c-1.1,2.3-2.3,4.7-2.3,8.2c0,2.5,1,4.8,2.6,6.4c1.6,1.6,3.9,2.7,6.4,2.7l0,0    c2.5,0,4.8-1,6.4-2.7c1.6-1.6,2.6-3.9,2.6-6.4l0,0c0-3.6-1.2-6.2-2.3-8.6c-1.1-2.3-2.1-4.5-2.1-7.3    C1082.6,455.5,1083.6,453.4,1084.7,451L1084.7,451z M1032.4,413.2c-2.4-1.1-5-2.3-8.6-2.3c-2.5,0-4.8,1-6.4,2.7    c-1.6,1.6-2.6,3.9-2.6,6.4c0,2.5,1,4.8,2.6,6.4c1.6,1.6,3.9,2.7,6.4,2.7c3.5,0,5.9-1.2,8.2-2.3c2.3-1.1,4.5-2.2,7.6-2.2    c3.1,0,5.3,1.1,7.6,2.2c2.3,1.1,4.7,2.3,8.2,2.3c2.5,0,4.8-1,6.4-2.7c1.6-1.6,2.6-3.9,2.6-6.4c0-2.5-1-4.8-2.6-6.4    c-1.6-1.6-3.9-2.7-6.4-2.7c-3.6,0-6.2,1.2-8.6,2.3c-2.3,1.1-4.5,2.1-7.3,2.1C1036.9,415.3,1034.7,414.3,1032.4,413.2L1032.4,413.2    z M969,413.2c-2.4-1.1-5-2.3-8.6-2.3c-2.5,0-4.8,1-6.4,2.7c-1.7,1.6-2.6,3.9-2.6,6.4c0,2.5,1,4.8,2.6,6.4c1.6,1.6,3.9,2.7,6.4,2.7    c3.6,0,5.9-1.2,8.3-2.3c2.3-1.1,4.5-2.2,7.6-2.2c3.1,0,5.3,1.1,7.6,2.2c2.3,1.1,4.7,2.3,8.3,2.3c2.5,0,4.8-1,6.4-2.7    c1.7-1.6,2.7-3.9,2.7-6.4c0-2.5-1-4.8-2.7-6.4c-1.6-1.6-3.9-2.7-6.4-2.7c-3.6,0-6.2,1.2-8.6,2.3c-2.3,1.1-4.4,2.1-7.2,2.1    C973.4,415.3,971.3,414.3,969,413.2L969,413.2z M905.5,413.2c-2.4-1.1-5-2.3-8.6-2.3c-2.5,0-4.8,1-6.4,2.7    c-1.6,1.6-2.6,3.9-2.6,6.4c0,2.5,1,4.8,2.6,6.4c1.6,1.6,3.9,2.7,6.4,2.7c3.5,0,5.9-1.2,8.2-2.3c2.3-1.1,4.5-2.2,7.6-2.2    c3.1,0,5.3,1.1,7.6,2.2c2.3,1.1,4.7,2.3,8.2,2.3c2.5,0,4.8-1,6.4-2.7c1.6-1.6,2.6-3.9,2.6-6.4c0-2.5-1-4.8-2.6-6.4    c-1.6-1.6-3.9-2.7-6.4-2.7c-3.6,0-6.2,1.2-8.6,2.3c-2.3,1.1-4.5,2.1-7.3,2.1S907.8,414.3,905.5,413.2L905.5,413.2z M778.5,413.2    c-2.4-1.1-5-2.3-8.6-2.3c-2.5,0-4.8,1-6.4,2.7c-1.6,1.6-2.6,3.9-2.6,6.4c0,2.5,1,4.8,2.6,6.4c1.6,1.6,3.9,2.7,6.4,2.7    c3.5,0,5.9-1.2,8.2-2.3c2.3-1.1,4.5-2.2,7.6-2.2c3.1,0,5.3,1.1,7.6,2.2c2.3,1.1,4.7,2.3,8.2,2.3c2.5,0,4.8-1,6.4-2.7    c1.6-1.6,2.6-3.9,2.6-6.4c0-2.5-1-4.8-2.6-6.4c-1.6-1.6-3.9-2.7-6.4-2.7c-3.6,0-6.2,1.2-8.6,2.3c-2.3,1.1-4.5,2.1-7.3,2.1    S780.9,414.3,778.5,413.2L778.5,413.2z M833.4,411.9c4.4,0,8,3.6,8,8.1c0,4.4-3.6,8-8,8c-4.4,0-8-3.6-8-8    C825.4,415.5,829,411.9,833.4,411.9L833.4,411.9z M833.4,414.3c-3.1,0-5.6,2.5-5.6,5.6c0,3.1,2.5,5.6,5.6,5.6    c3.1,0,5.6-2.5,5.6-5.6C839,416.8,836.5,414.3,833.4,414.3L833.4,414.3z M842,413.2c-2.4-1.1-5-2.3-8.6-2.3c-2.5,0-4.8,1-6.4,2.7    c-1.7,1.6-2.6,3.9-2.6,6.4c0,2.5,1,4.8,2.6,6.4c1.6,1.6,3.9,2.7,6.4,2.7c3.6,0,5.9-1.2,8.3-2.3c2.3-1.1,4.5-2.2,7.6-2.2    c3.1,0,5.3,1.1,7.6,2.2c2.3,1.1,4.7,2.3,8.3,2.3c2.5,0,4.8-1,6.4-2.7c1.7-1.6,2.6-3.9,2.6-6.4c0-2.5-1-4.8-2.6-6.4    c-1.6-1.6-3.9-2.7-6.4-2.7c-3.6,0-6.2,1.2-8.6,2.3c-2.3,1.1-4.4,2.1-7.3,2.1C846.5,415.3,844.3,414.3,842,413.2L842,413.2z" class="st5" id="XMLID_676_"/>
		<path d="M801.7,408.4c4.2,0,7,1.4,9.6,2.6c2.1,1,4,1.9,6.2,1.9c2.2,0,4.2-0.9,6.2-1.9    c2.6-1.2,5.5-2.6,9.6-2.6c3,0,5.7,1.2,7.8,3.1c-2.2-1-4.5-1.8-7.8-1.8c-2.8,0-5.2,1.1-7.1,2.8c-0.5,0.2-1,0.5-1.5,0.7    c-2.3,1.1-4.4,2.1-7.2,2.1c-2.8,0-5-1-7.3-2.1c-0.5-0.2-1-0.5-1.5-0.7c-1.8-1.8-4.3-2.8-7.1-2.8c-3.2,0-5.6,0.9-7.7,1.8    C796,409.6,798.7,408.4,801.7,408.4L801.7,408.4z M841.4,428.2c-2.1,2-4.9,3.2-7.9,3.2c-4.1,0-6.8-1.3-9.3-2.5    c-2.1-1-4-1.9-6.6-1.9c-2.6,0-4.5,1-6.6,1.9c-2.5,1.2-5.2,2.5-9.3,2.5c-3.1,0-5.9-1.2-7.9-3.2c2.2,1,4.6,2,7.9,2    c2.9,0,5.4-1.2,7.2-3c0.3-0.1,0.7-0.3,1-0.5c2.3-1.1,4.5-2.2,7.6-2.2c3.1,0,5.3,1.1,7.6,2.2c0.3,0.2,0.7,0.3,1,0.5    c1.9,1.9,4.4,3,7.2,3C836.8,430.2,839.2,429.2,841.4,428.2L841.4,428.2z M865.2,408.4c4.1,0,7,1.4,9.6,2.6c2,1,3.9,1.9,6.2,1.9    c2.3,0,4.2-0.9,6.2-1.9c2.6-1.2,5.5-2.6,9.6-2.6c3,0,5.7,1.2,7.7,3.1c-2.1-1-4.5-1.8-7.7-1.8c-2.8,0-5.3,1.1-7.1,2.8    c-0.5,0.2-1,0.5-1.5,0.7c-2.3,1.1-4.5,2.1-7.3,2.1c-2.8,0-4.9-1-7.2-2.1c-0.5-0.2-1-0.5-1.5-0.7c-1.9-1.8-4.3-2.8-7.1-2.8    c-3.2,0-5.6,0.9-7.8,1.8C859.4,409.6,862.2,408.4,865.2,408.4L865.2,408.4z M904.8,428.2c-2,2-4.9,3.2-7.9,3.2    c-4.1,0-6.8-1.3-9.3-2.5c-2-1-4-1.9-6.6-1.9c-2.6,0-4.5,1-6.6,1.9c-2.5,1.2-5.2,2.5-9.3,2.5c-3.1,0-5.9-1.2-7.9-3.2    c2.2,1,4.5,2,7.9,2c2.8,0,5.4-1.2,7.2-3c0.3-0.1,0.7-0.3,1-0.5c2.3-1.1,4.5-2.2,7.6-2.2c3.1,0,5.3,1.1,7.6,2.2    c0.3,0.2,0.7,0.3,1,0.5c1.9,1.9,4.4,3,7.3,3C900.3,430.2,902.6,429.2,904.8,428.2L904.8,428.2z M928.6,408.4c4.2,0,7,1.4,9.6,2.6    c2.1,1,4,1.9,6.2,1.9c2.3,0,4.2-0.9,6.2-1.9c2.6-1.2,5.5-2.6,9.6-2.6c3,0,5.7,1.2,7.8,3.1c-2.1-1-4.5-1.8-7.8-1.8    c-2.8,0-5.2,1.1-7.1,2.8c-0.5,0.2-1,0.5-1.5,0.7c-2.3,1.1-4.4,2.1-7.2,2.1s-5-1-7.3-2.1c-0.5-0.2-1-0.5-1.5-0.7    c-1.8-1.8-4.3-2.8-7.1-2.8c-3.2,0-5.6,0.9-7.7,1.8C922.9,409.6,925.6,408.4,928.6,408.4L928.6,408.4z M968.3,428.2    c-2.1,2-4.9,3.2-7.9,3.2c-4.1,0-6.8-1.3-9.3-2.5c-2.1-1-4-1.9-6.6-1.9c-2.6,0-4.5,1-6.6,1.9c-2.5,1.2-5.2,2.5-9.3,2.5    c-3.1,0-5.9-1.2-7.9-3.2c2.2,1,4.5,2,7.9,2c2.9,0,5.4-1.2,7.3-3c0.3-0.1,0.6-0.3,1-0.5c2.3-1.1,4.5-2.2,7.6-2.2    c3.1,0,5.3,1.1,7.6,2.2c0.3,0.2,0.6,0.3,1,0.5c1.9,1.9,4.4,3,7.2,3C963.7,430.2,966.1,429.2,968.3,428.2L968.3,428.2z     M992.1,408.4c4.1,0,7,1.4,9.6,2.6c2,1,4,1.9,6.2,1.9c2.3,0,4.2-0.9,6.2-1.9c2.6-1.2,5.5-2.6,9.6-2.6c3,0,5.7,1.2,7.8,3.1    c-2.2-1-4.6-1.8-7.8-1.8c-2.8,0-5.3,1.1-7.1,2.8c-0.5,0.2-1,0.5-1.5,0.7c-2.3,1.1-4.4,2.1-7.3,2.1c-2.8,0-4.9-1-7.2-2.1    c-0.5-0.2-1-0.5-1.5-0.7c-1.9-1.8-4.3-2.8-7.1-2.8c-3.2,0-5.6,0.9-7.8,1.8C986.4,409.6,989.1,408.4,992.1,408.4L992.1,408.4z     M1031.8,428.2c-2.1,2-4.9,3.2-7.9,3.2c-4.1,0-6.8-1.3-9.3-2.5c-2-1-4-1.9-6.6-1.9c-2.5,0-4.5,1-6.6,1.9c-2.5,1.2-5.2,2.5-9.3,2.5    c-3.1,0-5.9-1.2-7.9-3.2c2.2,1,4.5,2,7.9,2c2.8,0,5.4-1.2,7.2-3c0.3-0.1,0.7-0.3,1-0.5c2.3-1.1,4.5-2.2,7.6-2.2    c3.1,0,5.3,1.1,7.6,2.2c0.3,0.2,0.7,0.3,1,0.5c1.8,1.9,4.4,3,7.2,3C1027.2,430.2,1029.6,429.2,1031.8,428.2L1031.8,428.2z     M1063.7,411.8c3,2.9,4,5.9,5,8.6c0.8,2.1,1.5,4.2,3.1,5.8c1.6,1.6,3.6,2.3,5.7,3.1c2.7,1,5.7,2,8.6,5l0,0    c2.2,2.2,3.4,5.2,3.4,8.1c0,2.8-1,5.6-3.1,7.8c1-2.1,1.8-4.6,1.8-7.8c0-5.6-4.4-10.2-10-10.3c-0.5-0.2-1.1-0.4-1.6-0.6    c-2.4-0.9-4.7-1.7-6.6-3.6c-2-2-2.8-4.2-3.6-6.6c-0.2-0.5-0.4-1.1-0.6-1.6c-0.1-5.6-4.7-10-10.3-10c-3.2,0-5.6,0.9-7.7,1.8    c2.2-2,5-3.1,7.7-3.1C1058.5,408.4,1061.4,409.6,1063.7,411.8L1063.7,411.8z M1069.7,450.4c-2.8-2.8-3.7-5.6-4.6-8.2    c-0.7-2.2-1.5-4.2-3.3-6.1c-1.8-1.8-3.9-2.6-6-3.3c-2.6-0.9-5.3-1.9-8.1-4.6c2.2,1,4.5,2,7.9,2c0.3,0.1,0.7,0.2,1.1,0.3    c2.4,0.9,4.7,1.7,6.9,3.9c2.2,2.2,3,4.5,3.9,6.9c0.1,0.4,0.2,0.7,0.3,1.1C1067.8,445.8,1068.7,448.2,1069.7,450.4L1069.7,450.4z     M1086.1,482.4c-2.9,2.9-5.9,4-8.6,5c-2.1,0.7-4.1,1.5-5.7,3.1c-1.6,1.6-2.3,3.6-3.1,5.7c-1,2.8-2,5.7-5,8.7l0,0    c-2.2,2.2-5.2,3.4-8.1,3.4c-2.8,0-5.6-1-7.7-3.1c2.1,1,4.5,1.8,7.7,1.8c5.6,0,10.2-4.5,10.3-10c0.2-0.5,0.4-1.1,0.6-1.6    c0.8-2.4,1.7-4.7,3.6-6.6c2-2,4.2-2.8,6.6-3.7c0.5-0.2,1.1-0.4,1.6-0.6c5.6-0.1,10-4.7,10-10.3c0-3.2-0.8-5.6-1.8-7.8    c2,2.2,3.1,5,3.1,7.8C1089.5,477.2,1088.4,480.1,1086.1,482.4L1086.1,482.4z M1047.6,488.4c2.8-2.8,5.6-3.7,8.1-4.6    c2.2-0.7,4.2-1.5,6-3.3c1.8-1.8,2.5-3.9,3.3-6.1c0.9-2.6,1.9-5.3,4.6-8.2c-1,2.2-2,4.6-2,8c-0.1,0.3-0.2,0.7-0.3,1    c-0.8,2.5-1.7,4.8-3.9,7c-2.2,2.2-4.5,3-6.9,3.8c-0.4,0.1-0.7,0.3-1.1,0.4C1052.2,486.4,1049.8,487.4,1047.6,488.4L1047.6,488.4z     M992.1,485.2c4.1,0,7,1.3,9.6,2.6c2,1,4,1.9,6.2,1.9c2.3,0,4.2-0.9,6.2-1.9c2.6-1.3,5.5-2.6,9.6-2.6c3.1,0,5.9,1.2,7.9,3.2    c-2.2-1-4.6-2-7.9-2c-2.8,0-5.3,1.1-7.1,2.9c-0.5,0.2-1,0.5-1.5,0.7c-2.3,1.1-4.4,2.1-7.3,2.1c-2.8,0-4.9-1-7.2-2.1    c-0.5-0.2-1-0.5-1.5-0.7c-1.9-1.8-4.3-2.9-7.1-2.9c-3.2,0-5.6,0.9-7.8,1.8C986.4,486.4,989.1,485.2,992.1,485.2L992.1,485.2z     M1031.6,505.2c-2,1.9-4.8,3.1-7.7,3.1c-4.1,0-6.8-1.3-9.3-2.5c-2-1-4-1.9-6.6-1.9c-2.5,0-4.5,1-6.6,1.9c-2.5,1.2-5.2,2.5-9.3,2.5    c-3.1,0-5.9-1.2-7.9-3.2c2.2,1,4.5,2,7.9,2c2.8,0,5.4-1.1,7.2-3c0.3-0.1,0.7-0.3,1-0.5c2.3-1.1,4.5-2.2,7.6-2.2    c3.1,0,5.3,1.1,7.6,2.2c0.3,0.2,0.7,0.3,1,0.5c1.8,1.9,4.4,3,7.2,3C1027,507,1029.4,506.1,1031.6,505.2L1031.6,505.2z     M928.6,485.2c4.2,0,7,1.3,9.6,2.6c2.1,1,4,1.9,6.2,1.9c2.3,0,4.2-0.9,6.2-1.9c2.6-1.3,5.5-2.6,9.6-2.6c3,0,5.7,1.2,7.8,3    c-2.1-1-4.5-1.8-7.8-1.8c-2.8,0-5.2,1.1-7.1,2.9c-0.5,0.2-1,0.5-1.5,0.7c-2.3,1.1-4.4,2.1-7.2,2.1s-5-1-7.3-2.1    c-0.5-0.2-1-0.5-1.5-0.7c-1.8-1.8-4.3-2.9-7.1-2.9c-3.2,0-5.6,0.9-7.7,1.8C922.9,486.4,925.6,485.2,928.6,485.2L928.6,485.2z     M968.3,505c-2.1,2-4.9,3.2-7.9,3.2c-4.1,0-6.8-1.3-9.3-2.5c-2.1-1-4-1.9-6.6-1.9c-2.6,0-4.5,1-6.6,1.9c-2.5,1.2-5.2,2.5-9.3,2.5    c-3.1,0-5.9-1.2-7.9-3.2c2.2,1,4.5,2,7.9,2c2.9,0,5.4-1.1,7.3-3c0.3-0.1,0.6-0.3,1-0.5c2.3-1.1,4.5-2.2,7.6-2.2    c3.1,0,5.3,1.1,7.6,2.2c0.3,0.2,0.6,0.3,1,0.5c1.9,1.9,4.4,3,7.2,3C963.7,507,966.1,506,968.3,505L968.3,505z M865.2,485.2    c4.1,0,7,1.3,9.6,2.6c2,1,3.9,1.9,6.2,1.9c2.3,0,4.2-0.9,6.2-1.9c2.6-1.3,5.5-2.6,9.6-2.6c3,0,5.7,1.2,7.7,3    c-2.1-1-4.5-1.8-7.7-1.8c-2.8,0-5.3,1.1-7.1,2.9c-0.5,0.2-1,0.5-1.5,0.7c-2.3,1.1-4.5,2.1-7.3,2.1c-2.8,0-4.9-1-7.2-2.1    c-0.5-0.2-1-0.5-1.5-0.7c-1.9-1.8-4.3-2.9-7.1-2.9c-3.2,0-5.6,0.9-7.8,1.8C859.4,486.4,862.2,485.2,865.2,485.2L865.2,485.2z     M904.8,505c-2,2-4.9,3.2-7.9,3.2c-4.1,0-6.8-1.3-9.3-2.5c-2-1-4-1.9-6.6-1.9c-2.6,0-4.5,1-6.6,1.9c-2.5,1.2-5.2,2.5-9.3,2.5    c-3.1,0-5.9-1.2-7.9-3.2c2.2,1,4.5,2,7.9,2c2.8,0,5.4-1.1,7.2-3c0.3-0.1,0.7-0.3,1-0.5c2.3-1.1,4.5-2.2,7.6-2.2    c3.1,0,5.3,1.1,7.6,2.2c0.3,0.2,0.7,0.3,1,0.5c1.9,1.9,4.4,3,7.3,3C900.3,507,902.6,506,904.8,505L904.8,505z M801.7,485.2    c4.2,0,7,1.3,9.6,2.6c2.1,1,4,1.9,6.2,1.9c2.2,0,4.2-0.9,6.2-1.9c2.6-1.3,5.5-2.6,9.6-2.6c3,0,5.7,1.2,7.8,3    c-2.2-1-4.5-1.8-7.8-1.8c-2.8,0-5.2,1.1-7.1,2.9c-0.5,0.2-1,0.5-1.5,0.7c-2.3,1.1-4.4,2.1-7.2,2.1c-2.8,0-5-1-7.3-2.1    c-0.5-0.2-1-0.5-1.5-0.7c-1.8-1.8-4.3-2.9-7.1-2.9c-3.2,0-5.6,0.9-7.7,1.8C796,486.4,798.7,485.2,801.7,485.2L801.7,485.2z     M841.4,505c-2.1,2-4.9,3.2-7.9,3.2c-4.1,0-6.8-1.3-9.3-2.5c-2.1-1-4-1.9-6.6-1.9c-2.6,0-4.5,1-6.6,1.9c-2.5,1.2-5.2,2.5-9.3,2.5    c-3.1,0-5.9-1.2-7.9-3.2c2.2,1,4.6,2,7.9,2c2.9,0,5.4-1.1,7.2-3c0.3-0.1,0.7-0.3,1-0.5c2.3-1.1,4.5-2.2,7.6-2.2    c3.1,0,5.3,1.1,7.6,2.2c0.3,0.2,0.7,0.3,1,0.5c1.9,1.9,4.4,3,7.2,3C836.8,507,839.2,506,841.4,505L841.4,505z M747.3,484.5    c0.5,0.2,1.1,0.4,1.6,0.6c2.4,0.9,4.7,1.7,6.6,3.7c2,2,2.8,4.2,3.6,6.6c0.2,0.5,0.4,1,0.6,1.6c0.1,5.6,4.7,10,10.3,10    c3.4,0,5.7-1,7.9-2c-2.2,2.1-5.1,3.2-7.9,3.2c-3,0-5.9-1.1-8.1-3.4c-3-3-4-5.9-5-8.7c-0.8-2.1-1.5-4.1-3.1-5.7    c-1.6-1.6-3.6-2.3-5.7-3.1c-2.7-1-5.7-2.1-8.6-5c-2.2-2.2-3.4-5.2-3.4-8.1c0-2.8,1-5.6,3.1-7.8c-1,2.1-1.8,4.6-1.8,7.8    C737.3,479.8,741.7,484.4,747.3,484.5L747.3,484.5z M770,486.4c-0.3-0.1-0.7-0.2-1.1-0.4c-2.4-0.9-4.7-1.6-6.9-3.8    c-2.2-2.2-3-4.5-3.9-7c-0.1-0.3-0.2-0.7-0.3-1c0-3.4-1-5.8-2-8c2.8,2.9,3.7,5.6,4.6,8.2c0.7,2.2,1.5,4.2,3.3,6.1    c1.8,1.8,3.9,2.6,6,3.3c2.5,0.9,5.2,1.8,8,4.5C775.6,487.3,773.1,486.4,770,486.4L770,486.4z M759.7,419.7    c-0.2,0.5-0.4,1.1-0.6,1.6c-0.8,2.4-1.7,4.7-3.6,6.6c-2,2-4.2,2.8-6.6,3.6c-0.5,0.2-1.1,0.4-1.6,0.6c-5.6,0.1-10,4.7-10,10.3    c0,3.2,0.8,5.6,1.8,7.8c-2-2.2-3.1-5-3.1-7.8c0-3,1.1-5.9,3.4-8.1c2.9-3,5.9-4,8.6-5c2.1-0.8,4.1-1.5,5.7-3.1    c1.6-1.6,2.3-3.6,3.1-5.8c1-2.7,2-5.7,5-8.6c2.2-2.2,5.2-3.4,8.1-3.4c2.8,0,5.6,1,7.7,3.1c-2.1-1-4.5-1.8-7.7-1.8    C764.4,409.7,759.8,414.1,759.7,419.7L759.7,419.7z M757.8,442.4c0.1-0.3,0.2-0.7,0.3-1.1c0.8-2.4,1.7-4.7,3.9-6.9    c2.2-2.2,4.5-3,6.9-3.9c0.4-0.1,0.7-0.2,1.1-0.3c3.4,0,5.7-1,7.9-2c-2.8,2.8-5.6,3.7-8.1,4.6c-2.2,0.7-4.2,1.5-6,3.3    c-1.8,1.8-2.5,3.9-3.3,6.1c-0.9,2.6-1.9,5.3-4.6,8.2C756.8,448.2,757.7,445.8,757.8,442.4L757.8,442.4z" class="st2" id="XMLID_551_"/>
		<path d="M833.4,408.4c4.2,0,7,1.4,9.6,2.6c2,1,4,1.9,6.2,1.9c2.3,0,4.2-0.9,6.2-1.9    c2.6-1.2,5.5-2.6,9.6-2.6c3.2,0,6,1.3,8.1,3.4c2.1,2.1,3.4,4.9,3.4,8.1c0,3.2-1.3,6-3.4,8.1s-4.9,3.4-8.1,3.4    c-4.1,0-6.8-1.3-9.3-2.5c-2.1-1-4-1.9-6.6-1.9c-2.5,0-4.5,1-6.6,1.9c-2.5,1.2-5.2,2.5-9.3,2.5c-3.2,0-6-1.3-8.1-3.4    c-2.1-2.1-3.3-4.9-3.3-8.1c0-3.2,1.3-6.1,3.3-8.1C827.4,409.7,830.3,408.4,833.4,408.4L833.4,408.4z M1078,466.2c4.4,0,8,3.6,8,8    c0,4.5-3.6,8.1-8,8.1c-4.4,0-8-3.6-8-8.1C1070,469.8,1073.6,466.2,1078,466.2L1078,466.2z M1078,468.6c-3.1,0-5.6,2.6-5.6,5.6    c0,3.1,2.5,5.6,5.6,5.6c3.1,0,5.6-2.5,5.6-5.6C1083.6,471.1,1081.1,468.6,1078,468.6L1078,468.6z M1078,434.4c4.4,0,8,3.6,8,8.1    c0,4.4-3.6,8-8,8c-4.4,0-8-3.6-8-8C1070,438,1073.6,434.4,1078,434.4L1078,434.4z M1078,436.8c-3.1,0-5.6,2.5-5.6,5.6    c0,3.1,2.5,5.6,5.6,5.6c3.1,0,5.6-2.5,5.6-5.6C1083.6,439.3,1081.1,436.8,1078,436.8L1078,436.8z M747.5,466.2c4.4,0,8,3.6,8,8    c0,4.5-3.6,8.1-8,8.1c-4.4,0-8-3.6-8-8.1C739.5,469.8,743.1,466.2,747.5,466.2L747.5,466.2z M747.5,468.6c-3.1,0-5.6,2.6-5.6,5.6    c0,3.1,2.5,5.6,5.6,5.6c3.1,0,5.6-2.5,5.6-5.6C753.1,471.1,750.6,468.6,747.5,468.6L747.5,468.6z M747.5,434.4c4.4,0,8,3.6,8,8.1    c0,4.4-3.6,8-8,8c-4.4,0-8-3.6-8-8C739.5,438,743.1,434.4,747.5,434.4L747.5,434.4z M747.5,436.8c-3.1,0-5.6,2.5-5.6,5.6    c0,3.1,2.5,5.6,5.6,5.6c3.1,0,5.6-2.5,5.6-5.6C753.1,439.3,750.6,436.8,747.5,436.8L747.5,436.8z M1055.6,488.7c4.4,0,8,3.6,8,8    c0,4.5-3.6,8.1-8,8.1c-4.4,0-8-3.6-8-8.1C1047.5,492.3,1051.1,488.7,1055.6,488.7L1055.6,488.7z M1055.6,491.1    c-3.1,0-5.6,2.6-5.6,5.6c0,3.1,2.5,5.6,5.6,5.6c3.1,0,5.6-2.5,5.6-5.6C1061.2,493.6,1058.7,491.1,1055.6,491.1L1055.6,491.1z     M1023.8,488.7c4.4,0,8,3.6,8,8c0,4.5-3.6,8.1-8,8.1c-4.4,0-8-3.6-8-8.1C1015.8,492.3,1019.4,488.7,1023.8,488.7L1023.8,488.7z     M1023.8,491.1c-3.1,0-5.6,2.6-5.6,5.6c0,3.1,2.5,5.6,5.6,5.6c3.1,0,5.6-2.5,5.6-5.6C1029.5,493.6,1026.9,491.1,1023.8,491.1    L1023.8,491.1z M992.1,488.7c4.4,0,8,3.6,8,8c0,4.5-3.6,8.1-8,8.1c-4.4,0-8-3.6-8-8.1C984.1,492.3,987.7,488.7,992.1,488.7    L992.1,488.7z M992.1,491.1c-3.1,0-5.6,2.6-5.6,5.6c0,3.1,2.5,5.6,5.6,5.6c3.1,0,5.6-2.5,5.6-5.6    C997.7,493.6,995.2,491.1,992.1,491.1L992.1,491.1z M960.4,488.7c4.4,0,8,3.6,8,8c0,4.5-3.6,8.1-8,8.1c-4.4,0-8-3.6-8-8.1    C952.3,492.3,955.9,488.7,960.4,488.7L960.4,488.7z M960.4,491.1c-3.1,0-5.6,2.6-5.6,5.6c0,3.1,2.5,5.6,5.6,5.6    c3.1,0,5.6-2.5,5.6-5.6C966,493.6,963.5,491.1,960.4,491.1L960.4,491.1z M928.6,488.7c4.4,0,8,3.6,8,8c0,4.5-3.6,8.1-8,8.1    c-4.4,0-8-3.6-8-8.1C920.6,492.3,924.2,488.7,928.6,488.7L928.6,488.7z M928.6,491.1c-3.1,0-5.6,2.6-5.6,5.6    c0,3.1,2.5,5.6,5.6,5.6c3.1,0,5.6-2.5,5.6-5.6C934.2,493.6,931.7,491.1,928.6,491.1L928.6,491.1z M896.9,488.7c4.4,0,8,3.6,8,8    c0,4.5-3.6,8.1-8,8.1c-4.4,0-8-3.6-8-8.1C888.9,492.3,892.5,488.7,896.9,488.7L896.9,488.7z M896.9,491.1c-3.1,0-5.6,2.6-5.6,5.6    c0,3.1,2.5,5.6,5.6,5.6c3.1,0,5.6-2.5,5.6-5.6C902.5,493.6,900,491.1,896.9,491.1L896.9,491.1z M865.2,488.7c4.4,0,8,3.6,8,8    c0,4.5-3.6,8.1-8,8.1c-4.4,0-8-3.6-8-8.1C857.1,492.3,860.7,488.7,865.2,488.7L865.2,488.7z M865.2,491.1c-3.1,0-5.6,2.6-5.6,5.6    c0,3.1,2.5,5.6,5.6,5.6c3.1,0,5.6-2.5,5.6-5.6C870.8,493.6,868.3,491.1,865.2,491.1L865.2,491.1z M770,488.7c4.4,0,8,3.6,8,8    c0,4.5-3.6,8.1-8,8.1c-4.4,0-8-3.6-8-8.1C761.9,492.3,765.5,488.7,770,488.7L770,488.7z M770,491.1c-3.1,0-5.6,2.6-5.6,5.6    c0,3.1,2.5,5.6,5.6,5.6c3.1,0,5.6-2.5,5.6-5.6C775.6,493.6,773,491.1,770,491.1L770,491.1z M801.7,488.7c4.4,0,8,3.6,8,8    c0,4.5-3.6,8.1-8,8.1c-4.4,0-8-3.6-8-8.1C793.7,492.3,797.3,488.7,801.7,488.7L801.7,488.7z M801.7,491.1c-3.1,0-5.6,2.6-5.6,5.6    c0,3.1,2.5,5.6,5.6,5.6c3.1,0,5.6-2.5,5.6-5.6C807.3,493.6,804.8,491.1,801.7,491.1L801.7,491.1z M833.4,488.7c4.4,0,8,3.6,8,8    c0,4.5-3.6,8.1-8,8.1c-4.4,0-8-3.6-8-8.1C825.4,492.3,829,488.7,833.4,488.7L833.4,488.7z M833.4,491.1c-3.1,0-5.6,2.6-5.6,5.6    c0,3.1,2.5,5.6,5.6,5.6c3.1,0,5.6-2.5,5.6-5.6C839,493.6,836.5,491.1,833.4,491.1L833.4,491.1z M1055.6,411.9c4.4,0,8,3.6,8,8.1    c0,4.4-3.6,8-8,8c-4.4,0-8-3.6-8-8C1047.5,415.5,1051.1,411.9,1055.6,411.9L1055.6,411.9z M1055.6,414.3c-3.1,0-5.6,2.5-5.6,5.6    c0,3.1,2.5,5.6,5.6,5.6c3.1,0,5.6-2.5,5.6-5.6C1061.2,416.8,1058.7,414.3,1055.6,414.3L1055.6,414.3z M1023.8,411.9    c4.4,0,8,3.6,8,8.1c0,4.4-3.6,8-8,8c-4.4,0-8-3.6-8-8C1015.8,415.5,1019.4,411.9,1023.8,411.9L1023.8,411.9z M1023.8,414.3    c-3.1,0-5.6,2.5-5.6,5.6c0,3.1,2.5,5.6,5.6,5.6c3.1,0,5.6-2.5,5.6-5.6C1029.5,416.8,1026.9,414.3,1023.8,414.3L1023.8,414.3z     M992.1,411.9c4.4,0,8,3.6,8,8.1c0,4.4-3.6,8-8,8c-4.4,0-8-3.6-8-8C984.1,415.5,987.7,411.9,992.1,411.9L992.1,411.9z     M992.1,414.3c-3.1,0-5.6,2.5-5.6,5.6c0,3.1,2.5,5.6,5.6,5.6c3.1,0,5.6-2.5,5.6-5.6C997.7,416.8,995.2,414.3,992.1,414.3    L992.1,414.3z M960.4,411.9c4.4,0,8,3.6,8,8.1c0,4.4-3.6,8-8,8c-4.4,0-8-3.6-8-8C952.3,415.5,955.9,411.9,960.4,411.9L960.4,411.9    z M960.4,414.3c-3.1,0-5.6,2.5-5.6,5.6c0,3.1,2.5,5.6,5.6,5.6c3.1,0,5.6-2.5,5.6-5.6C966,416.8,963.5,414.3,960.4,414.3    L960.4,414.3z M928.6,411.9c4.4,0,8,3.6,8,8.1c0,4.4-3.6,8-8,8c-4.4,0-8-3.6-8-8C920.6,415.5,924.2,411.9,928.6,411.9L928.6,411.9    z M928.6,414.3c-3.1,0-5.6,2.5-5.6,5.6c0,3.1,2.5,5.6,5.6,5.6c3.1,0,5.6-2.5,5.6-5.6C934.2,416.8,931.7,414.3,928.6,414.3    L928.6,414.3z M896.9,411.9c4.4,0,8,3.6,8,8.1c0,4.4-3.6,8-8,8c-4.4,0-8-3.6-8-8C888.9,415.5,892.5,411.9,896.9,411.9L896.9,411.9    z M896.9,414.3c-3.1,0-5.6,2.5-5.6,5.6c0,3.1,2.5,5.6,5.6,5.6c3.1,0,5.6-2.5,5.6-5.6C902.5,416.8,900,414.3,896.9,414.3    L896.9,414.3z M865.2,411.9c4.4,0,8,3.6,8,8.1c0,4.4-3.6,8-8,8c-4.4,0-8-3.6-8-8C857.1,415.5,860.7,411.9,865.2,411.9L865.2,411.9    z M865.2,414.3c-3.1,0-5.6,2.5-5.6,5.6c0,3.1,2.5,5.6,5.6,5.6c3.1,0,5.6-2.5,5.6-5.6C870.8,416.8,868.2,414.3,865.2,414.3    L865.2,414.3z M770,411.9c4.4,0,8,3.6,8,8.1c0,4.4-3.6,8-8,8c-4.4,0-8-3.6-8-8C761.9,415.5,765.5,411.9,770,411.9L770,411.9z     M770,414.3c-3.1,0-5.6,2.5-5.6,5.6c0,3.1,2.5,5.6,5.6,5.6c3.1,0,5.6-2.5,5.6-5.6C775.6,416.8,773,414.3,770,414.3L770,414.3z     M801.7,411.9c4.4,0,8,3.6,8,8.1c0,4.4-3.6,8-8,8c-4.4,0-8-3.6-8-8C793.7,415.5,797.3,411.9,801.7,411.9L801.7,411.9z     M801.7,414.3c-3.1,0-5.6,2.5-5.6,5.6c0,3.1,2.5,5.6,5.6,5.6c3.1,0,5.6-2.5,5.6-5.6C807.3,416.8,804.8,414.3,801.7,414.3    L801.7,414.3z M738.4,442.4c0,3.6,1.2,6.2,2.3,8.6c1.1,2.3,2.1,4.5,2.1,7.3c0,2.8-1,5-2.1,7.3c-1.1,2.4-2.3,5-2.3,8.6    c0,2.5,1,4.8,2.6,6.4c1.6,1.6,3.9,2.7,6.4,2.7c2.5,0,4.8-1,6.4-2.7c1.6-1.6,2.6-3.9,2.6-6.4c0-3.5-1.2-6-2.3-8.2    c-1.1-2.3-2.2-4.5-2.2-7.7c0-3.1,1.1-5.3,2.2-7.7c1.1-2.3,2.3-4.7,2.3-8.2c0-2.5-1-4.8-2.6-6.4c-1.6-1.6-3.9-2.7-6.4-2.7    c-2.5,0-4.8,1-6.4,2.7C739.5,437.6,738.4,439.9,738.4,442.4L738.4,442.4z M738.6,452.1c-1.2-2.6-2.6-5.5-2.6-9.6    c0-3.2,1.3-6.1,3.4-8.1c2.1-2.1,4.9-3.4,8.1-3.4c3.2,0,6,1.3,8.1,3.4c2.1,2.1,3.4,4.9,3.4,8.1c0,4.1-1.3,6.7-2.5,9.3    c-1,2-1.9,4-1.9,6.6c0,2.6,1,4.5,1.9,6.6c1.2,2.6,2.5,5.2,2.5,9.3c0,3.2-1.3,6.1-3.4,8.1c-2.1,2.1-4.9,3.4-8.1,3.4    c-3.2,0-6-1.3-8.1-3.4c-2.1-2.1-3.4-5-3.4-8.1c0-4.2,1.4-7,2.6-9.7c1-2,1.9-3.9,1.9-6.2C740.5,456,739.6,454.1,738.6,452.1    L738.6,452.1z M960.4,485.2c4.2,0,7,1.3,9.6,2.6c2,1,4,1.9,6.2,1.9c2.2,0,4.2-0.9,6.2-1.9c2.6-1.3,5.5-2.6,9.6-2.6    c3.2,0,6,1.3,8.1,3.4c2.1,2.1,3.3,4.9,3.3,8.1c0,3.2-1.3,6.1-3.3,8.1c-2.1,2.1-5,3.4-8.1,3.4c-4.1,0-6.8-1.3-9.3-2.5    c-2.1-1-4-1.9-6.6-1.9c-2.6,0-4.5,1-6.6,1.9c-2.5,1.2-5.2,2.5-9.3,2.5c-3.2,0-6-1.3-8.1-3.4c-2.1-2.1-3.4-5-3.4-8.1    c0-3.2,1.3-6,3.4-8.1C954.3,486.5,957.2,485.2,960.4,485.2L960.4,485.2z M969,490c-2.4-1.1-5-2.3-8.6-2.3c-2.5,0-4.8,1-6.4,2.7    c-1.7,1.6-2.6,3.9-2.6,6.4c0,2.5,1,4.8,2.6,6.4c1.6,1.6,3.9,2.7,6.4,2.7c3.6,0,5.9-1.2,8.3-2.3c2.3-1.1,4.5-2.2,7.6-2.2    c3.1,0,5.3,1.1,7.6,2.2c2.3,1.1,4.7,2.3,8.3,2.3c2.5,0,4.8-1,6.4-2.7c1.7-1.6,2.7-3.9,2.7-6.4c0-2.5-1-4.8-2.7-6.4    c-1.6-1.6-3.9-2.7-6.4-2.7c-3.6,0-6.2,1.2-8.6,2.3c-2.3,1.1-4.4,2.1-7.2,2.1C973.4,492.1,971.3,491.1,969,490L969,490z     M896.9,485.2c4.1,0,7,1.3,9.6,2.6c2,1,3.9,1.9,6.2,1.9c2.3,0,4.2-0.9,6.2-1.9c2.6-1.3,5.5-2.6,9.6-2.6c3.2,0,6,1.3,8.1,3.4    c2.1,2.1,3.4,4.9,3.4,8.1c0,3.2-1.3,6.1-3.4,8.1c-2.1,2.1-4.9,3.4-8.1,3.4c-4.1,0-6.7-1.3-9.3-2.5c-2-1-4-1.9-6.6-1.9    c-2.6,0-4.5,1-6.6,1.9c-2.5,1.2-5.2,2.5-9.3,2.5c-3.2,0-6-1.3-8.1-3.4c-2.1-2.1-3.4-5-3.4-8.1c0-3.2,1.3-6,3.4-8.1    C890.9,486.5,893.7,485.2,896.9,485.2L896.9,485.2z M905.5,490c-2.4-1.1-5-2.3-8.6-2.3c-2.5,0-4.8,1-6.4,2.7    c-1.6,1.6-2.6,3.9-2.6,6.4c0,2.5,1,4.8,2.6,6.4c1.6,1.6,3.9,2.7,6.4,2.7c3.5,0,5.9-1.2,8.2-2.3c2.3-1.1,4.5-2.2,7.6-2.2    c3.1,0,5.3,1.1,7.6,2.2c2.3,1.1,4.7,2.3,8.2,2.3c2.5,0,4.8-1,6.4-2.7c1.6-1.6,2.6-3.9,2.6-6.4c0-2.5-1-4.8-2.6-6.4    c-1.6-1.6-3.9-2.7-6.4-2.7c-3.6,0-6.2,1.2-8.6,2.3c-2.3,1.1-4.5,2.1-7.3,2.1S907.8,491.1,905.5,490L905.5,490z M770,485.2    c4.1,0,7,1.3,9.6,2.6c2.1,1,4,1.9,6.2,1.9c2.3,0,4.2-0.9,6.2-1.9c2.6-1.3,5.5-2.6,9.6-2.6c3.2,0,6,1.3,8.1,3.4    c2.1,2.1,3.4,4.9,3.4,8.1c0,3.2-1.3,6.1-3.4,8.1c-2.1,2.1-5,3.4-8.1,3.4c-4.1,0-6.7-1.3-9.3-2.5c-2.1-1-4-1.9-6.6-1.9    c-2.6,0-4.5,1-6.6,1.9c-2.5,1.2-5.2,2.5-9.3,2.5c-3.2,0-6-1.3-8.1-3.4c-2.1-2.1-3.4-5-3.4-8.1c0-3.2,1.3-6,3.4-8.1    S766.8,485.2,770,485.2L770,485.2z M778.5,490c-2.4-1.1-5-2.3-8.6-2.3c-2.5,0-4.8,1-6.4,2.7c-1.6,1.6-2.6,3.9-2.6,6.4    c0,2.5,1,4.8,2.6,6.4c1.6,1.6,3.9,2.7,6.4,2.7c3.5,0,5.9-1.2,8.2-2.3c2.3-1.1,4.5-2.2,7.6-2.2c3.1,0,5.3,1.1,7.6,2.2    c2.3,1.1,4.7,2.3,8.2,2.3c2.5,0,4.8-1,6.4-2.7s2.6-3.9,2.6-6.4c0-2.5-1-4.8-2.6-6.4c-1.6-1.6-3.9-2.7-6.4-2.7    c-3.6,0-6.2,1.2-8.6,2.3c-2.3,1.1-4.5,2.1-7.3,2.1S780.9,491.1,778.5,490L778.5,490z M833.4,485.2c4.2,0,7,1.3,9.6,2.6    c2,1,4,1.9,6.2,1.9c2.3,0,4.2-0.9,6.2-1.9c2.6-1.3,5.5-2.6,9.6-2.6c3.2,0,6,1.3,8.1,3.4s3.4,4.9,3.4,8.1c0,3.2-1.3,6.1-3.4,8.1    c-2.1,2.1-4.9,3.4-8.1,3.4c-4.1,0-6.8-1.3-9.3-2.5c-2.1-1-4-1.9-6.6-1.9c-2.5,0-4.5,1-6.6,1.9c-2.5,1.2-5.2,2.5-9.3,2.5    c-3.2,0-6-1.3-8.1-3.4c-2.1-2.1-3.3-5-3.3-8.1c0-3.2,1.3-6,3.3-8.1C827.4,486.5,830.3,485.2,833.4,485.2L833.4,485.2z M842,490    c-2.4-1.1-5-2.3-8.6-2.3c-2.5,0-4.8,1-6.4,2.7c-1.7,1.6-2.6,3.9-2.6,6.4c0,2.5,1,4.8,2.6,6.4c1.6,1.6,3.9,2.7,6.4,2.7    c3.6,0,5.9-1.2,8.3-2.3c2.3-1.1,4.5-2.2,7.6-2.2c3.1,0,5.3,1.1,7.6,2.2c2.3,1.1,4.7,2.3,8.3,2.3c2.5,0,4.8-1,6.4-2.7    c1.7-1.6,2.6-3.9,2.6-6.4c0-2.5-1-4.8-2.6-6.4c-1.6-1.6-3.9-2.7-6.4-2.7c-3.6,0-6.2,1.2-8.6,2.3c-2.3,1.1-4.4,2.1-7.3,2.1    C846.5,492.1,844.3,491.1,842,490L842,490z M1055.6,508.2c-4.1,0-7-1.4-9.6-2.6c-2.1-1-4-1.9-6.2-1.9c-2.3,0-4.2,0.9-6.2,1.9    c-2.6,1.2-5.5,2.6-9.6,2.6l0,0c-3.2,0-6-1.3-8.1-3.4c-2.1-2.1-3.4-5-3.4-8.1l0,0c0-3.2,1.3-6,3.4-8.1c2.1-2.1,5-3.4,8.1-3.4    c4.1,0,6.7,1.3,9.3,2.5c2.1,1,4,1.9,6.6,1.9c2.6,0,4.5-1,6.6-1.9c2.5-1.2,5.2-2.5,9.3-2.5c3.2,0,6,1.3,8.1,3.4    c2.1,2.1,3.4,4.9,3.4,8.1l0,0c0,3.2-1.3,6.1-3.4,8.1C1061.6,506.9,1058.7,508.2,1055.6,508.2L1055.6,508.2z M1047,503.5    c2.4,1.1,5,2.3,8.6,2.3l0,0c2.5,0,4.8-1,6.4-2.7c1.6-1.6,2.6-3.9,2.6-6.4l0,0c0-2.5-1-4.8-2.6-6.4c-1.6-1.6-3.9-2.7-6.4-2.7    c-3.5,0-5.9,1.2-8.2,2.2c-2.3,1.1-4.5,2.2-7.6,2.2c-3.1,0-5.3-1.1-7.6-2.2c-2.3-1.1-4.7-2.2-8.2-2.2c-2.5,0-4.8,1-6.4,2.7    c-1.6,1.6-2.6,3.9-2.6,6.4l0,0c0,2.5,1,4.8,2.6,6.4c1.6,1.6,3.9,2.7,6.4,2.7l0,0c3.6,0,6.2-1.2,8.6-2.3c2.3-1.1,4.5-2.1,7.3-2.1    C1042.5,501.3,1044.7,502.4,1047,503.5L1047,503.5z M1089.5,442.4c0,4.2-1.4,7-2.6,9.6c-1,2.1-1.9,4-1.9,6.3    c0,2.3,0.9,4.2,1.9,6.2c1.2,2.7,2.6,5.5,2.6,9.7l0,0c0,3.2-1.3,6.1-3.4,8.1s-4.9,3.4-8.1,3.4l0,0c-3.2,0-6-1.3-8.1-3.4    c-2.1-2.1-3.4-5-3.4-8.1c0-4.1,1.3-6.7,2.5-9.3c1-2.1,1.9-4,1.9-6.6c0-2.6-1-4.6-1.9-6.6c-1.2-2.6-2.5-5.2-2.5-9.3    c0-3.2,1.3-6.1,3.4-8.1c2.1-2.1,4.9-3.4,8.1-3.4c3.2,0,6,1.3,8.1,3.4S1089.5,439.2,1089.5,442.4L1089.5,442.4z M1084.7,451    c1.1-2.4,2.3-5,2.3-8.6l0,0c0-2.5-1-4.8-2.6-6.4c-1.6-1.6-3.9-2.7-6.4-2.7c-2.5,0-4.8,1-6.4,2.7c-1.6,1.6-2.6,3.9-2.6,6.4    c0,3.5,1.2,6,2.3,8.2c1.1,2.3,2.2,4.5,2.2,7.7c0,3.1-1.1,5.3-2.2,7.7c-1.1,2.3-2.3,4.7-2.3,8.2c0,2.5,1,4.8,2.6,6.4    c1.6,1.6,3.9,2.7,6.4,2.7l0,0c2.5,0,4.8-1,6.4-2.7c1.6-1.6,2.6-3.9,2.6-6.4l0,0c0-3.6-1.2-6.2-2.3-8.6c-1.1-2.3-2.1-4.5-2.1-7.3    C1082.6,455.5,1083.6,453.4,1084.7,451L1084.7,451z M1023.8,408.4c4.1,0,7,1.4,9.6,2.6c2,1,3.9,1.9,6.2,1.9c2.3,0,4.2-0.9,6.2-1.9    c2.6-1.2,5.5-2.6,9.6-2.6c3.2,0,6,1.3,8.1,3.4c2.1,2.1,3.4,4.9,3.4,8.1c0,3.2-1.3,6-3.4,8.1c-2.1,2.1-4.9,3.4-8.1,3.4    c-4.1,0-6.7-1.3-9.3-2.5c-2-1-4-1.9-6.6-1.9c-2.6,0-4.5,1-6.6,1.9c-2.5,1.2-5.2,2.5-9.3,2.5c-3.2,0-6-1.3-8.1-3.4    c-2.1-2.1-3.4-4.9-3.4-8.1c0-3.2,1.3-6.1,3.4-8.1C1017.8,409.7,1020.7,408.4,1023.8,408.4L1023.8,408.4z M1032.4,413.2    c-2.4-1.1-5-2.3-8.6-2.3c-2.5,0-4.8,1-6.4,2.7c-1.6,1.6-2.6,3.9-2.6,6.4c0,2.5,1,4.8,2.6,6.4c1.6,1.6,3.9,2.7,6.4,2.7    c3.5,0,5.9-1.2,8.2-2.3c2.3-1.1,4.5-2.2,7.6-2.2c3.1,0,5.3,1.1,7.6,2.2c2.3,1.1,4.7,2.3,8.2,2.3c2.5,0,4.8-1,6.4-2.7    c1.6-1.6,2.6-3.9,2.6-6.4c0-2.5-1-4.8-2.6-6.4c-1.6-1.6-3.9-2.7-6.4-2.7c-3.6,0-6.2,1.2-8.6,2.3c-2.3,1.1-4.5,2.1-7.3,2.1    C1036.9,415.3,1034.7,414.3,1032.4,413.2L1032.4,413.2z M960.4,408.4c4.2,0,7,1.4,9.6,2.6c2,1,4,1.9,6.2,1.9    c2.2,0,4.2-0.9,6.2-1.9c2.6-1.2,5.5-2.6,9.6-2.6c3.2,0,6,1.3,8.1,3.4c2.1,2.1,3.3,4.9,3.3,8.1c0,3.2-1.3,6-3.3,8.1    c-2.1,2.1-5,3.4-8.1,3.4c-4.1,0-6.8-1.3-9.3-2.5c-2.1-1-4-1.9-6.6-1.9c-2.6,0-4.5,1-6.6,1.9c-2.5,1.2-5.2,2.5-9.3,2.5    c-3.2,0-6-1.3-8.1-3.4c-2.1-2.1-3.4-4.9-3.4-8.1c0-3.2,1.3-6.1,3.4-8.1C954.3,409.7,957.2,408.4,960.4,408.4L960.4,408.4z     M969,413.2c-2.4-1.1-5-2.3-8.6-2.3c-2.5,0-4.8,1-6.4,2.7c-1.7,1.6-2.6,3.9-2.6,6.4c0,2.5,1,4.8,2.6,6.4c1.6,1.6,3.9,2.7,6.4,2.7    c3.6,0,5.9-1.2,8.3-2.3c2.3-1.1,4.5-2.2,7.6-2.2c3.1,0,5.3,1.1,7.6,2.2c2.3,1.1,4.7,2.3,8.3,2.3c2.5,0,4.8-1,6.4-2.7    c1.7-1.6,2.7-3.9,2.7-6.4c0-2.5-1-4.8-2.7-6.4c-1.6-1.6-3.9-2.7-6.4-2.7c-3.6,0-6.2,1.2-8.6,2.3c-2.3,1.1-4.4,2.1-7.2,2.1    C973.4,415.3,971.3,414.3,969,413.2L969,413.2z M896.9,408.4c4.1,0,7,1.4,9.6,2.6c2,1,3.9,1.9,6.2,1.9c2.3,0,4.2-0.9,6.2-1.9    c2.6-1.2,5.5-2.6,9.6-2.6c3.2,0,6,1.3,8.1,3.4c2.1,2.1,3.4,4.9,3.4,8.1c0,3.2-1.3,6-3.4,8.1c-2.1,2.1-4.9,3.4-8.1,3.4    c-4.1,0-6.7-1.3-9.3-2.5c-2-1-4-1.9-6.6-1.9c-2.6,0-4.5,1-6.6,1.9c-2.5,1.2-5.2,2.5-9.3,2.5c-3.2,0-6-1.3-8.1-3.4    c-2.1-2.1-3.4-4.9-3.4-8.1c0-3.2,1.3-6.1,3.4-8.1C890.9,409.7,893.7,408.4,896.9,408.4L896.9,408.4z M905.5,413.2    c-2.4-1.1-5-2.3-8.6-2.3c-2.5,0-4.8,1-6.4,2.7c-1.6,1.6-2.6,3.9-2.6,6.4c0,2.5,1,4.8,2.6,6.4c1.6,1.6,3.9,2.7,6.4,2.7    c3.5,0,5.9-1.2,8.2-2.3c2.3-1.1,4.5-2.2,7.6-2.2c3.1,0,5.3,1.1,7.6,2.2c2.3,1.1,4.7,2.3,8.2,2.3c2.5,0,4.8-1,6.4-2.7    c1.6-1.6,2.6-3.9,2.6-6.4c0-2.5-1-4.8-2.6-6.4c-1.6-1.6-3.9-2.7-6.4-2.7c-3.6,0-6.2,1.2-8.6,2.3c-2.3,1.1-4.5,2.1-7.3,2.1    S907.8,414.3,905.5,413.2L905.5,413.2z M770,408.4c4.1,0,7,1.4,9.6,2.6c2.1,1,4,1.9,6.2,1.9c2.3,0,4.2-0.9,6.2-1.9    c2.6-1.2,5.5-2.6,9.6-2.6c3.2,0,6,1.3,8.1,3.4c2.1,2.1,3.4,4.9,3.4,8.1c0,3.2-1.3,6-3.4,8.1c-2.1,2.1-5,3.4-8.1,3.4    c-4.1,0-6.7-1.3-9.3-2.5c-2.1-1-4-1.9-6.6-1.9c-2.6,0-4.5,1-6.6,1.9c-2.5,1.2-5.2,2.5-9.3,2.5c-3.2,0-6-1.3-8.1-3.4    s-3.4-4.9-3.4-8.1c0-3.2,1.3-6.1,3.4-8.1C763.9,409.7,766.8,408.4,770,408.4L770,408.4z M778.5,413.2c-2.4-1.1-5-2.3-8.6-2.3    c-2.5,0-4.8,1-6.4,2.7c-1.6,1.6-2.6,3.9-2.6,6.4c0,2.5,1,4.8,2.6,6.4c1.6,1.6,3.9,2.7,6.4,2.7c3.5,0,5.9-1.2,8.2-2.3    c2.3-1.1,4.5-2.2,7.6-2.2c3.1,0,5.3,1.1,7.6,2.2c2.3,1.1,4.7,2.3,8.2,2.3c2.5,0,4.8-1,6.4-2.7c1.6-1.6,2.6-3.9,2.6-6.4    c0-2.5-1-4.8-2.6-6.4c-1.6-1.6-3.9-2.7-6.4-2.7c-3.6,0-6.2,1.2-8.6,2.3c-2.3,1.1-4.5,2.1-7.3,2.1S780.9,414.3,778.5,413.2    L778.5,413.2z M833.4,411.9c4.4,0,8,3.6,8,8.1c0,4.4-3.6,8-8,8c-4.4,0-8-3.6-8-8C825.4,415.5,829,411.9,833.4,411.9L833.4,411.9z     M833.4,414.3c-3.1,0-5.6,2.5-5.6,5.6c0,3.1,2.5,5.6,5.6,5.6c3.1,0,5.6-2.5,5.6-5.6C839,416.8,836.5,414.3,833.4,414.3    L833.4,414.3z M842,413.2c-2.4-1.1-5-2.3-8.6-2.3c-2.5,0-4.8,1-6.4,2.7c-1.7,1.6-2.6,3.9-2.6,6.4c0,2.5,1,4.8,2.6,6.4    c1.6,1.6,3.9,2.7,6.4,2.7c3.6,0,5.9-1.2,8.3-2.3c2.3-1.1,4.5-2.2,7.6-2.2c3.1,0,5.3,1.1,7.6,2.2c2.3,1.1,4.7,2.3,8.3,2.3    c2.5,0,4.8-1,6.4-2.7c1.7-1.6,2.6-3.9,2.6-6.4c0-2.5-1-4.8-2.6-6.4c-1.6-1.6-3.9-2.7-6.4-2.7c-3.6,0-6.2,1.2-8.6,2.3    c-2.3,1.1-4.4,2.1-7.3,2.1C846.5,415.3,844.3,414.3,842,413.2L842,413.2z" class="st2" id="XMLID_478_"/>
		<path d="M749.9,485.5c2,0.7,3.9,1.6,5.6,3.3c1.7,1.7,2.5,3.6,3.3,5.6c0.5-2.2,1.6-4.2,3.1-5.7    c1.5-1.5,3.4-2.6,5.5-3.1c-1.9-0.7-3.7-1.6-5.4-3.3c-1.7-1.7-2.6-3.5-3.3-5.4c-0.5,2.1-1.6,4-3.1,5.5    C754.1,483.9,752.1,485,749.9,485.5L749.9,485.5z M1014.2,413.7c-2,0.9-3.9,1.6-6.3,1.6c-2.4,0-4.3-0.7-6.2-1.6    c1.2,1.8,1.8,3.9,1.8,6.3c0,2.2-0.6,4.3-1.7,6.1c1.8-0.8,3.7-1.5,6.1-1.5c2.5,0,4.3,0.7,6.2,1.5c-1.1-1.8-1.8-3.9-1.8-6.1    C1012.4,417.6,1013,415.5,1014.2,413.7L1014.2,413.7z M1075.6,431.2c-2-0.7-3.9-1.6-5.6-3.3c-1.7-1.7-2.5-3.6-3.3-5.6    c-0.5,2.2-1.6,4.2-3.1,5.7c-1.5,1.5-3.4,2.6-5.5,3.1c1.9,0.7,3.7,1.6,5.4,3.3c1.7,1.7,2.6,3.5,3.3,5.4c0.5-2.1,1.6-4,3.1-5.5    C1071.4,432.8,1073.4,431.6,1075.6,431.2L1075.6,431.2z M1066.8,494.3c0.7-2,1.6-3.9,3.3-5.6c1.7-1.7,3.6-2.6,5.6-3.3    c-2.2-0.4-4.2-1.6-5.7-3.1c-1.5-1.5-2.6-3.4-3.1-5.5c-0.7,1.9-1.6,3.7-3.3,5.4c-1.7,1.7-3.5,2.6-5.4,3.3c2.1,0.5,4,1.6,5.5,3.1    C1065.2,490.1,1066.3,492.1,1066.8,494.3L1066.8,494.3z M1014.2,490.5c-2,0.9-3.9,1.7-6.3,1.7c-2.4,0-4.3-0.7-6.2-1.7    c1.2,1.8,1.8,4,1.8,6.3c0,2.2-0.6,4.4-1.7,6.1c1.8-0.9,3.7-1.5,6.1-1.5c2.5,0,4.3,0.6,6.2,1.5c-1.1-1.8-1.8-3.9-1.8-6.1l0,0    C1012.4,494.4,1013,492.3,1014.2,490.5L1014.2,490.5z M950.7,490.5c-1.9,0.9-3.9,1.7-6.2,1.7c-2.4,0-4.3-0.7-6.3-1.7    c1.2,1.8,1.9,4,1.9,6.3c0,2.2-0.6,4.4-1.8,6.1c1.8-0.9,3.7-1.5,6.2-1.5c2.4,0,4.3,0.6,6.1,1.5c-1.1-1.8-1.7-3.9-1.7-6.1    C948.9,494.4,949.6,492.3,950.7,490.5L950.7,490.5z M950.7,413.7c-1.9,0.9-3.9,1.6-6.2,1.6c-2.4,0-4.3-0.7-6.3-1.6    c1.2,1.8,1.9,3.9,1.9,6.3c0,2.2-0.6,4.3-1.8,6.1c1.8-0.8,3.7-1.5,6.2-1.5c2.4,0,4.3,0.7,6.1,1.5c-1.1-1.8-1.7-3.9-1.7-6.1    C948.9,417.6,949.6,415.5,950.7,413.7L950.7,413.7z M874.8,413.7c1.2,1.8,1.8,3.9,1.8,6.3c0,2.2-0.6,4.3-1.7,6.1    c1.8-0.8,3.7-1.5,6.1-1.5c2.4,0,4.3,0.7,6.2,1.5c-1.1-1.8-1.8-3.9-1.8-6.1c0-2.3,0.7-4.5,1.9-6.3c-2,0.9-3.9,1.6-6.3,1.6    C878.6,415.3,876.7,414.6,874.8,413.7L874.8,413.7z M887.3,490.5c-2,0.9-3.9,1.7-6.3,1.7c-2.4,0-4.3-0.7-6.2-1.7    c1.2,1.8,1.8,4,1.8,6.3c0,2.2-0.6,4.4-1.7,6.1c1.8-0.9,3.7-1.5,6.1-1.5c2.4,0,4.3,0.6,6.2,1.5c-1.1-1.8-1.8-3.9-1.8-6.1    C885.4,494.4,886.1,492.3,887.3,490.5L887.3,490.5z M823.8,490.5c-1.9,0.9-3.9,1.7-6.2,1.7c-2.4,0-4.3-0.7-6.3-1.7    c1.2,1.8,1.9,4,1.9,6.3c0,2.2-0.6,4.4-1.8,6.1c1.8-0.9,3.7-1.5,6.2-1.5c2.4,0,4.3,0.6,6.1,1.5c-1.1-1.8-1.7-3.9-1.7-6.1    C822,494.4,822.6,492.3,823.8,490.5L823.8,490.5z M823.7,426c-1.1-1.8-1.7-3.9-1.7-6.1c0-2.3,0.7-4.5,1.8-6.3    c-1.9,0.9-3.9,1.6-6.2,1.6c-2.4,0-4.3-0.7-6.3-1.6c1.2,1.8,1.9,3.9,1.9,6.3c0,2.2-0.6,4.3-1.8,6.1c1.8-0.8,3.7-1.5,6.2-1.5    C820,424.5,821.9,425.2,823.7,426L823.7,426z M758.7,422.3c-0.7,2-1.6,3.9-3.3,5.6c-1.7,1.7-3.6,2.5-5.6,3.3    c2.2,0.5,4.2,1.6,5.7,3.1c1.5,1.5,2.6,3.4,3.1,5.5c0.7-1.9,1.6-3.7,3.3-5.4c1.7-1.7,3.5-2.6,5.4-3.3c-2.1-0.5-4-1.6-5.5-3.1    C760.3,426.5,759.2,424.5,758.7,422.3L758.7,422.3z" class="st4" id="XMLID_465_"/>
	</g>
</g>
<g id="Layer_8">
	<g id="XMLID_567_">
		<path d="M230.2,851.7c-5.3-1.2-9.1-6-9.1-11.4v-13h-5.9v-18.7h5.9v-13c0-5.5,3.8-10.2,9.1-11.5v-4.4    h91.3v4.4c5.3,1.2,9.1,6,9.1,11.5v13h7.1V642.3c0-5.1,4.2-9.4,9.3-9.4h18.8v18.7h-9.5v4.4h9.5v7.2h-9.5v154.6    c0,5.1-4.2,9.4-9.3,9.4h-16.4v13c0,5.4-3.8,10.2-9.1,11.4v4.4h-91.3V851.7z M508.3,637.4c5.3,1.2,9.1,6,9.1,11.4v13h5.9v18.7h-5.9    v13c0,5.5-3.8,10.2-9.1,11.5v4.4h-91.3v-4.4c-5.3-1.2-9.1-6-9.1-11.5v-13h-7.1v166.2c0,5.1-4.2,9.4-9.3,9.4h-18.8v-18.7h9.5V833    h-9.5v-7.2h9.5V671.1c0-5.1,4.2-9.4,9.3-9.4H408v-13c0-5.4,3.8-10.2,9.1-11.4V633h91.3V637.4z M492.1,693.7h13.6    c0.1,0,0.2-0.1,0.2-0.2v-10.1h-13.8V693.7z M505.7,648.6h-13.6v10.3h13.8v-10.1C505.9,648.7,505.8,648.6,505.7,648.6L505.7,648.6z     M482.2,648.6h-14.5v10.3h14.5V648.6z M457.8,648.6h-14.5v10.3h14.5V648.6z M433.3,648.6h-13.6c-0.1,0-0.2,0.1-0.2,0.2v10.1h13.9    V648.6z M419.5,683.3v10.1c0,0.1,0.1,0.2,0.2,0.2h13.6v-10.3H419.5z M443.2,693.7h14.5v-10.3h-14.5V693.7z M467.7,693.7h14.5    v-10.3h-14.5V693.7z M246.4,795.4h-13.6c-0.1,0-0.2,0.1-0.2,0.2v10.1h13.8V795.4z M232.8,840.4h13.6v-10.3h-13.8v10.1    C232.6,840.3,232.7,840.4,232.8,840.4L232.8,840.4z M256.3,840.4h14.5v-10.3h-14.5V840.4z M280.8,840.4h14.5v-10.3h-14.5V840.4z     M305.2,840.4h13.6c0.1,0,0.2-0.1,0.2-0.2v-10.1h-13.8V840.4z M319,805.7v-10.1c0-0.1-0.1-0.2-0.2-0.2h-13.6v10.3H319z     M295.3,795.4h-14.5v10.3h14.5V795.4z M270.9,795.4h-14.5v10.3h14.5V795.4z" class="st1" id="XMLID_569_"/>
		<path d="M368.4,823.8h7.1v-2.4h-7.1V823.8z M501.6,630.6c5.3,1.2,9.1,6,9.1,11.4v13h5.9v18.7h-5.9v13    c0,5.5-3.8,10.2-9.1,11.5v4.4h-91.3v-4.4c-5.3-1.2-9.1-6-9.1-11.5v-13h-7.1v166.2c0,5.1-4.2,9.4-9.3,9.4H366v-18.7h9.5v-4.4H366    v-7.2h9.5V664.3c0-5.1,4.2-9.4,9.3-9.4h16.4v-13c0-5.4,3.8-10.2,9.1-11.4v-4.4h91.3V630.6z M412.9,632.7c-5.1,0-9.3,4.2-9.3,9.3    c0,14.9,0,29.7,0,44.6c0,5.1,4.2,9.4,9.3,9.4h86c5.1,0,9.3-4.2,9.3-9.4c0-14.9,0-29.7,0-44.6c0-5.1-4.2-9.3-9.3-9.3H412.9z     M412.9,639.3h86c1.5,0,2.6,1.2,2.6,2.7v44.6c0,1.5-1.2,2.7-2.6,2.7h-86c-1.5,0-2.6-1.2-2.6-2.7V642    C410.3,640.5,411.4,639.3,412.9,639.3L412.9,639.3z M498.9,641.8h-13.6v10.3h13.8V642C499.1,641.9,499,641.8,498.9,641.8    L498.9,641.8z M475.4,641.8h-14.5v10.3h14.5V641.8z M451,641.8h-14.5v10.3H451V641.8z M426.5,641.8h-13.6c-0.1,0-0.2,0.1-0.2,0.2    v10.1h13.9V641.8z M412.7,676.5v10.1c0,0.1,0.1,0.2,0.2,0.2h13.6v-10.3H412.7z M428.9,686.8h5.1v-10.3h-5.1V686.8z M436.4,686.8    H451v-10.3h-14.5V686.8z M453.3,686.8h5.1v-10.3h-5.1V686.8z M460.9,686.8h14.5v-10.3h-14.5V686.8z M477.8,686.8h5.1v-10.3h-5.1    V686.8z M485.3,686.8h13.6c0.1,0,0.2-0.1,0.2-0.2v-10.1h-13.8V686.8z M499.1,654.5c-28.8,0-57.6,0-86.5,0v19.6    c28.8,0,57.6,0,86.5,0V654.5z M458.5,641.8h-5.1v10.3h5.1V641.8z M434,641.8h-5.1v10.3h5.1V641.8z M482.9,641.8h-5.1v10.3h5.1    V641.8z M514.1,657.4h-3.5v13.9h3.5V657.4z M499.1,628.6h-86.5v1.7h86.5V628.6z M499.1,698.4h-86.5v1.7h86.5V698.4z M391.7,839.9    V671.2h9.5v-13.9h-16.4c-3.8,0-6.9,3.1-6.9,6.9v168.6h-9.5v13.9h16.4C388.6,846.8,391.7,843.7,391.7,839.9L391.7,839.9z" class="st2" id="XMLID_588_"/>
		<path d="M499.1,698.4h-86.5v1.7h86.5V698.4z M499.1,654.5c-28.8,0-57.6,0-86.5,0v19.6    c28.8,0,57.6,0,86.5,0V654.5z M412.9,632.7c-5.1,0-9.3,4.2-9.3,9.3c0,14.9,0,29.7,0,44.6c0,5.1,4.2,9.4,9.3,9.4h86    c5.1,0,9.3-4.2,9.3-9.4c0-14.9,0-29.7,0-44.6c0-5.1-4.2-9.3-9.3-9.3H412.9z M477.8,686.8h5.1v-10.3h-5.1V686.8z M482.9,641.8h-5.1    v10.3h5.1V641.8z M458.5,641.8h-5.1v10.3h5.1V641.8z M434,641.8h-5.1v10.3h5.1V641.8z M428.9,686.8h5.1v-10.3h-5.1V686.8z     M453.3,686.8h5.1v-10.3h-5.1V686.8z M412.9,639.3h86c1.5,0,2.6,1.2,2.6,2.7v44.6c0,1.5-1.2,2.7-2.6,2.7h-86    c-1.5,0-2.6-1.2-2.6-2.7V642C410.3,640.5,411.4,639.3,412.9,639.3L412.9,639.3z M499.1,628.6h-86.5v1.7h86.5V628.6z" class="st3" id="XMLID_612_"/>
		<path d="M356.5,651.7h-7.1v2.4h7.1V651.7z M223.4,844.9c-5.3-1.2-9.1-6-9.1-11.4v-13h-5.9v-18.7h5.9    v-13c0-5.5,3.8-10.2,9.1-11.5V773h91.3v4.4c5.3,1.2,9.1,6,9.1,11.5v13h7.1V635.5c0-5.1,4.2-9.4,9.3-9.4h18.8v18.7h-9.5v4.4h9.5    v7.2h-9.5v154.6c0,5.1-4.2,9.4-9.3,9.4h-16.4v13c0,5.4-3.8,10.2-9.1,11.4v4.4h-91.3V844.9z M312,842.7c5.1,0,9.3-4.2,9.3-9.3    c0-14.9,0-29.7,0-44.6c0-5.1-4.2-9.4-9.3-9.4h-86c-5.1,0-9.3,4.2-9.3,9.4c0,14.9,0,29.7,0,44.6c0,5.1,4.2,9.3,9.3,9.3H312z     M312,836h-86c-1.4,0-2.6-1.2-2.6-2.6v-44.6c0-1.5,1.2-2.7,2.6-2.7h86c1.4,0,2.6,1.2,2.6,2.7v44.6C314.6,834.9,313.5,836,312,836    L312,836z M226,833.6h13.6v-10.3h-13.8v10.1C225.8,833.5,225.9,833.6,226,833.6L226,833.6z M249.5,833.6h14.5v-10.3h-14.5V833.6z     M274,833.6h14.5v-10.3H274V833.6z M298.4,833.6H312c0.1,0,0.2-0.1,0.2-0.2v-10.1h-13.8V833.6z M312.2,798.9v-10.1    c0-0.1-0.1-0.2-0.2-0.2h-13.6v10.3H312.2z M296,788.6h-5.1v10.3h5.1V788.6z M288.5,788.6H274v10.3h14.5V788.6z M271.6,788.6h-5.1    v10.3h5.1V788.6z M264.1,788.6h-14.5v10.3h14.5V788.6z M247.2,788.6H242v10.3h5.1V788.6z M239.6,788.6H226c-0.1,0-0.2,0.1-0.2,0.2    v10.1h13.8V788.6z M225.8,820.9c28.8,0,57.6,0,86.4,0v-19.6c-28.8,0-57.6,0-86.4,0V820.9z M266.5,833.6h5.1v-10.3h-5.1V833.6z     M290.9,833.6h5.1v-10.3h-5.1V833.6z M242,833.6h5.1v-10.3H242V833.6z M210.8,818h3.5v-13.9h-3.5V818z M225.8,846.8h86.4v-1.7    h-86.4V846.8z M225.8,777h86.4v-1.6h-86.4V777z M333.2,635.5v168.6h-9.5V818h16.4c3.8,0,6.9-3.1,6.9-6.9V642.4h9.5v-13.9h-16.4    C336.3,628.6,333.2,631.7,333.2,635.5L333.2,635.5z" class="st2" id="XMLID_624_"/>
		<path d="M225.8,777h86.4v-1.6h-86.4V777z M225.8,820.9c28.8,0,57.6,0,86.4,0v-19.6    c-28.8,0-57.6,0-86.4,0V820.9z M312,842.7c5.1,0,9.3-4.2,9.3-9.3c0-14.9,0-29.7,0-44.6c0-5.1-4.2-9.4-9.3-9.4h-86    c-5.1,0-9.3,4.2-9.3,9.4c0,14.9,0,29.7,0,44.6c0,5.1,4.2,9.3,9.3,9.3H312z M247.2,788.6H242v10.3h5.1V788.6z M242,833.6h5.1v-10.3    H242V833.6z M266.5,833.6h5.1v-10.3h-5.1V833.6z M290.9,833.6h5.1v-10.3h-5.1V833.6z M296,788.6h-5.1v10.3h5.1V788.6z     M271.6,788.6h-5.1v10.3h5.1V788.6z M312,836h-86c-1.4,0-2.6-1.2-2.6-2.6v-44.6c0-1.5,1.2-2.7,2.6-2.7h86c1.4,0,2.6,1.2,2.6,2.7    v44.6C314.6,834.9,313.5,836,312,836L312,836z M225.8,846.8h86.4v-1.7h-86.4V846.8z" class="st3" id="XMLID_648_"/>
		<path d="M210.8,818h3.5v-13.9h-3.5V818z M356.5,651.7h-7.1v2.4h7.1V651.7z M333.2,635.5v168.6h-9.5    V818h16.4c3.8,0,6.9-3.1,6.9-6.9V642.4h9.5v-13.9h-16.4C336.3,628.6,333.2,631.7,333.2,635.5L333.2,635.5z" class="st4" id="XMLID_660_"/>
		<path d="M514.1,657.4h-3.5v13.9h3.5V657.4z M368.4,823.8h7.1v-2.4h-7.1V823.8z M391.7,839.9V671.2    h9.5v-13.9h-16.4c-3.8,0-6.9,3.1-6.9,6.9v168.6h-9.5v13.9h16.4C388.6,846.8,391.7,843.7,391.7,839.9L391.7,839.9z" class="st4" id="XMLID_664_"/>
	</g>
</g>
<g id="Layer_9">
	<g id="XMLID_259_">
		<path d="M1144.6,678.7l-4.6,1.1l35.7,157.5l21.1,18.3c2.5,2.2-2.2,9.4-5.3,8.2l-14.7-5.4    c-2.3,0.6-6.7,1.6-8.7,0.3l-44.5-175l-5.7,1.3l-2-9.7l2.6-0.6l-3.8-17.2l-313,192.2l-231.5,20.9c-7.6,0.7-10.5-11.3-4.7-16.5    l176.4-160l-4.4-15.5l-5.6,1.5l-2.4-8.8l30.4-7.6l2.4,8.8l-4.4,1.2l4.2,14.6l341.7-80.3l-7.7-34.3l21.3-4.4l22.5,100.3l2.9-0.7    L1144.6,678.7z M747.5,713.9L602.1,840.4c-7,6.1-7.3,14.9,3.3,13.6l177.3-21.1L747.5,713.9z M801.1,823.2L1090.3,634l-322.9,73    L801.1,823.2z" class="st1" id="XMLID_273_"/>
		<path d="M1134.9,670.1l-1.1-4.9l-2.9,0.7l-22.5-100.4l-16.6,3.4l7.6,34.2l-346.2,81.4l-5.6-19.2    l4.5-1.2l-1.2-4.2l-25.7,6.4l1.1,4.2l5.6-1.5l5.5,19.1L560.2,849c-4.1,3.7-2.2,12.8,2.9,12.4l231-20.8l315.3-193.7l5.1,22.8    l-2.6,0.6l1,5L1134.9,670.1z M1119,676.2l44.2,173.8c2.2,0,4.7-0.5,6.8-1.1l15.4,5.7c0.9,0.3,3.4-3.9,3-4.2l-21.7-18.8    l-35.9-158.2L1119,676.2z M1137.8,671.9l-4.6,1.1l35.7,157.5l21.1,18.3c2.5,2.2-2.2,9.4-5.3,8.2l-14.7-5.4    c-2.3,0.6-6.7,1.6-8.7,0.3l-44.5-175l-5.7,1.3l-2-9.7l2.6-0.6l-3.8-17.2l-313,192.2l-231.5,20.9c-7.6,0.7-10.5-11.3-4.7-16.5    l176.4-160l-4.4-15.5l-5.6,1.5l-2.4-8.8l30.4-7.6l2.4,8.8l-4.4,1.2l4.2,14.6l341.7-80.3l-7.7-34.3l21.3-4.4l22.5,100.3l2.9-0.7    L1137.8,671.9z M742,702.8l37,125.3l-180.1,21.5c-12.9,1.5-15.4-8.9-5.1-17.8L742,702.8z M740.7,707.1L595.3,833.6    c-7,6.1-7.3,14.9,3.3,13.6l177.3-21.1L740.7,707.1z M792.9,820.2l-35.4-121.8l338.4-76.5L792.9,820.2z M794.3,816.4l289.2-189.2    l-322.9,73L794.3,816.4z" class="st2" id="XMLID_265_"/>
		<path d="M1134.9,670.1l-1.1-4.9l-2.9,0.7l-22.5-100.4l-16.6,3.4l7.6,34.2l-346.2,81.4l-5.6-19.2    l4.5-1.2l-1.2-4.2l-25.7,6.4l1.1,4.2l5.6-1.5l5.5,19.1L560.2,849c-4.1,3.7-2.2,12.8,2.9,12.4l231-20.8l315.3-193.7l5.1,22.8    l-2.6,0.6l1,5L1134.9,670.1z M792.9,820.2l-35.4-121.8l338.4-76.5L792.9,820.2z M742,702.8l37,125.3l-180.1,21.5    c-12.9,1.5-15.4-8.9-5.1-17.8L742,702.8z" class="st3" id="XMLID_261_"/>
		<path d="M1119,676.2l44.2,173.8c2.2,0,4.7-0.5,6.8-1.1l15.4,5.7c0.9,0.3,3.4-3.9,3-4.2l-21.7-18.8    l-35.9-158.2L1119,676.2z" class="st4" id="XMLID_260_"/>
	</g>
</g>
</svg>